<?xml version="1.0" encoding="UTF-8"?>
<svg version="1.1" xmlns="http://www.w3.org/2000/svg" width="2048" height="2048">
<path d="M0 0 C1.86149112 -0.00702318 3.722982 -0.01410999 5.58447266 -0.02125549 C11.49772491 -0.04064542 17.41093791 -0.04568938 23.32421875 -0.046875 C24.83554697 -0.04753778 24.83554697 -0.04753778 26.37740707 -0.04821396 C55.80551573 -0.05498211 85.11737389 0.06968288 114.43206787 2.94989014 C117.13195553 3.2149282 119.83272392 3.46936354 122.53369141 3.72314453 C164.41601517 7.71284033 205.89147099 14.34237913 247.01171875 23.203125 C248.07797485 23.43101715 248.07797485 23.43101715 249.16577148 23.66351318 C288.78680995 32.14332252 327.80407189 43.76400815 366.01171875 57.203125 C366.65743835 57.42917419 367.30315796 57.65522339 367.96844482 57.88812256 C429.4039064 79.40695551 489.36588577 107.07932272 545.22753906 140.53662109 C547.95932847 142.17176617 550.69995129 143.79128409 553.44140625 145.41015625 C579.48142532 160.91072009 605.04777378 177.9492297 629.38671875 196.015625 C630.17071045 196.59546143 630.95470215 197.17529785 631.76245117 197.77270508 C639.58654989 203.58540701 647.28189736 209.55978306 654.9453125 215.58203125 C656.88993351 217.10758459 658.84022329 218.62549268 660.79296875 220.140625 C668.14876213 225.86012556 675.31726565 231.76314995 682.39404297 237.82373047 C684.03185502 239.22029523 685.67838649 240.60583233 687.328125 241.98828125 C693.52158764 247.1829159 699.58333928 252.47804428 705.5390625 257.9453125 C707.63039814 259.85493651 709.74430739 261.72643752 711.88671875 263.578125 C720.20683539 270.82192265 728.24449289 278.35532548 735.98828125 286.2109375 C737.83351464 288.02767308 739.7252299 289.71648256 741.69921875 291.390625 C750.13552391 298.64110414 758.06128908 306.72502208 765.2421875 315.21484375 C767.55944492 317.81856125 770.0319332 320.25610464 772.51171875 322.703125 C776.21580823 326.36305153 779.76459642 330.09256294 783.14453125 334.0546875 C785.03992716 336.23558238 786.99198395 338.35768246 788.95751953 340.4753418 C793.79318745 345.68686023 798.38097629 351.0244451 802.83984375 356.56640625 C804.94928224 359.12732528 807.14059523 361.57435955 809.38671875 364.015625 C813.90945324 368.98514609 818.02535906 374.21419788 822.140625 379.51953125 C824.49006388 382.54732361 826.88422243 385.53544228 829.29541016 388.51416016 C836.50040101 397.42742723 843.39562133 406.56293935 850.21386719 415.77441406 C851.33681154 417.29139539 852.46207612 418.80666515 853.59082031 420.31933594 C879.55589779 455.16049098 902.95219726 492.50875861 923.65234375 530.69921875 C924.63484826 532.50894689 925.6224768 534.31589637 926.61328125 536.12109375 C950.1192119 578.9693485 969.93785484 623.42393235 987.01171875 669.203125 C987.27148499 669.8988562 987.53125122 670.5945874 987.79888916 671.31140137 C1020.4775627 759.07138513 1039.3342727 851.45102658 1048.01171875 959.203125 C1048.0708279 960.21248501 1048.0708279 960.21248501 1048.13113117 961.24223614 C1048.85743215 973.9100624 1049.18508099 986.53922573 1049.21484375 999.2265625 C1049.22186642 1001.09081546 1049.22895323 1002.95506818 1049.23609924 1004.81932068 C1049.25548449 1010.73892568 1049.26053288 1016.65849145 1049.26171875 1022.578125 C1049.26216061 1023.58653316 1049.26260246 1024.59494133 1049.26305771 1025.63390732 C1049.26974149 1054.71684044 1049.18315433 1083.68595714 1046.26818848 1112.65155029 C1045.99664175 1115.35312359 1045.73576668 1118.05561052 1045.47558594 1120.75830078 C1036.76646569 1210.16409783 1017.16899871 1298.10711721 951.36230469 1463.31835938 C950.10633362 1466.00103366 948.85888574 1468.68750129 947.61328125 1471.375 C942.840433 1481.6238024 937.74357665 1491.66740486 932.39355469 1501.62646484 C930.93746946 1504.34157499 929.49416709 1507.06327621 928.05078125 1509.78515625 C919.83204827 1525.20364342 911.0479895 1540.25351495 902.01171875 1555.203125 C901.45516602 1556.12689941 900.89861328 1557.05067383 900.32519531 1558.00244141 C873.41031255 1602.54864276 842.66428224 1645.04503809 808.88500977 1684.62890625 C806.11510905 1687.87800936 803.42385317 1691.17802363 800.76171875 1694.515625 C796.2679959 1700.04760872 791.41312598 1705.21007339 786.50292969 1710.37036133 C782.77380433 1714.2926621 779.15289552 1718.28080507 775.62548828 1722.38598633 C773.43143092 1724.85654138 771.07856577 1727.14602586 768.72290039 1729.46118164 C767.10444962 1731.10872712 765.61959458 1732.80800513 764.1328125 1734.57421875 C759.15503161 1740.29715277 753.75745316 1745.60667783 748.38745117 1750.95776367 C746.57810942 1752.76174585 744.77417556 1754.57101165 742.97070312 1756.38085938 C737.66359257 1761.6907104 732.37487947 1766.96373418 726.62670898 1771.80249023 C724.83339227 1773.35778245 723.17342823 1775.00866884 721.51171875 1776.703125 C718.54436552 1779.71726082 715.43826583 1782.50229833 712.234375 1785.26171875 C709.68194992 1787.49116561 707.19284361 1789.78313882 704.69921875 1792.078125 C700.1564719 1796.22557758 695.47051913 1800.13545195 690.68359375 1803.99609375 C688.11312825 1806.11935838 685.65252512 1808.32124349 683.19921875 1810.578125 C678.23101552 1815.09966012 673.00368298 1819.21464706 667.69921875 1823.328125 C664.65097692 1825.69325133 661.64621139 1828.10721292 658.64990234 1830.53759766 C650.28169826 1837.31228441 641.67377845 1843.73811345 632.96118164 1850.06201172 C630.66247726 1851.73071774 628.36839029 1853.40527668 626.07592773 1855.08251953 C615.12970097 1863.06703957 603.98878736 1870.71358699 592.69921875 1878.203125 C591.84665497 1878.76994995 590.99409119 1879.3367749 590.11569214 1879.92077637 C577.56191675 1888.26324574 564.97494742 1896.50636854 552.01171875 1904.203125 C550.62968262 1905.02780273 550.62968262 1905.02780273 549.21972656 1905.86914062 C534.36199309 1914.71197571 519.28503058 1923.1017761 504.01171875 1931.203125 C502.47668701 1932.02200195 502.47668701 1932.02200195 500.91064453 1932.85742188 C456.03475751 1956.74106428 409.31407562 1977.07623127 361.13671875 1993.328125 C360.019021 1993.70694824 358.90132324 1994.08577148 357.74975586 1994.47607422 C340.6204969 2000.13962111 322.58991721 2000.05671559 305.96875 1992.73828125 C294.48541076 1986.77665335 286.90029546 1977.4573447 282.68234795 1965.28869742 C279.40056197 1954.24640908 280.36336866 1942.31704174 280.46070874 1930.91789615 C280.48666934 1927.21822605 280.4831672 1923.5185621 280.48335266 1919.81881714 C280.48753366 1913.41837391 280.50971331 1907.01820194 280.54419899 1900.61785316 C280.59400685 1891.33383918 280.61370899 1882.04994238 280.62602969 1872.7658117 C280.6466918 1857.65882094 280.68818527 1842.55196623 280.74438477 1827.44506836 C280.79861204 1812.8487279 280.84825283 1798.25239387 280.88793945 1783.65600586 C280.89038388 1782.75877036 280.8928283 1781.86153486 280.8953468 1780.9371104 C280.92187512 1771.10830599 280.94573702 1761.27949875 280.96573162 1751.45067883 C280.96749894 1750.58264216 280.96926625 1749.7146055 280.97108712 1748.82026469 C280.9781044 1745.34641789 280.98506182 1741.87257104 280.99164971 1738.39872339 C281.01082719 1728.2971509 281.03805378 1718.19568509 281.08078422 1708.09418335 C281.10736394 1701.7409141 281.1268609 1695.38764838 281.14115552 1689.0343397 C281.1496769 1685.38726313 281.1614498 1681.74028165 281.18283844 1678.093256 C281.31880181 1654.3367373 280.66924518 1630.56808797 276.82421875 1607.078125 C276.71978455 1606.42565796 276.61535034 1605.77319092 276.50775146 1605.10095215 C274.31793416 1591.53409218 271.07145767 1578.33131403 267.01171875 1565.203125 C266.59817139 1563.85903564 266.59817139 1563.85903564 266.17626953 1562.48779297 C256.48797943 1531.63930439 240.46991655 1503.53646201 216.97314453 1481.1862793 C215.62010285 1479.89176453 214.31113735 1478.55145788 213.01171875 1477.203125 C213.01171875 1476.543125 213.01171875 1475.883125 213.01171875 1475.203125 C213.95962532 1475.07610451 213.95962532 1475.07610451 214.92668152 1474.94651794 C261.16663336 1468.75653237 261.16663336 1468.75653237 307.01171875 1460.203125 C307.78976868 1460.03768188 308.5678186 1459.87223877 309.3694458 1459.70178223 C376.65227346 1445.34562758 444.1992612 1423.05186283 501.01171875 1383.203125 C501.54635742 1382.83155273 502.08099609 1382.45998047 502.63183594 1382.07714844 C520.59952647 1369.57032686 537.7635041 1355.94233762 553.01171875 1340.203125 C555.59135624 1337.6068178 558.18784925 1335.03142237 560.80859375 1332.4765625 C567.37001766 1326.05974602 573.31554877 1319.41189137 579.01171875 1312.203125 C579.91949705 1311.10610083 580.82977972 1310.01114554 581.7421875 1308.91796875 C593.99722081 1294.11792768 604.51843721 1277.89544661 614.01171875 1261.203125 C614.48399902 1260.38134766 614.9562793 1259.55957031 615.44287109 1258.71289062 C656.80353535 1186.28936379 673.55848755 1101.76123157 678.01171875 1019.203125 C678.06811523 1018.27242187 678.12451172 1017.34171875 678.18261719 1016.3828125 C682.77709706 940.04376224 674.34714491 863.76840763 641.01171875 794.203125 C640.58648926 793.30722656 640.16125977 792.41132812 639.72314453 791.48828125 C625.03178629 760.71607068 605.95783162 731.11877638 582.9765625 705.8515625 C582.46359619 705.27623779 581.95062988 704.70091309 581.42211914 704.1081543 C580.4219207 702.9893125 579.40730024 701.88314675 578.37670898 700.79223633 C576.14714279 698.28114923 575.01255799 696.80653552 575.0078125 693.39453125 C576.04834118 690.08670273 577.12318604 686.80032921 578.28393555 683.53271484 C607.12217855 602.25640767 597.43111605 507.85409611 565.97265625 428.7734375 C565.01171875 426.203125 565.01171875 426.203125 565.01171875 424.203125 C515.46395238 417.65003332 464.94733053 433.37297057 420.01171875 453.203125 C419.0872998 453.60966309 418.16288086 454.01620117 417.21044922 454.43505859 C392.48112391 465.38548293 368.3454856 477.52707603 345.01171875 491.203125 C344.16206543 491.70021973 343.31241211 492.19731445 342.43701172 492.70947266 C332.80957344 498.3644514 323.31508664 504.22268218 313.88671875 510.203125 C312.97124268 510.78255859 312.0557666 511.36199219 311.11254883 511.95898438 C306.63862944 514.8117106 302.23058743 517.7230721 297.90234375 520.79296875 C297.09684082 521.35693359 296.29133789 521.92089844 295.46142578 522.50195312 C293.95912634 523.56091489 292.46935913 524.63798674 290.99560547 525.73632812 C290.32287598 526.20876953 289.65014648 526.68121094 288.95703125 527.16796875 C288.09875732 527.79626587 288.09875732 527.79626587 287.22314453 528.43725586 C281.60314375 530.38359528 274.61112839 527.7206357 269.0625 526.234375 C267.50084146 525.82779979 265.93898263 525.42199336 264.37695312 525.0168457 C263.55670654 524.80291168 262.73645996 524.58897766 261.89135742 524.36856079 C216.14868724 512.5114647 169.59519933 504.52610064 122.57421875 499.890625 C121.81548462 499.81508392 121.05675049 499.73954285 120.27502441 499.66171265 C114.52598783 499.0999645 108.77182133 498.63543915 103.01171875 498.203125 C101.3295224 498.07392166 101.3295224 498.07392166 99.61334229 497.94210815 C76.74844034 496.2329691 53.95353396 495.83829722 31.0304985 495.88506699 C28.21646823 495.89071584 25.402444 495.893531 22.58840942 495.89614868 C-4.18299533 495.93233551 -30.82861172 496.24412778 -57.48681641 498.94989014 C-60.1089924 499.21534515 -62.73210472 499.46971665 -65.35546875 499.72314453 C-109.71790064 504.06285423 -153.83820427 511.03249152 -197.0703125 521.96875 C-197.99123688 522.20152145 -198.91216125 522.43429291 -199.86099243 522.67411804 C-204.33335661 523.8089799 -208.80021926 524.96129057 -213.26074219 526.1418457 C-214.86914044 526.55940825 -216.47753887 526.97697013 -218.0859375 527.39453125 C-219.17851616 527.69227448 -219.17851616 527.69227448 -220.29316711 527.99603271 C-226.12685128 529.49679623 -229.18798403 529.26113939 -234.3515625 526.2265625 C-235.67254246 525.35060858 -236.98861318 524.46722471 -238.30078125 523.578125 C-239.82567261 522.56987268 -241.35178515 521.56346564 -242.87890625 520.55859375 C-243.70068359 520.01638184 -244.52246094 519.47416992 -245.36914062 518.91552734 C-288.80896431 490.51443457 -334.6813902 465.29451215 -382.98828125 446.203125 C-383.99004395 445.80657715 -384.99180664 445.4100293 -386.02392578 445.00146484 C-409.28793821 435.90834243 -433.38873503 429.44755676 -457.98828125 425.203125 C-458.71837402 425.07180176 -459.4484668 424.94047852 -460.20068359 424.80517578 C-476.39021932 421.96832669 -493.70839654 422.22227652 -509.98828125 424.203125 C-510.18732056 425.30708618 -510.18732056 425.30708618 -510.39038086 426.43334961 C-510.93060563 428.93594253 -511.62883775 431.13927128 -512.5546875 433.51953125 C-523.09794222 461.21368354 -530.45775684 489.90430357 -535.23828125 519.140625 C-535.38942383 520.06125732 -535.54056641 520.98188965 -535.69628906 521.93041992 C-536.17315324 525.01685064 -536.59210351 528.1052382 -536.98828125 531.203125 C-537.07548431 531.88206818 -537.16268738 532.56101135 -537.25253296 533.26052856 C-539.07768517 547.92738192 -539.3485314 562.49879407 -539.30078125 577.265625 C-539.29895844 578.43566071 -539.29713562 579.60569641 -539.29525757 580.81118774 C-539.25069888 597.79443485 -538.85400704 614.42621849 -535.98828125 631.203125 C-535.82199219 632.24146484 -535.65570312 633.27980469 -535.484375 634.34960938 C-532.45257562 653.00079003 -528.31313953 672.20504884 -521.18359375 689.7578125 C-519.97515876 693.24094866 -519.83759391 693.93416444 -520.98828125 697.203125 C-522.66796875 699.54296875 -522.66796875 699.54296875 -524.86328125 702.140625 C-525.68054688 703.11773438 -526.4978125 704.09484375 -527.33984375 705.1015625 C-529.07193184 707.13923766 -530.82015029 709.16065402 -532.57421875 711.1796875 C-549.53602804 730.76332403 -563.33367116 752.65922529 -575.98828125 775.203125 C-576.37193848 775.87714355 -576.7555957 776.55116211 -577.15087891 777.24560547 C-596.14838436 810.77406569 -608.41400388 848.54704193 -615.98828125 886.203125 C-616.19388672 887.21584473 -616.39949219 888.22856445 -616.61132812 889.27197266 C-633.51965394 974.36867304 -624.86681169 1070.71057093 -546.69140625 1281.21875 C-531.86165807 1303.30028852 -514.91228333 1323.45351343 -496.11328125 1342.265625 C-494.73849609 1343.6587793 -494.73849609 1343.6587793 -493.3359375 1345.08007812 C-487.19943252 1351.22952932 -480.79083789 1356.8062701 -473.98828125 1362.203125 C-472.75677463 1363.21591139 -471.52728332 1364.23115874 -470.30078125 1365.25 C-403.51037531 1420.03637186 -319.05219574 1447.71551636 -158.98828125 1475.203125 C-160.56840139 1478.70196245 -161.59701441 1479.50749158 -164.98828125 1481.203125 C-165.28992188 1481.81671875 -165.5915625 1482.4303125 -165.90234375 1483.0625 C-167.10938724 1485.44185191 -168.38943338 1486.67083198 -170.36328125 1488.453125 C-198.75656838 1516.38514935 -217.38873196 1562.79188713 -221.53125 1601.91015625 C-222.65640249 1611.90128861 -222.65640249 1611.90128861 -226.06640625 1615.234375 C-228.63502057 1616.61408783 -231.15640541 1617.63574575 -233.93115234 1618.52392578 C-236.24572539 1619.28812495 -238.49322629 1620.17276417 -240.7578125 1621.07421875 C-261.7731468 1629.28814503 -283.68978532 1634.86205323 -305.98828125 1638.203125 C-306.73964355 1638.32026855 -307.49100586 1638.43741211 -308.26513672 1638.55810547 C-360.49460691 1646.40243339 -414.99129781 1634.97258606 -457.86572266 1603.83984375 C-466.78607939 1597.23111402 -474.98322058 1589.88178157 -482.98828125 1582.203125 C-484.22384766 1581.02943359 -484.22384766 1581.02943359 -485.484375 1579.83203125 C-491.14340037 1574.32992859 -496.12879881 1568.4163763 -500.98828125 1562.203125 C-501.42479004 1561.65366211 -501.86129883 1561.10419922 -502.31103516 1560.53808594 C-509.74521591 1551.14505756 -516.14076588 1541.28507305 -522.4050293 1531.08081055 C-527.78482365 1522.37814102 -533.65380587 1514.22744501 -539.98828125 1506.203125 C-541.04402344 1504.83027344 -541.04402344 1504.83027344 -542.12109375 1503.4296875 C-547.3756145 1496.68603131 -553.09559278 1490.38847967 -558.98828125 1484.203125 C-559.60880371 1483.54860352 -560.22932617 1482.89408203 -560.86865234 1482.21972656 C-574.70337677 1467.7217165 -589.72946762 1455.4159316 -606.98828125 1445.203125 C-607.56723145 1444.85942871 -608.14618164 1444.51573242 -608.74267578 1444.16162109 C-638.05440834 1427.0343104 -673.84064171 1420.16456015 -707.28125 1427.22265625 C-713.65123314 1428.90744631 -718.70769063 1431.08940686 -723.55078125 1435.578125 C-725.73643435 1439.56931762 -726.64613356 1442.84005024 -725.39453125 1447.3359375 C-722.94756543 1453.39006845 -719.2517119 1458.30744211 -714.98828125 1463.203125 C-714.37597656 1463.91082031 -713.76367188 1464.61851563 -713.1328125 1465.34765625 C-703.66841804 1475.50769286 -691.44408673 1482.81455798 -679.61328125 1489.890625 C-662.44609683 1500.21055114 -648.18518807 1514.37213048 -635.98828125 1530.203125 C-635.20324219 1531.19441406 -634.41820312 1532.18570312 -633.609375 1533.20703125 C-608.04769709 1565.65670713 -586.82721035 1602.63843866 -571.01318359 1640.73486328 C-560.59838534 1665.81671425 -547.59445869 1687.09967006 -527.98828125 1706.203125 C-527.488125 1706.74839844 -526.98796875 1707.29367187 -526.47265625 1707.85546875 C-490.73127538 1745.85011059 -432.92392615 1760.38717624 -382.98828125 1765.203125 C-382.09447754 1765.2973877 -381.20067383 1765.39165039 -380.27978516 1765.48876953 C-368.67279349 1766.56638261 -357.00992087 1766.44606001 -345.36328125 1766.453125 C-344.21100037 1766.45413208 -343.05871948 1766.45513916 -341.871521 1766.45617676 C-322.08528758 1766.44452631 -302.63118471 1765.55043614 -282.98828125 1763.203125 C-282.31750549 1763.12344482 -281.64672974 1763.04376465 -280.95562744 1762.96166992 C-267.3858215 1761.3414187 -253.83030481 1759.53998356 -240.38647461 1757.06640625 C-236.52604039 1756.37081491 -232.90397639 1756.15778537 -228.98828125 1756.203125 C-228.63965685 1795.98888356 -228.32099539 1835.77478677 -228.04223633 1875.56109619 C-228.00861886 1880.35370711 -227.97409596 1885.14630918 -227.93823242 1889.93890381 C-227.85876721 1900.60450879 -227.79134112 1911.2699421 -227.75610352 1921.93579102 C-227.74588645 1924.88118955 -227.72859056 1927.82640867 -227.70483398 1930.77172852 C-227.67293655 1934.76325206 -227.66503024 1938.75444589 -227.66015625 1942.74609375 C-227.64784973 1943.8559111 -227.63554321 1944.96572845 -227.62286377 1946.10917664 C-227.66448675 1960.66511389 -232.05301247 1973.69033193 -242.0859375 1984.42578125 C-253.92363489 1995.48564226 -269.66680567 1998.64530385 -285.46435547 1998.17260742 C-293.88054102 1997.80257063 -301.00218567 1995.86703338 -308.98828125 1993.203125 C-310.64657959 1992.65060059 -310.64657959 1992.65060059 -312.33837891 1992.08691406 C-353.0474739 1978.27750973 -392.39610067 1961.08400334 -430.98828125 1942.203125 C-431.92720215 1941.74728027 -432.86612305 1941.29143555 -433.83349609 1940.82177734 C-446.28174488 1934.77075699 -458.39565491 1928.27096103 -470.40234375 1921.38671875 C-474.75039107 1918.89538492 -479.13164074 1916.47643179 -483.53930664 1914.0925293 C-516.03446628 1896.4859903 -547.01747671 1875.5164036 -576.92578125 1853.828125 C-577.66538086 1853.29268066 -578.40498047 1852.75723633 -579.16699219 1852.20556641 C-587.21824902 1846.34902002 -595.12248499 1840.30556128 -602.98828125 1834.203125 C-603.89223633 1833.50388916 -603.89223633 1833.50388916 -604.81445312 1832.79052734 C-622.60326152 1819.0126292 -639.96674041 1804.63585359 -656.55078125 1789.42578125 C-658.6310085 1787.52890736 -660.73385023 1785.66919557 -662.86328125 1783.828125 C-671.73407916 1776.10019063 -680.23059623 1768.02529842 -688.5 1759.66015625 C-691.24050896 1756.95406499 -694.10057997 1754.44585882 -697.0234375 1751.94140625 C-702.09753645 1747.45239227 -706.84369907 1742.60726459 -711.23828125 1737.453125 C-714.47169829 1733.67576865 -717.95551664 1730.19657031 -721.48828125 1726.703125 C-725.54921734 1722.68271835 -729.49121336 1718.64088321 -733.19140625 1714.28125 C-735.05842601 1712.12200106 -736.98776031 1710.02715812 -738.9296875 1707.93530273 C-743.76289173 1702.72759103 -748.34760269 1697.39305897 -752.8046875 1691.85546875 C-754.98225193 1689.21044863 -757.24146888 1686.67099975 -759.55078125 1684.140625 C-763.125937 1680.20795367 -766.49719391 1676.17077035 -769.78515625 1671.99609375 C-771.38671282 1669.96575165 -772.99945909 1667.9490763 -774.62890625 1665.94140625 C-787.13176323 1650.50572772 -798.90404585 1634.51031567 -810.45166016 1618.3515625 C-811.94228001 1616.26744196 -813.43973087 1614.18836051 -814.9375 1612.109375 C-839.51103079 1577.83122898 -861.16668469 1541.40195084 -880.98828125 1504.203125 C-881.78153809 1502.7193335 -881.78153809 1502.7193335 -882.59082031 1501.20556641 C-922.04730696 1427.12281198 -951.35431749 1347.96038971 -997.98828125 1089.203125 C-998.02768735 1088.5313815 -998.06709345 1087.859638 -998.10769367 1087.16753864 C-998.83961496 1074.42563756 -999.16184504 1061.72250116 -999.19140625 1048.9609375 C-999.1984283 1047.07421851 -999.20551512 1045.18749977 -999.21266174 1043.30078125 C-999.23204846 1037.30989232 -999.23709529 1031.31904214 -999.23828125 1025.328125 C-999.23872311 1024.30783958 -999.23916496 1023.28755417 -999.23962021 1022.23635101 C-999.24626404 992.99064569 -999.17664144 963.85875367 -996.24151611 934.73138428 C-995.97455132 932.06604743 -995.72062309 929.3996673 -995.46826172 926.73291016 C-991.4592272 884.8315576 -984.85361142 843.34464723 -975.98828125 802.203125 C-975.83635315 801.4922876 -975.68442505 800.7814502 -975.52789307 800.04907227 C-967.04808373 760.4280338 -955.4273981 721.41077186 -941.98828125 683.203125 C-941.76223206 682.5574054 -941.53618286 681.91168579 -941.30328369 681.24639893 C-919.78072121 619.80028968 -892.07608482 559.91665588 -858.67089844 504.01953125 C-857.56792747 502.17335117 -856.46945133 500.32447664 -855.37597656 498.47265625 C-839.43527507 471.47960522 -821.86575929 445.0071571 -803.17578125 419.828125 C-802.30602661 418.65213745 -802.30602661 418.65213745 -801.41870117 417.45239258 C-795.60599924 409.62829386 -789.63162319 401.93294639 -783.609375 394.26953125 C-782.08382166 392.32491024 -780.56591357 390.37462046 -779.05078125 388.421875 C-773.33128069 381.06608162 -767.4282563 373.8975781 -761.36767578 366.82080078 C-759.97111102 365.18298873 -758.58557392 363.53645726 -757.203125 361.88671875 C-752.00849035 355.69325611 -746.71336197 349.63150447 -741.24609375 343.67578125 C-739.33646974 341.58444561 -737.46496873 339.47053636 -735.61328125 337.328125 C-728.66303679 329.34273775 -721.4634723 321.57196583 -713.90869141 314.15600586 C-712.10419336 312.32099697 -710.42446199 310.43325497 -708.75390625 308.4765625 C-705.02318129 304.18580828 -701.08170279 300.14822394 -697.05078125 296.140625 C-696.38626953 295.47224609 -695.72175781 294.80386719 -695.03710938 294.11523438 C-691.08843303 290.17421793 -687.02172093 286.43939525 -682.79858398 282.79516602 C-680.41788815 280.70150215 -678.19941488 278.474019 -675.98828125 276.203125 C-672.49786685 272.67557853 -668.94183811 269.32928026 -665.171875 266.10546875 C-662.98007763 264.19597802 -660.84443261 262.23246678 -658.71386719 260.25512695 C-653.50765296 255.42491709 -648.17579745 250.84185755 -642.640625 246.38671875 C-639.99560488 244.20915432 -637.456156 241.94993737 -634.92578125 239.640625 C-630.99798407 236.06990029 -626.96589359 232.70245298 -622.796875 229.41796875 C-620.71546318 227.77657723 -618.64664597 226.1240248 -616.5859375 224.45703125 C-608.23275661 217.70830287 -599.74551684 211.17106255 -591.11572266 204.78027344 C-588.92749775 203.15806402 -586.74490713 201.52846297 -584.5625 199.8984375 C-565.84795773 185.96461917 -546.67680835 172.72216044 -526.98828125 160.203125 C-526.06998535 159.61708496 -525.15168945 159.03104492 -524.20556641 158.42724609 C-501.0389291 143.67414808 -477.25745868 130.05546093 -452.98828125 117.203125 C-451.87114746 116.61031738 -450.75401367 116.01750977 -449.60302734 115.40673828 C-410.54762077 94.75144395 -370.22697113 77.31064167 -328.83691406 61.89398193 C-326.14431244 60.88772342 -323.45764228 59.86584004 -320.76953125 58.84765625 C-238.14475751 27.95015682 -150.02288746 10.45118699 -62.30078125 2.953125 C-60.83995117 2.82822693 -60.83995117 2.82822693 -59.34960938 2.70080566 C-56.51734326 2.46177913 -53.68463069 2.22931048 -50.8515625 2 C-50.05063675 1.933573 -49.249711 1.867146 -48.42451477 1.79870605 C-32.29549868 0.5305829 -16.17414715 0.03801038 0 0 Z " fill="#1A1E22" transform="translate(998.98828125,-0.203125)"/>
</svg>
