<?xml version="1.0" encoding="UTF-8"?>
<svg version="1.1" xmlns="http://www.w3.org/2000/svg" width="2560" height="993">
<path d="M0 0 C0.33 0.33 0.66 0.66 1 1 C1.00410889 0.30438965 1.00821777 -0.3912207 1.01245117 -1.10791016 C1.0454889 -4.28111803 1.11614466 -7.45243191 1.1875 -10.625 C1.19620117 -12.26662109 1.19620117 -12.26662109 1.20507812 -13.94140625 C1.45378627 -23.06070495 1.45378627 -23.06070495 4.36328125 -26.7109375 C8.62645778 -30.41200631 12.48756247 -30.15787497 17.86450195 -30.17700195 C18.66484863 -30.18357315 19.46519531 -30.19014435 20.28979492 -30.19691467 C22.93929133 -30.21663062 25.58873111 -30.22830611 28.23828125 -30.23828125 C29.1437438 -30.24235678 30.04920635 -30.2464323 30.98210716 -30.25063133 C35.77412055 -30.27148424 40.56610536 -30.28578965 45.3581543 -30.29516602 C50.30466561 -30.30623226 55.25072731 -30.34063682 60.19707966 -30.38033772 C64.0035434 -30.40649489 67.80989983 -30.41485702 71.61644554 -30.41844749 C73.43967922 -30.42331533 75.26290804 -30.43493496 77.08605385 -30.45348549 C79.64016909 -30.47785944 82.19311828 -30.47691544 84.74731445 -30.4699707 C85.49714096 -30.48278076 86.24696747 -30.49559082 87.01951599 -30.50878906 C92.14099087 -30.45815083 95.06160929 -29.24081127 99 -26 C100.61155442 -22.77689116 100.13906433 -19.25743017 100.13142776 -15.71667099 C100.1334804 -14.84539688 100.13553303 -13.97412277 100.13764787 -13.07644641 C100.14335232 -10.12433502 100.14185636 -7.17226978 100.14044189 -4.22015381 C100.14302364 -2.09491174 100.14603627 0.03032984 100.1494453 2.15557075 C100.15754249 8.02195442 100.1593064 13.88832588 100.16004276 19.75471449 C100.16188889 26.07297057 100.16943453 32.39122025 100.17617798 38.70947266 C100.1904971 53.26805036 100.19629333 67.82662489 100.20086992 82.38520831 C100.20320584 89.58695914 100.20680874 96.78870916 100.2105653 103.99045936 C100.22340995 128.6631854 100.23412285 153.33591098 100.2375679 178.00864029 C100.23778953 179.55868144 100.23801132 181.1087226 100.23823325 182.65876375 C100.23845389 184.21251423 100.23867437 185.76626471 100.2388947 187.32001519 C100.23933725 190.43697627 100.23978436 193.55393736 100.24023438 196.67089844 C100.24039846 197.83014292 100.24039846 197.83014292 100.24056586 199.01280649 C100.24418771 224.01070133 100.26006995 249.00856701 100.28342474 274.0064507 C100.30809229 300.45815178 100.32174419 326.90983623 100.32293582 353.36154914 C100.32310726 356.27333816 100.32332268 359.18512718 100.32357025 362.0969162 C100.32362602 362.81383876 100.32368179 363.53076132 100.32373925 364.2694088 C100.32488447 375.75054599 100.33586235 387.23165306 100.35045731 398.71278011 C100.36491706 410.28929203 100.36775684 421.86575704 100.36001733 433.44227651 C100.3561374 439.70006791 100.35690842 445.95775924 100.37107468 452.21553802 C100.5167974 520.55591199 93.63505032 590.28376987 47 644 C46.53142578 644.54301758 46.06285156 645.08603516 45.58007812 645.64550781 C40.43270151 651.57358233 35.11807278 657.07778089 29 662 C28.04480469 662.76957031 27.08960938 663.53914062 26.10546875 664.33203125 C-24.39495016 704.37281647 -92.04760522 716.43565823 -155.19262695 710.23071289 C-181.88340787 707.06054351 -207.3065095 699.48586657 -231.75 688.4375 C-233.19560303 687.78551636 -233.19560303 687.78551636 -234.67041016 687.12036133 C-260.9413595 674.87380478 -284.13526602 654.17378788 -306.03515625 635.515625 C-307.78180678 634.03361849 -309.53638756 632.56072491 -311.30859375 631.109375 C-314.34886923 628.60636234 -316.5111684 626.65689973 -318 623 C-318.62192249 616.57346765 -317.8254108 614.34683915 -314 609 C-312.38554935 607.21124397 -310.72180277 605.46613678 -309.01953125 603.76074219 C-308.53769379 603.27540009 -308.05585632 602.79005798 -307.55941772 602.29000854 C-305.9820687 600.70393188 -304.39760682 599.12519572 -302.8125 597.546875 C-301.7064949 596.43952111 -300.6007867 595.3318706 -299.49536133 594.22393799 C-297.18536402 591.91100195 -294.87181293 589.60169729 -292.55566406 587.29492188 C-289.58979314 584.34047149 -286.63302786 581.37709631 -283.67884827 578.41096115 C-281.40050105 576.12538435 -279.1174087 573.84459553 -276.83285522 571.56522369 C-275.7405626 570.47426313 -274.64974791 569.38182071 -273.56045532 568.28786469 C-272.03858404 566.76090723 -270.51043633 565.24051906 -268.98046875 563.72167969 C-268.11317139 562.85597351 -267.24587402 561.99026733 -266.35229492 561.09832764 C-262.25067942 557.43954613 -258.85365654 556.35302343 -253.421875 556.50390625 C-245.70148323 558.08534134 -239.8465909 566.1076331 -234.5703125 571.47265625 C-220.82892976 584.98431982 -204.09001153 596.20721757 -187 605 C-186.09483643 605.47493896 -186.09483643 605.47493896 -185.17138672 605.95947266 C-150.70402905 623.86155834 -110.36927604 624.09802382 -73.75390625 612.6015625 C-47.72340778 604.01642901 -26.59386384 587.53808946 -14 563 C-0.65524822 536.13064803 1.94405271 507.14708796 2.31640625 477.53515625 C2.33705812 476.12169402 2.35805616 474.70823681 2.37937927 473.29478455 C2.43375257 469.63058625 2.48352382 465.96634045 2.53222656 462.30206299 C2.58307337 458.54052664 2.63842458 454.7790566 2.69335938 451.01757812 C2.79989915 443.67844207 2.90156114 436.33924967 3 429 C2.49040237 429.34158646 1.98080475 429.68317291 1.45576477 430.03511047 C-0.88667419 431.6041657 -3.23043553 433.17123479 -5.57421875 434.73828125 C-6.77637024 435.54416687 -6.77637024 435.54416687 -8.00280762 436.36633301 C-55.99223459 468.42860374 -119.08863812 478.90340742 -175.70703125 467.93359375 C-177.13904317 467.62713462 -178.57002114 467.31580975 -180 467 C-180.79067871 466.83516113 -181.58135742 466.67032227 -182.39599609 466.50048828 C-207.42081612 461.19724765 -232.27407742 451.12754119 -253 436 C-253.9796875 435.30390625 -254.959375 434.6078125 -255.96875 433.890625 C-263.46999516 428.43868908 -270.32259611 422.41510636 -277 416 C-277.57041016 415.45682129 -278.14082031 414.91364258 -278.72851562 414.35400391 C-314.23280931 380.39210986 -336.41654009 331.92271715 -346.4375 284.25 C-346.66002441 283.20150879 -346.88254883 282.15301758 -347.11181641 281.07275391 C-351.08743338 260.73559086 -352.50270568 240.28775283 -352.39111328 219.59594727 C-352.37501973 216.06682631 -352.39108935 212.53885263 -352.41015625 209.00976562 C-352.4640607 151.10359524 -336.42909223 95.13589899 -304 47 C-303.32855957 46.00202393 -303.32855957 46.00202393 -302.64355469 44.98388672 C-297.89136031 37.98691045 -292.85171653 31.41701771 -287.0703125 25.22265625 C-285.20374044 23.21873266 -283.44383926 21.16247085 -281.6875 19.0625 C-250.23872439 -16.77615047 -201.22265682 -36.29961557 -154.55737305 -39.78833008 C-99.5207839 -43.06310345 -45.6649964 -32.02807318 0 0 Z M-211 89 C-212.10214844 90.06734375 -212.10214844 90.06734375 -213.2265625 91.15625 C-240.42363825 119.21825042 -249.02177484 164.03818096 -249.203125 201.6953125 C-249.21018463 202.677845 -249.21724426 203.6603775 -249.22451782 204.67268372 C-249.4155277 239.05496976 -248.1197211 272.9947372 -234 305 C-233.57944336 305.97042236 -233.57944336 305.97042236 -233.15039062 306.96044922 C-220.80614433 334.92575332 -197.85481766 357.37832481 -169.27734375 368.50390625 C-154.93043388 373.55775988 -140.86730886 375.52618708 -125.75 375.3125 C-125.03355316 375.3065683 -124.31710632 375.3006366 -123.57894897 375.29452515 C-88.78948782 375.00343429 -52.32344204 369.26996437 -25 346 C-24.21367188 345.36964844 -23.42734375 344.73929688 -22.6171875 344.08984375 C-17.50260026 339.80096574 -13.29308907 335.13831063 -9.3125 329.8125 C-8.88533691 329.24982422 -8.45817383 328.68714844 -8.01806641 328.10742188 C1.13344867 315.41192061 4.04709804 305.31872809 3.92163086 289.95751953 C3.93278062 288.18831379 3.9468792 286.41912459 3.96366882 284.64996338 C3.9995731 279.88507997 3.99167956 275.12124156 3.9732101 270.35629511 C3.96196768 266.36062846 3.97298626 262.36514636 3.98398215 258.3694886 C4.00976441 248.93413632 4.00036574 239.49928286 3.9675293 230.06396484 C3.9343015 220.3694284 3.95540107 210.67611628 4.00423139 200.98167336 C4.0446983 192.62102801 4.05368355 184.26075654 4.03740031 175.90002906 C4.02785231 170.9229145 4.02914484 165.94646912 4.05979729 160.9694252 C4.08706332 156.28524592 4.07451318 151.60273589 4.03291512 146.91867828 C4.0240335 145.21286706 4.02836291 143.50692007 4.04785156 141.80119705 C4.26360656 121.17193766 -6.33610718 104.8139576 -20.3125 90.1875 C-49.10162148 62.68864727 -89.68882843 56.22844506 -128.015625 56.81640625 C-158.93998786 57.60469352 -188.69819754 66.77431291 -211 89 Z " fill="#1FBEFF" transform="translate(1231,282)"/>
<path d="M0 0 C0.33 0.33 0.66 0.66 1 1 C1.01458252 0.3294458 1.02916504 -0.3411084 1.04418945 -1.03198242 C1.118883 -4.08438822 1.21547299 -7.13572585 1.3125 -10.1875 C1.33505859 -11.24259766 1.35761719 -12.29769531 1.38085938 -13.38476562 C1.41630859 -14.40634766 1.45175781 -15.42792969 1.48828125 -16.48046875 C1.51446533 -17.41785889 1.54064941 -18.35524902 1.56762695 -19.32104492 C2.24066267 -23.49113016 3.75687292 -26.04286692 7.1055603 -28.62115479 C10.80117711 -30.38166254 14.08320121 -30.42815315 18.09155273 -30.40405273 C19.29251083 -30.41434761 19.29251083 -30.41434761 20.51773071 -30.42485046 C23.15653364 -30.44310738 25.79474139 -30.43928259 28.43359375 -30.43359375 C30.27295627 -30.43815615 32.11231708 -30.4434619 33.95167542 -30.44947815 C37.80419851 -30.45840711 41.65651429 -30.45598864 45.5090332 -30.44604492 C50.43986026 -30.4345566 55.36997103 -30.45476561 60.300704 -30.48396206 C64.09862291 -30.50233073 67.89637039 -30.50203026 71.69432259 -30.49632454 C73.5119534 -30.4961714 75.32959589 -30.50220963 77.14718437 -30.51461601 C79.69159416 -30.52953672 82.23468354 -30.51884176 84.77905273 -30.50170898 C85.89907936 -30.51621094 85.89907936 -30.51621094 87.04173279 -30.53100586 C92.14729939 -30.4592171 95.07137063 -29.22720517 99 -26 C100.60142283 -22.79715435 100.13909543 -19.31828321 100.13142776 -15.80034447 C100.1334804 -14.93811142 100.13553303 -14.07587837 100.13764787 -13.18751705 C100.14335215 -10.26614116 100.14185638 -7.34481191 100.14044189 -4.4234314 C100.14302366 -2.32023871 100.14603629 -0.21704651 100.1494453 1.886145 C100.15754243 7.6916596 100.15930639 13.49716186 100.16004276 19.30268145 C100.16188892 25.55553554 100.16943464 31.80838315 100.17617798 38.06123352 C100.19049764 52.46999769 100.19629361 66.87875783 100.20086992 81.28752761 C100.20320601 88.41619121 100.20680895 95.54485401 100.2105653 102.67351699 C100.22341068 127.09876331 100.23412299 151.52400918 100.2375679 175.9492588 C100.23778953 177.48380382 100.23801132 179.01834883 100.23823325 180.55289384 C100.23845389 182.09110325 100.23867437 183.62931266 100.2388947 185.16752207 C100.23933724 188.25328294 100.23978436 191.33904382 100.24023438 194.42480469 C100.24039846 195.57244557 100.24039846 195.57244557 100.24056586 196.74327113 C100.2441868 221.48467751 100.26006519 246.22605441 100.28342474 270.96744952 C100.30810048 297.15114694 100.32174458 323.33482755 100.32293582 349.51853693 C100.32310725 352.4017152 100.32332267 355.28489347 100.32357025 358.16807175 C100.32362602 358.87794371 100.32368179 359.58781567 100.32373925 360.3191989 C100.32488384 371.68092261 100.33585636 383.04261586 100.35045731 394.40432933 C100.36492776 405.86437555 100.36775129 417.32436925 100.36001733 428.7844248 C100.35614104 434.97765587 100.35689001 441.17078585 100.37107468 447.36400414 C100.46491886 490.91236092 98.76014662 533.235495 85 575 C84.75668945 575.7410498 84.51337891 576.48209961 84.26269531 577.24560547 C75.38452334 603.69855088 61.25916627 627.77347835 42 648 C41.48808105 648.53915039 40.97616211 649.07830078 40.44873047 649.63378906 C-0.08726384 692.05269985 -58.20698159 709.60632223 -115.74249268 711.2375946 C-133.98235781 711.64497816 -151.9829512 711.11470698 -170 708 C-170.9398877 707.83902832 -171.87977539 707.67805664 -172.84814453 707.51220703 C-209.634351 700.93579609 -242.681049 686.18558552 -272.12011719 663.45068359 C-273.90988704 662.06953912 -275.70724397 660.69905393 -277.5078125 659.33203125 C-287.6647888 651.60312371 -297.48557043 643.50342658 -307.14233398 635.16064453 C-309.67386165 632.97616643 -312.21134188 630.83238402 -314.83203125 628.75390625 C-318.45054653 625.82649479 -318.87288261 623.84744929 -319.5625 619.25 C-319.44675882 615.68573663 -318.56603646 614.0599039 -316.1730957 611.45092773 C-315.53473785 610.75450165 -314.89638 610.05807556 -314.23867798 609.34054565 C-309.77715328 604.67600598 -305.23685091 600.09395727 -300.66796875 595.53515625 C-299.5840268 594.45053933 -298.50023322 593.36577412 -297.4165802 592.28086853 C-295.1615814 590.02440563 -292.9048093 587.76973599 -290.64672852 585.51635742 C-287.75034593 582.62571268 -284.8585318 579.73054545 -281.96799755 576.83405399 C-279.7385217 574.60097263 -277.50667972 572.37026838 -275.27410316 570.1402874 C-274.20602307 569.07287448 -273.13868557 568.00471796 -272.0721035 566.93580818 C-270.58847546 565.44964937 -269.10169552 563.96671846 -267.61401367 562.48461914 C-266.76908859 561.64048965 -265.92416351 560.79636017 -265.05363464 559.926651 C-262.22590015 557.27376554 -260.54047687 556.8099814 -256.75 556.6875 C-256.00234375 556.65011719 -255.2546875 556.61273437 -254.484375 556.57421875 C-248.46159371 557.60642498 -244.35930719 562.43685766 -240.3125 566.6875 C-234.86719686 572.25095913 -229.16010763 577.22831041 -223 582 C-222.42830078 582.45342773 -221.85660156 582.90685547 -221.26757812 583.37402344 C-200.97538577 599.44672818 -178.25333508 611.86704719 -153 618 C-151.49566406 618.36931641 -151.49566406 618.36931641 -149.9609375 618.74609375 C-116.78755308 625.22876321 -76.04992111 618.36653626 -47.5 600.0625 C-41.93171265 596.12245667 -36.86479184 591.77634108 -32 587 C-31.25105469 586.27554688 -30.50210937 585.55109375 -29.73046875 584.8046875 C0.70986099 553.35145712 1.56332283 506.18659224 1.20599365 465.22894287 C1.17464382 461.23861668 1.16146549 457.24822776 1.14648438 453.2578125 C1.11483731 445.50504512 1.06402168 437.75257512 1 430 C-0.44149414 430.97731079 -0.44149414 430.97731079 -1.91210938 431.97436523 C-52.91221882 466.38162882 -115.75576733 479.23220786 -176.56640625 467.93359375 C-229.23339162 457.14945678 -275.51843401 428.04472387 -305.35888672 382.94628906 C-334.69770387 337.62272926 -352.11042739 284.85656557 -352.16796875 230.65625 C-352.17129715 229.52586304 -352.17462555 228.39547607 -352.17805481 227.23083496 C-352.18307954 224.85441489 -352.18546453 222.47798788 -352.18530273 220.1015625 C-352.18747783 216.53633472 -352.20565093 212.97142283 -352.22460938 209.40625 C-352.26884213 191.65812524 -351.42676105 174.11836418 -348.25 156.625 C-348.08153564 155.68422607 -347.91307129 154.74345215 -347.73950195 153.77416992 C-336.04417958 90.99451293 -303.66576025 30.33269081 -251 -7 C-177.19631048 -56.32702287 -71.74411288 -50.31919147 0 0 Z M-209 85 C-209.90878906 85.81855469 -210.81757812 86.63710938 -211.75390625 87.48046875 C-232.08376622 106.62277084 -241.67634006 133.29888966 -247.25 160.0625 C-247.47683472 161.13842407 -247.47683472 161.13842407 -247.70825195 162.23608398 C-250.81986299 178.33177495 -251.34855441 194.55558608 -251.31567383 210.90454102 C-251.31252028 214.1665211 -251.33605754 217.42758454 -251.36132812 220.68945312 C-251.41893881 239.56143598 -249.94098247 258.39639893 -245.3125 276.75 C-245.05903809 277.77456299 -244.80557617 278.79912598 -244.54443359 279.85473633 C-236.69174921 310.23619281 -219.50779316 340.41938234 -192 357 C-191.01515625 357.64066406 -190.0303125 358.28132813 -189.015625 358.94140625 C-169.93711967 370.74231272 -149.32614732 374.40833029 -127.25 374.3125 C-126.38483765 374.31067719 -125.51967529 374.30885437 -124.6282959 374.30697632 C-85.92335315 374.16967082 -48.19216589 366.0720146 -19.25 338.6875 C-7.05103408 325.9523158 2.03960752 310.49712194 2.17408752 292.66017151 C2.18058648 291.95494148 2.18708543 291.24971145 2.19378132 290.52311081 C2.21403801 288.177609 2.22734977 285.83212401 2.24047852 283.48657227 C2.25330407 281.7972338 2.26643983 280.10789767 2.27986145 278.41856384 C2.39564323 263.01061307 2.45240268 247.60203099 2.49662876 232.19372654 C2.52982636 220.82271696 2.58933464 209.45250686 2.68413979 198.0818401 C2.74869667 190.06539044 2.78219965 182.0491573 2.79337829 174.03245777 C2.80090113 169.25515834 2.82176102 164.47882694 2.87640572 159.70181465 C2.92730506 155.19930816 2.93931499 150.69826957 2.92315483 146.1955204 C2.92375239 144.55574878 2.93772648 142.9159101 2.96710205 141.27640152 C3.17641876 128.93480832 0.2433068 120.59357932 -6 110 C-6.55503928 108.9863012 -7.11007856 107.97260241 -7.68193722 106.92818546 C-20.03167715 84.64791099 -44.61550414 70.66028043 -68.3125 63.75 C-113.42583937 51.1783671 -172.83998429 51.01072773 -209 85 Z " fill="#1FBEFF" transform="translate(1744,282)"/>
<path d="M0 0 C0.84125931 -0.0087616 1.68251862 -0.01752319 2.54927063 -0.02655029 C5.32308922 -0.04851168 8.09530655 -0.03400365 10.86914062 -0.01708984 C12.80058091 -0.02045893 14.73201912 -0.02531232 16.66345215 -0.03158569 C20.70862033 -0.03895259 24.75323596 -0.02825737 28.79833984 -0.00488281 C33.9805474 0.02360483 39.16146024 0.00719988 44.3436203 -0.02274513 C48.33113337 -0.04082302 52.31834007 -0.03505782 56.30586243 -0.02210617 C58.21641697 -0.01877352 60.12699943 -0.02285429 62.03752136 -0.03450394 C64.70935614 -0.04722086 67.37910189 -0.02782516 70.05078125 0 C71.23230522 -0.01518173 71.23230522 -0.01518173 72.43769836 -0.03067017 C76.18783558 0.04159328 78.22025182 0.41382093 81.22786731 2.71189231 C84.02914275 6.29051475 84.22770345 8.88041692 84.15624714 13.24317646 C84.16743353 14.38388485 84.16743353 14.38388485 84.17884591 15.54763785 C84.19780962 18.10494871 84.18108196 20.66078343 84.16462708 23.21809387 C84.17093643 25.06620341 84.17943786 26.91430656 84.18994731 28.76239699 C84.21250055 33.84774979 84.20387024 38.93265005 84.19026172 44.01801717 C84.18101718 49.4992751 84.20053004 54.98043828 84.21658325 60.46166992 C84.24045179 69.96054815 84.2460248 79.45929659 84.23923683 88.95820045 C84.22944889 102.69205948 84.24715159 116.4257743 84.27160414 130.15961 C84.31052654 152.44079834 84.32720143 174.7219567 84.32983398 197.00317383 C84.33244447 218.64967959 84.34552991 240.29613759 84.37280273 261.94262695 C84.37363916 262.60981231 84.37447558 263.27699768 84.37533736 263.96440078 C84.38458323 271.32935003 84.39411598 278.69429888 84.40376627 286.05924761 C84.47625951 341.58848068 84.51260349 397.11769597 84.52539062 452.64697266 C88.10333515 449.09397893 91.67780449 445.53753615 95.24926758 441.97802734 C96.46156311 440.77072201 97.67475932 439.56432031 98.88891602 438.35888672 C107.80009023 429.51962522 107.80009023 429.51962522 116.20114326 420.19927979 C117.83795862 418.2805747 119.57077303 416.48115872 121.35717773 414.70166016 C122.02981659 414.0290918 122.70245544 413.35652344 123.39547729 412.66357422 C124.46331955 411.60348145 124.46331955 411.60348145 125.55273438 410.52197266 C126.70783005 409.36906738 126.70783005 409.36906738 127.88626099 408.19287109 C129.5454617 406.53745261 131.20581584 404.88318952 132.86721802 403.22998047 C135.50169381 400.6083588 138.13295387 397.98354688 140.76342773 395.35791016 C146.82146078 389.31222732 152.88415266 383.27122434 158.94709778 377.23046875 C164.95362893 371.24580721 170.95813722 365.25912941 176.95925903 359.26904297 C179.54232005 356.69242948 182.12839163 354.11886437 184.71459961 351.54541016 C186.30923109 349.95441371 187.90372094 348.36327529 189.49804688 346.77197266 C190.56588913 345.71187988 190.56588913 345.71187988 191.65530396 344.63037109 C195.53187948 340.75420185 199.20336078 336.76989077 202.78461075 332.62044716 C205.75103544 329.25749268 208.90589602 326.0855266 212.06201172 322.90161133 C212.78009506 322.1737442 213.49817841 321.44587708 214.23802185 320.69595337 C216.58850026 318.31583474 218.94298537 315.93975008 221.29882812 313.56494141 C222.10861744 312.74858027 222.91840675 311.93221912 223.75273514 311.09111977 C228.03253204 306.77888257 232.31629358 302.47062172 236.60253906 298.16479492 C240.13910779 294.61036103 243.66694818 291.04759252 247.1875 287.47729492 C251.45516889 283.14942082 255.73739229 278.83646821 260.03041458 274.53374672 C261.65817742 272.8974393 263.2808113 271.2560125 264.89808273 269.60933495 C267.16146895 267.30699469 269.44312002 265.02435438 271.72998047 262.74536133 C272.38793106 262.06741013 273.04588165 261.38945892 273.72377014 260.69096375 C281.28711614 253.24337742 288.88369053 252.19292222 299.19824219 252.25878906 C300.73898407 252.25090363 300.73898407 252.25090363 302.31085205 252.24285889 C305.67939813 252.22973885 309.04746541 252.23836613 312.41601562 252.24853516 C314.76772146 252.24651275 317.11942668 252.24359992 319.47113037 252.23983765 C324.38673912 252.23542566 329.30218381 252.24181155 334.21777344 252.25585938 C340.51831166 252.27298816 346.8184675 252.26307934 353.11899185 252.24514198 C357.96941007 252.23430601 362.81973745 252.23774902 367.67015839 252.24552536 C369.99379268 252.24752592 372.31743523 252.24507317 374.64105988 252.2380867 C377.88430182 252.23047136 381.12692162 252.24207651 384.37011719 252.25878906 C385.80871094 252.24968002 385.80871094 252.24968002 387.27636719 252.24038696 C392.15446478 252.28697497 395.60352726 252.39817706 399.52539062 255.64697266 C401.31931029 258.58247756 401.52288342 260.51409095 401.58789062 263.95947266 C399.35477791 271.70968737 392.6193018 276.56537267 386.78295898 281.79736328 C380.75443136 287.2459243 375.07577549 293.04520817 369.37597656 298.83374023 C365.86835899 302.37913328 362.35920289 305.85252357 358.57226562 309.10009766 C353.62493305 313.3494459 349.09953404 318.00352404 344.52539062 322.64697266 C335.0400007 332.27608061 335.0400007 332.27608061 330.55664062 336.11572266 C325.43356269 340.50840193 320.76024315 345.34418824 316.02539062 350.14697266 C310.6914043 355.55748676 305.36494281 360.85870097 299.59375 365.80126953 C295.21072982 369.71246318 291.14793737 373.9652789 287.02539062 378.14697266 C281.6914043 383.55748676 276.36494281 388.85870097 270.59375 393.80126953 C266.21072982 397.71246318 262.14793737 401.9652789 258.02539062 406.14697266 C252.68131553 411.56772028 247.34473652 416.88049291 241.5625 421.83251953 C237.36231857 425.57362073 233.47110169 429.64147809 229.52539062 433.64697266 C224.30426899 438.9472022 219.07691896 444.12810065 213.42773438 448.97167969 C210.14696033 451.86088291 207.09385925 454.9732035 204.02539062 458.08447266 C203.39375 458.720625 202.76210937 459.35677734 202.11132812 460.01220703 C200.58033289 461.55480072 199.05251395 463.1005458 197.52539062 464.64697266 C201.45743894 469.96860773 205.51373849 475.1592082 209.71289062 480.27197266 C213.85112474 485.33492546 217.94473066 490.42574124 221.96289062 495.58447266 C226.71753509 501.68075681 231.61569723 507.65174093 236.54248047 513.609375 C240.20911831 518.04389511 243.83634178 522.5050661 247.41601562 527.01025391 C249.64422508 529.79551573 251.89524592 532.56122819 254.14916992 535.32568359 C258.90943133 541.16435032 263.63594942 547.02421306 268.27539062 552.95947266 C272.15237906 557.9184274 276.08961929 562.81994537 280.08789062 567.68212891 C287.7061403 576.9485576 295.25763379 586.26261593 302.64648438 595.71313477 C306.0692265 600.08449037 309.56149589 604.39378103 313.08789062 608.68212891 C320.7061403 617.9485576 328.25763379 627.26261593 335.64648438 636.71313477 C339.0692265 641.08449037 342.56149589 645.39378103 346.08789062 649.68212891 C353.13092392 658.24889536 360.14318717 666.83844897 366.96289062 675.58447266 C371.06493282 680.84441018 375.27122415 686.00942106 379.52539062 691.14697266 C384.25114211 696.85509717 388.90464661 702.6080327 393.46044922 708.45263672 C397.49638277 713.62906244 401.60248393 718.74770646 405.73095703 723.85058594 C409.43328799 728.45030143 410.82450431 730.65602399 410.74804688 736.67431641 C410.43919169 739.41066499 409.53004834 740.7908081 407.52539062 742.64697266 C404.75385491 743.57081789 403.09222887 743.77623744 400.23225403 743.78741455 C398.91818069 743.79597977 398.91818069 743.79597977 397.57756042 743.80471802 C396.61908707 743.80583588 395.66061371 743.80695374 394.6730957 743.80810547 C393.66138306 743.81307037 392.64967041 743.81803528 391.6072998 743.82315063 C388.25316695 743.83778025 384.89908142 743.84457639 381.54492188 743.85009766 C379.21424864 743.85584942 376.88357543 743.86160715 374.55290222 743.86737061 C369.66116109 743.87788353 364.76943639 743.88372398 359.87768555 743.88720703 C353.61766325 743.89268564 347.35785912 743.9166991 341.09790516 743.94517899 C336.28083162 743.96383015 331.46381031 743.96901234 326.64670372 743.97054291 C324.33949277 743.97356546 322.03228266 743.98158054 319.72510719 743.99472809 C316.49145708 744.01183641 313.25833557 744.00989617 310.0246582 744.00341797 C308.6021299 744.01724014 308.6021299 744.01724014 307.15086365 744.03134155 C300.35600205 743.98882995 294.50216418 743.15832233 289.12695312 738.62353516 C288.4746875 737.84751953 287.82242187 737.07150391 287.15039062 736.27197266 C286.39757812 735.38251953 285.64476562 734.49306641 284.86914062 733.57666016 C281.56516369 729.44668899 278.31509921 725.281588 275.12304688 721.06494141 C272.48490746 717.58107787 269.7928005 714.14163247 267.08789062 710.70947266 C266.63043457 710.12842773 266.17297852 709.54738281 265.70166016 708.94873047 C264.77348196 707.77001909 263.84509617 706.59147115 262.91650391 705.41308594 C260.6166483 702.49326224 258.32119536 699.56998178 256.02539062 696.64697266 C253.31202468 693.19268229 250.59813706 689.73881215 247.88085938 686.28759766 C242.13586176 678.98807127 236.42335445 671.66392366 230.72412109 664.32861328 C225.78880131 657.97914237 220.82688314 651.6510543 215.85205078 645.33251953 C213.11318754 641.85274187 210.37856533 638.36962953 207.64306641 634.88720703 C205.3903135 632.01963201 203.13670173 629.15274312 200.88085938 626.28759766 C195.13586176 618.98807127 189.42335445 611.66392366 183.72412109 604.32861328 C178.35000171 597.4146105 172.94309026 590.52684699 167.52539062 583.64697266 C160.90251102 575.23665416 154.30843838 566.80483567 147.74169922 558.35058594 C143.51009509 552.90527495 139.25928155 547.47550153 134.98828125 542.06103516 C132.79834219 539.2818901 130.63300345 536.48916064 128.52539062 533.64697266 C125.49561633 534.99928453 123.44066449 536.50177808 121.13476562 538.87744141 C120.51214844 539.51166016 119.88953125 540.14587891 119.24804688 540.79931641 C118.27158203 541.80671875 118.27158203 541.80671875 117.27539062 542.83447266 C115.91790025 544.2152343 114.55854977 545.59416987 113.19726562 546.97119141 C112.58979492 547.59082764 111.98232422 548.21046387 111.35644531 548.84887695 C109.47406902 550.69737047 107.52476552 552.4261477 105.52539062 554.14697266 C102.83904243 556.46117477 100.27874304 558.83902926 97.78320312 561.35791016 C97.10515625 562.03917969 96.42710938 562.72044922 95.72851562 563.42236328 C94.35862727 564.80641402 92.99137247 566.19307705 91.62695312 567.58251953 C90.68335937 568.53868164 90.68335937 568.53868164 89.72070312 569.51416016 C89.15367676 570.09278809 88.58665039 570.67141602 88.00244141 571.26757812 C86.52539063 572.64697266 86.52539063 572.64697266 84.52539062 573.64697266 C84.52484586 574.48757579 84.52430109 575.32817892 84.52373981 576.19425488 C84.50877676 596.64186526 84.46634923 617.08925749 84.39330006 637.53674603 C84.35863732 647.42499448 84.33329285 657.31310335 84.32983398 667.20141602 C84.32679587 675.81943403 84.30632608 684.43720353 84.26486605 693.05512553 C84.24352038 697.61891505 84.23094344 702.18235112 84.23923683 706.74619102 C84.24676714 711.04160924 84.23099635 715.3363107 84.19733047 719.63159752 C84.1890848 721.20816943 84.18936192 722.78481245 84.19879341 724.36137772 C84.21040164 726.51497298 84.19132424 728.66621369 84.16462708 730.81962585 C84.1618617 732.02440928 84.15909632 733.22919271 84.15624714 734.47048473 C83.33740546 738.5935153 81.79948103 740.0865782 78.52539062 742.64697266 C75.51009018 743.14160575 73.06122005 743.33262728 70.05078125 743.29394531 C69.20952194 743.30270691 68.36826263 743.31146851 67.50151062 743.32049561 C64.72769203 743.342457 61.9554747 743.32794896 59.18164062 743.31103516 C57.25020034 743.31440424 55.31876213 743.31925763 53.3873291 743.32553101 C49.34216092 743.3328979 45.29754529 743.32220268 41.25244141 743.29882812 C36.07023385 743.27034048 30.88932101 743.28674543 25.70716095 743.31669044 C21.71964788 743.33476834 17.73244118 743.32900313 13.74491882 743.31605148 C11.83436428 743.31271883 9.92378182 743.3167996 8.01325989 743.32844925 C5.34142511 743.34116617 2.67167936 743.32177048 0 743.29394531 C-0.78768265 743.30406647 -1.5753653 743.31418762 -2.38691711 743.32461548 C-5.95153373 743.25592693 -8.18749844 742.83688077 -11.17718923 740.85936451 C-14.66946128 735.97625843 -14.16301973 731.47979577 -14.10381508 725.61378479 C-14.11108228 724.37362401 -14.11834949 723.13346324 -14.12583691 721.85572183 C-14.14098446 718.40038253 -14.13363025 714.94639534 -14.11694715 711.49114887 C-14.1042947 707.73721713 -14.12055075 703.98339431 -14.13316381 700.22947788 C-14.1512518 693.64606514 -14.15065652 687.06285725 -14.13792801 680.47943497 C-14.1190519 670.68986526 -14.12866525 660.90046907 -14.14396955 651.11090061 C-14.17033103 633.62901569 -14.1680033 616.147222 -14.15357498 598.66532835 C-14.14101032 583.36689246 -14.13770756 568.06849004 -14.1436882 552.77005005 C-14.14407013 551.75631353 -14.14445205 550.74257701 -14.14484555 549.6981212 C-14.14640218 545.58330853 -14.14799417 541.46849587 -14.14964437 537.35368324 C-14.1649485 498.73267558 -14.15105761 460.11172612 -14.12415989 421.49072744 C-14.10043084 387.1583379 -14.10255393 352.82604107 -14.12646484 318.49365234 C-14.15322263 279.94448263 -14.16386325 241.39536435 -14.14840353 202.84618664 C-14.14679987 198.73875619 -14.14523568 194.63132573 -14.1436882 190.52389526 C-14.14329282 189.51249873 -14.14289743 188.50110219 -14.14249006 187.45905728 C-14.13679633 172.16809482 -14.1434659 156.87716948 -14.15608597 141.58621216 C-14.17036 124.20431059 -14.16685583 106.82251473 -14.13968225 89.44062638 C-14.12496653 79.70571222 -14.12409147 69.9710268 -14.14291312 60.23611842 C-14.15408901 53.7408751 -14.14721303 47.24581593 -14.12538928 40.75059999 C-14.11344711 37.04488566 -14.1095268 33.33962716 -14.12741919 29.63392651 C-14.14646395 25.64909209 -14.1271657 21.66498475 -14.10381508 17.68016052 C-14.11552091 16.52034397 -14.12722674 15.36052741 -14.13928729 14.16556489 C-14.04809286 6.44885197 -14.04809286 6.44885197 -11.17718923 2.4345808 C-7.49971363 0.00213267 -4.26800153 -0.05484075 0 0 Z " fill="#1FBEFF" transform="translate(13.474609375,-0.64697265625)"/>
<path d="M0 0 C0.71760498 0.00093658 1.43520996 0.00187317 2.17456055 0.00283813 C59.75391714 0.16451526 112.61478493 18.15664291 156.0625 56.1875 C156.89007812 56.89132812 157.71765625 57.59515625 158.5703125 58.3203125 C170.75109973 68.89307501 181.71749214 81.05397543 191.0625 94.1875 C191.51125488 94.80689453 191.96000977 95.42628906 192.42236328 96.06445312 C209.55049068 119.88774783 221.85320182 146.70252385 229.4375 175 C229.664375 175.84530273 229.89125 176.69060547 230.125 177.56152344 C230.84383099 180.42493906 231.46382867 183.29648974 232.0625 186.1875 C232.33320313 187.42556396 232.60390625 188.66362793 232.8828125 189.93920898 C235.92931513 205.27093647 235.44524688 220.83351751 235.32678223 236.38775635 C235.30766768 239.38196073 235.30362798 242.37610309 235.3000679 245.37036037 C235.29487551 248.99563181 235.2804065 252.62085105 235.265625 256.24609375 C235.26374428 256.91614378 235.26186356 257.58619381 235.25992584 258.27654839 C235.17607476 281.35548991 235.17607476 281.35548991 232.125 286.375 C228.71965445 289.36757639 226.67622606 289.31210409 222.2097683 289.31054783 C220.95524719 289.31253888 219.70072608 289.31452993 218.40818918 289.31658131 C217.00311348 289.31372789 215.59803798 289.31078229 214.19296265 289.30775452 C212.71043302 289.30819021 211.22790346 289.30906509 209.74537432 289.31034368 C205.65671826 289.31258894 201.56808819 289.30856693 197.47943544 289.30356562 C193.0758848 289.29926175 188.67233572 289.3007075 184.26878357 289.3014679 C176.63442002 289.30199317 169.00006499 289.298846 161.36570358 289.29323006 C150.32759183 289.28511554 139.28948421 289.28249989 128.25136979 289.28124207 C110.34433533 289.27905147 92.43730542 289.27239118 74.53027344 289.26293945 C57.13151065 289.25376553 39.73274909 289.2466846 22.33398438 289.24243164 C21.26217841 289.24216892 20.19037244 289.24190619 19.08608751 289.24163551 C13.70934721 289.24033051 8.33260689 289.23906679 2.95586658 289.23782361 C-41.67525877 289.22745076 -86.30637915 289.20983223 -130.9375 289.1875 C-130.03292582 293.29572717 -129.11159749 297.40003038 -128.1875 301.50390625 C-127.93484375 302.65234009 -127.6821875 303.80077393 -127.421875 304.98400879 C-121.11781249 332.80560968 -106.9991926 355.28707503 -86.9375 375.1875 C-86.34710937 375.78691406 -85.75671875 376.38632812 -85.1484375 377.00390625 C-59.94379519 400.97512989 -20.32393875 415.17400483 14.19921875 415.390625 C14.95236862 415.39768463 15.70551849 415.40474426 16.48149109 415.41201782 C40.42016737 415.58909681 40.42016737 415.58909681 64.0625 412.1875 C64.98095703 411.98882324 65.89941406 411.79014648 66.84570312 411.58544922 C89.86578814 406.44634997 112.36595117 397.31415817 131.6875 383.625 C135.77380962 380.81138178 138.98853358 379.23817893 143.9296875 378.734375 C149.60941577 379.9410572 153.53375851 384.54284454 157.21875 388.72265625 C162.43313206 394.5234724 167.86746639 400.06756063 173.40625 405.55859375 C174.22988037 406.37655426 175.05351074 407.19451477 175.90209961 408.03726196 C179.32543009 411.43360226 182.75289109 414.8257185 186.18457031 418.21362305 C188.7211961 420.7200509 191.2515633 423.23266536 193.78125 425.74609375 C194.94062073 426.88527504 194.94062073 426.88527504 196.12341309 428.04747009 C205.68821354 437.56749477 205.68821354 437.56749477 206.5 443.25 C205.76996963 448.15163247 203.59260023 450.96596582 199.71875 453.9140625 C198.34224255 454.8928599 196.95615808 455.85828081 195.5625 456.8125 C194.81274902 457.33247559 194.06299805 457.85245117 193.29052734 458.38818359 C185.58391432 463.64972022 177.5927473 468.36191459 169.43017578 472.87597656 C167.89010227 473.7290674 166.35433846 474.59000141 164.82373047 475.45996094 C121.68497678 499.96040141 71.6548148 510.85430649 22.34814453 510.57861328 C18.9309116 510.56246887 15.51485495 510.57862029 12.09765625 510.59765625 C-7.07972369 510.6167225 -26.12502738 509.07835848 -44.8125 504.5625 C-45.87799072 504.30799072 -46.94348145 504.05348145 -48.04125977 503.79125977 C-99.78170582 490.95003901 -148.942956 461.53228936 -181.9375 419.1875 C-182.94498515 417.9320289 -183.95282077 416.676839 -184.9609375 415.421875 C-197.00270372 400.25294135 -206.80913161 383.75252857 -214.9375 366.1875 C-215.29408691 365.42985352 -215.65067383 364.67220703 -216.01806641 363.89160156 C-230.0169811 333.8791906 -238.01479111 300.74495741 -238.140625 267.5859375 C-238.14632507 266.39183258 -238.15202515 265.19772766 -238.15789795 263.96743774 C-238.16730497 261.44444654 -238.17386473 258.92144328 -238.17773438 256.3984375 C-238.18734811 252.62216375 -238.21837566 248.84645678 -238.25 245.0703125 C-238.33689243 225.36424 -237.16524076 205.85160941 -232.25 186.6875 C-231.99581299 185.66889893 -231.74162598 184.65029785 -231.47973633 183.60083008 C-221.32515577 144.07364657 -203.26029416 107.67227924 -175.9375 77.1875 C-175.06867187 76.1975 -174.19984375 75.2075 -173.3046875 74.1875 C-146.37745788 43.82527188 -111.54691034 22.34054459 -72.9375 10.1875 C-72.2053125 9.95192383 -71.473125 9.71634766 -70.71875 9.47363281 C-47.81977449 2.20362292 -23.9261671 -0.0407975 0 0 Z M-28.9375 88.1875 C-29.59685547 88.34847168 -30.25621094 88.50944336 -30.93554688 88.67529297 C-52.87610324 94.28987487 -71.67557837 105.59037391 -87.9375 121.1875 C-88.88109375 122.05632812 -89.8246875 122.92515625 -90.796875 123.8203125 C-112.89261266 144.57112357 -126.00436318 172.58867906 -130.9375 202.1875 C-44.8075 202.1875 41.3225 202.1875 130.0625 202.1875 C130.0625 176.8263188 121.86293429 152.50253291 105.0625 133.1875 C104.03189453 131.97707031 104.03189453 131.97707031 102.98046875 130.7421875 C81.16589735 105.7566714 49.52844931 87.66853192 16.0625 85.1875 C0.9027809 84.41172095 -14.14137678 84.56050485 -28.9375 88.1875 Z " fill="#1FBEFF" transform="translate(2324.9375,242.8125)"/>
<path d="M0 0 C0.8441748 0.18723633 1.68834961 0.37447266 2.55810547 0.56738281 C46.40675145 10.48277669 88.51800748 34.24866531 113.33984375 72.55859375 C125.11400916 91.28329069 132.87790595 111.58953846 137.3125 133.25 C137.53341309 134.32664917 137.53341309 134.32664917 137.75878906 135.42504883 C138.23275392 137.943334 138.61921139 140.46576662 139 143 C139.16738206 144.0978567 139.33476412 145.19571341 139.50721836 146.32683849 C141.54177817 161.12461944 141.30721102 176.01136996 141.30542648 190.91507256 C141.30709413 194.94149136 141.32019474 198.96787721 141.33161926 202.99427795 C141.35430216 211.76186285 141.36236895 220.52942329 141.36744571 229.29703355 C141.37071674 234.77574599 141.37724683 240.25445151 141.3844471 245.73316002 C141.40397677 260.92186281 141.420407 276.11055924 141.42332363 291.2992754 C141.4235112 292.26769713 141.42369877 293.23611886 141.42389202 294.2338867 C141.42425825 296.19668718 141.42462195 298.15948766 141.42498314 300.12228815 C141.42516595 301.09650581 141.42534876 302.07072348 141.42553711 303.07446289 C141.42580793 304.53758133 141.42580793 304.53758133 141.42608423 306.03025772 C141.42963601 321.88171904 141.45673701 337.7330454 141.494035 353.58445982 C141.53207796 369.88322992 141.55148073 386.18193285 141.55178314 402.48074836 C141.55236795 411.62285671 141.56087809 420.76480317 141.58978081 429.90686989 C141.6142388 437.67789823 141.62161417 445.44870537 141.60653328 453.21976177 C141.59934624 457.18411491 141.6002994 461.14803063 141.62294388 465.11233521 C141.64346584 468.7395859 141.64099865 472.36606089 141.62006903 475.99330255 C141.61489756 477.92935704 141.63440371 479.86542863 141.65473074 481.80138332 C141.57306777 490.18307457 141.57306777 490.18307457 138.70348454 494.27375221 C135.01565315 496.62853201 131.76660797 496.69405928 127.52539062 496.63110352 C126.68413132 496.63825882 125.84287201 496.64541412 124.97612 496.65278625 C122.20227335 496.66966036 119.43004587 496.65027885 116.65625 496.62890625 C114.72481147 496.62973507 112.793373 496.63219494 110.86193848 496.63621521 C106.81675958 496.63907233 102.77213463 496.62438037 98.72705078 496.59692383 C93.54497627 496.56284127 88.36389224 496.56886011 83.18177032 496.5875864 C79.19427249 496.598161 75.20700465 496.58921437 71.2195282 496.57420158 C69.30898217 496.56902269 67.39841209 496.56949802 65.48786926 496.57574654 C62.81625828 496.58120429 60.1460594 496.56080633 57.47460938 496.53344727 C56.2930854 496.54323608 56.2930854 496.54323608 55.08769226 496.55322266 C50.10776508 496.46661791 47.48392635 495.58473804 44 492 C42.82573736 489.65147472 42.88491827 488.26225935 42.90234375 485.6484375 C42.90556641 484.79765625 42.90878906 483.946875 42.91210938 483.0703125 C42.92048828 482.18085937 42.92886719 481.29140625 42.9375 480.375 C42.94426758 479.02921875 42.94426758 479.02921875 42.95117188 477.65625 C42.96297409 475.43743352 42.97943845 473.21874982 43 471 C41.94425781 471.67804688 40.88851563 472.35609375 39.80078125 473.0546875 C18.36013737 486.61682157 -3.90559531 496.26266751 -28.6875 501.8125 C-29.5522998 502.00755127 -30.41709961 502.20260254 -31.30810547 502.40356445 C-45.46436577 505.37012408 -59.74270127 506.33966925 -74.17724609 506.26074219 C-76.49993967 506.25000028 -78.82186036 506.2607373 -81.14453125 506.2734375 C-96.10944176 506.28937583 -110.81968176 504.98158446 -125.375 501.375 C-126.43025879 501.11557617 -127.48551758 500.85615234 -128.57275391 500.58886719 C-157.78633736 493.09504367 -184.4508576 478.03682995 -206 457 C-206.77472656 456.28714844 -207.54945313 455.57429688 -208.34765625 454.83984375 C-234.18217149 430.46336112 -246.98260029 394.06248498 -248.125 359.18359375 C-248.9130554 319.89740009 -237.2797302 285.08979 -209.875 256.4375 C-180.28523297 227.89552926 -140.47784397 212.11243246 -101 203 C-100.0450766 202.77890564 -100.0450766 202.77890564 -99.07086182 202.55334473 C-1.91858285 180.12306454 -1.91858285 180.12306454 43 181 C43.9200908 155.0841092 39.1889145 132.82957528 21.5625 112.75 C6.01170281 96.17990686 -13.88866437 85.64575957 -36.8828125 84.75 C-84.52561064 83.77889078 -134.48190364 98.12974721 -172.24047852 127.7722168 C-175.98670174 130.38630818 -179.57123094 130.45814852 -184 130 C-188.4175622 126.21351812 -191.65237522 121.58783439 -195 116.875 C-195.56396484 116.08802734 -196.12792969 115.30105469 -196.70898438 114.49023438 C-201.26409962 108.10498404 -205.69369158 101.63694487 -210.09667969 95.14624023 C-214.59005714 88.542068 -219.23866059 82.05864418 -223.95117188 75.609375 C-224.46744141 74.90167969 -224.98371094 74.19398438 -225.515625 73.46484375 C-226.20060059 72.53079712 -226.20060059 72.53079712 -226.89941406 71.57788086 C-229.02890469 68.52488665 -229.46448831 65.94384962 -229.40014648 62.20361328 C-228.34874548 56.41353061 -223.42949321 52.05672217 -218.8125 48.796875 C-217.21964299 47.76360283 -215.6147595 46.74869745 -214 45.75 C-213.12843262 45.19916748 -212.25686523 44.64833496 -211.35888672 44.08081055 C-150.50986158 6.13551019 -71.4798849 -16.50053453 0 0 Z M28.52734375 269.8828125 C27.70413132 269.97734207 26.88091888 270.07187164 26.03276062 270.16926575 C23.33364861 270.48224623 20.63548384 270.802444 17.9375 271.125 C17.00838806 271.23570831 16.07927612 271.34641663 15.12200928 271.46047974 C-50.00942436 278.77479876 -50.00942436 278.77479876 -111 301 C-111.98742187 301.49113281 -112.97484375 301.98226562 -113.9921875 302.48828125 C-129.07290172 310.23751252 -143.08880704 322.42788993 -148.8125 338.75 C-153.30403077 353.01401287 -151.51662246 367.50884831 -144.8125 380.6875 C-134.67996251 398.30930433 -117.28547242 408.33049271 -98.1875 414.25 C-60.1738542 424.2099072 -19.00112762 417.39448287 14.83740234 397.94384766 C22.00342351 393.5865557 28.58383006 388.38262422 35 383 C35.5737738 382.67549866 36.14754761 382.35099731 36.7387085 382.0166626 C39.03057198 380.53249635 40.42639401 379.24910996 42 377 C43.06586136 371.9941292 42.95541862 367.01971668 42.90234375 361.9296875 C42.91176609 360.41022629 42.92424647 358.89078135 42.93959045 357.37136841 C42.97186776 353.35052792 42.9624206 349.33082317 42.94421387 345.30993652 C42.93332662 341.36142881 42.96136423 337.41325817 42.98632812 333.46484375 C43.02914335 325.60053766 43.02579776 317.73681246 43.00897217 309.87243652 C42.99831951 304.78246464 42.99850988 299.69251981 43.00048828 294.60253906 C43.0009476 293.33873633 43.0009476 293.33873633 43.00141621 292.04940224 C43.00202327 290.3879776 43.00264012 288.72655296 43.00326729 287.06512833 C43.00484917 281.04341889 43.00220904 275.02170902 43 269 C38.11726305 268.95967834 33.37258716 269.31477569 28.52734375 269.8828125 Z " fill="#1FBDFF" transform="translate(685,246)"/>
<path d="M0 0 C0.85261917 -0.0071553 1.70523834 -0.01431061 2.58369446 -0.02168274 C5.39480583 -0.03855661 8.20431962 -0.01917698 11.01538086 0.00219727 C12.97163525 0.00136852 14.92788958 -0.00109107 16.88414001 -0.00511169 C20.98059084 -0.00796869 25.0764946 0.00672342 29.17285156 0.03417969 C34.42452239 0.06828475 39.67521647 0.0622358 44.92693424 0.04351711 C48.96500293 0.03295147 53.00284412 0.04188062 57.04089165 0.05690193 C58.97738405 0.06208588 60.9139002 0.06159936 62.85038948 0.05535698 C65.5557279 0.04990914 68.259665 0.07026459 70.96484375 0.09765625 C71.76547241 0.09113037 72.56610107 0.08460449 73.39099121 0.07788086 C76.93569781 0.13893858 79.00617566 0.32302819 81.88352966 2.47694397 C84.30852028 5.88186764 84.54306774 8.6048251 84.54537511 12.66590297 C84.54989906 14.23938569 84.54989906 14.23938569 84.55451441 15.84465593 C84.55274494 17.00330913 84.55097547 18.16196234 84.54915237 19.35572624 C84.55120501 20.58682584 84.55325764 21.81792543 84.55537248 23.08633107 C84.56007562 26.52511759 84.56026365 29.96385216 84.55859489 33.40263808 C84.55786578 37.13561471 84.56288204 40.86858423 84.5671699 44.60155785 C84.57476273 52.01507707 84.57694361 59.42858908 84.57749896 66.84211178 C84.57841132 75.71786568 84.58507502 84.59361289 84.59184578 93.46936393 C84.60792046 114.92296347 84.61381048 136.37656231 84.61859453 157.83016679 C84.62092875 167.97379902 84.62453118 178.11743068 84.62828991 188.26106246 C84.64112596 222.96626649 84.6518457 257.67147021 84.65529251 292.37667656 C84.65551415 294.55602789 84.65573593 296.73537922 84.65595786 298.91473056 C84.6561785 301.09941797 84.65639899 303.28410538 84.65661931 305.4687928 C84.65706187 309.85183517 84.65750898 314.23487755 84.65795898 318.61791992 C84.65812307 320.24803446 84.65812307 320.24803446 84.65829047 321.91108061 C84.6619228 357.1654093 84.67784921 392.41971746 84.70114935 427.67403828 C84.72572415 464.92492022 84.73946423 502.1757904 84.74066043 539.42668068 C84.74083189 543.51279776 84.74104732 547.59891482 84.74129486 551.68503189 C84.74137851 553.19426729 84.74137851 553.19426729 84.74146386 554.7339923 C84.74261628 570.95192863 84.75365436 587.16984395 84.76818192 603.38777317 C84.78252099 619.67643768 84.78579858 635.96507514 84.77774194 652.25374423 C84.7732736 661.93972353 84.77719419 671.62561573 84.79298044 681.31158365 C84.80269144 687.77425966 84.80158956 694.23687428 84.79154422 700.69954965 C84.78612401 704.38663071 84.78553183 708.07354388 84.79805294 711.7606114 C84.81140551 715.72542155 84.80174578 719.68997969 84.78966141 723.65479851 C84.7972566 724.80876938 84.80485179 725.96274025 84.81267715 727.15167993 C84.80567904 728.20567545 84.79868093 729.25967096 84.79147077 730.34560573 C84.79171497 731.25258576 84.79195917 732.1595658 84.79221077 733.09403007 C84.330212 736.22398504 83.2672354 738.08084359 81.41772461 740.63110352 C77.61761808 743.16450787 74.55842398 742.92664286 70.15429688 742.92163086 C68.89043655 742.9317067 68.89043655 742.9317067 67.6010437 742.94198608 C64.812013 742.96100512 62.0232224 742.96489211 59.23413086 742.96704102 C57.29743856 742.97346579 55.36074724 742.9801939 53.42405701 742.98721313 C49.36292266 742.99919536 45.30187344 743.00289294 41.24072266 743.00170898 C36.0339197 743.00150564 30.82766163 743.02881946 25.62098789 743.0632534 C21.62071723 743.08547707 17.62057869 743.08954793 13.62025261 743.08848953 C11.70048073 743.09085189 9.78070555 743.09971095 7.86099434 743.11515427 C5.17712209 743.13472454 2.49443777 743.12901205 -0.18945312 743.11694336 C-0.98387314 743.12818237 -1.77829315 743.13942139 -2.5967865 743.15100098 C-6.17584696 743.11005052 -8.17124504 742.94919714 -11.04432678 740.72573853 C-13.43010436 737.47638857 -13.70801138 735.68951432 -13.71222723 731.70126647 C-13.71575564 730.65022503 -13.71928406 729.5991836 -13.7229194 728.51629242 C-13.72172163 727.35019917 -13.72052385 726.18410592 -13.71928978 724.98267651 C-13.72326752 723.1301602 -13.72326752 723.1301602 -13.72732562 721.24021932 C-13.73370327 717.78580304 -13.73555488 714.33143631 -13.73554839 710.87701752 C-13.73661476 707.12883267 -13.74340152 703.38065757 -13.74945509 699.63247806 C-13.7605482 692.18660644 -13.76618366 684.74073953 -13.77016397 677.2948611 C-13.77516618 668.38118688 -13.78589254 659.46752184 -13.79664571 650.55385304 C-13.82229578 629.0072375 -13.83731438 607.46061839 -13.85015617 585.91399197 C-13.85440876 578.77996054 -13.85897443 571.64592938 -13.86373949 564.51189828 C-13.88899586 526.60600371 -13.91105109 488.70010871 -13.92346764 450.79420757 C-13.92638912 442.00880113 -13.92935661 433.2233947 -13.93237305 424.43798828 C-13.93274396 423.34647784 -13.93311486 422.2549674 -13.93349701 421.13038088 C-13.94565837 385.72384886 -13.97661138 350.31736648 -14.01829457 314.91085778 C-14.06104455 278.53204007 -14.0877038 242.15324858 -14.09294235 205.77440506 C-14.09368285 200.64048991 -14.09459354 195.50657479 -14.09560013 190.37265968 C-14.09579074 189.3622068 -14.09598136 188.35175391 -14.09617775 187.31068124 C-14.09969677 171.02293357 -14.12001962 154.7352479 -14.14639677 138.44752303 C-14.17249129 122.08815287 -14.18029009 105.72885463 -14.16929547 89.36946663 C-14.16330183 79.64121804 -14.17131833 69.91321277 -14.19912631 60.18500082 C-14.21631303 53.69412035 -14.21548488 47.20340674 -14.19975863 40.7125229 C-14.19130617 37.00922549 -14.19090635 33.30639406 -14.21237008 29.60313889 C-14.23526645 25.62089057 -14.21980784 21.63933306 -14.20030785 17.65705395 C-14.21315707 16.49798419 -14.22600629 15.33891444 -14.23924488 14.14472136 C-14.15552825 6.43387247 -14.15552825 6.43387247 -11.28834689 2.41874343 C-7.58003217 -0.03098172 -4.30086943 -0.06296813 0 0 Z " fill="#20BDFF" transform="translate(1937.582275390625,-0.631103515625)"/>
</svg>
