<?xml version="1.0" encoding="UTF-8"?>
<svg version="1.1" xmlns="http://www.w3.org/2000/svg" width="256" height="256">
<path d="M0 0 C19.14 0 38.28 0 58 0 C58 6.27 58 12.54 58 19 C87.7 19 117.4 19 148 19 C148 12.73 148 6.46 148 0 C167.14 0 186.28 0 206 0 C206 19.47 206 38.94 206 59 C199.73 59 193.46 59 187 59 C187 88.04 187 117.08 187 147 C193.27 147 199.54 147 206 147 C206 166.14 206 185.28 206 205 C186.86 205 167.72 205 148 205 C148 198.73 148 192.46 148 186 C118.3 186 88.6 186 58 186 C58 192.27 58 198.54 58 205 C38.86 205 19.72 205 0 205 C0 185.86 0 166.72 0 147 C6.27 147 12.54 147 19 147 C19 117.96 19 88.92 19 59 C12.73 59 6.46 59 0 59 C0 39.53 0 20.06 0 0 Z " fill="#FF8267" transform="translate(25,25)"/>
<path d="M0 0 C29.7 0 59.4 0 90 0 C90 6.27 90 12.54 90 19 C96.27 19 102.54 19 109 19 C109 48.37 109 77.74 109 108 C102.73 108 96.46 108 90 108 C90 114.27 90 120.54 90 127 C60.3 127 30.6 127 0 127 C0 120.73 0 114.46 0 108 C-6.27 108 -12.54 108 -19 108 C-19 78.63 -19 49.26 -19 19 C-12.73 19 -6.46 19 0 19 C0 12.73 0 6.46 0 0 Z " fill="#FFD9D0" transform="translate(83,64)"/>
</svg>
