<?xml version="1.0" encoding="UTF-8"?>
<svg version="1.1" xmlns="http://www.w3.org/2000/svg" width="273" height="273">
<path d="M0 0 C90.09 0 180.18 0 273 0 C273 90.09 273 180.18 273 273 C182.91 273 92.82 273 0 273 C0 182.91 0 92.82 0 0 Z " fill="#F5F5F5" transform="translate(0,0)"/>
<path d="M0 0 C7.03933926 2.20963801 14.10683561 4.31220294 21.18359375 6.3984375 C23.56133528 7.09979488 25.938946 7.80159596 28.31640625 8.50390625 C29.34910645 8.8083667 30.38180664 9.11282715 31.44580078 9.42651367 C36.96657497 11.083984 36.96657497 11.083984 39.0546875 13.96484375 C41.92568608 19.31776121 42.89014675 25.25250001 44.12109375 31.1484375 C45.66562303 38.40403793 47.21895316 45.34355743 50.05859375 52.2109375 C50.72503906 51.77523437 51.39148438 51.33953125 52.078125 50.890625 C57.67665063 47.27311613 63.32592016 43.90108769 69.20703125 40.765625 C73.41563044 38.47107366 77.51648755 35.99956307 81.625 33.53125 C84.05859375 32.2109375 84.05859375 32.2109375 86.05859375 32.2109375 C86.05859375 31.5509375 86.05859375 30.8909375 86.05859375 30.2109375 C91.79357916 27.0659455 97.13956336 28.44007966 103.1796875 30.03515625 C106.50005006 31.02461647 109.78023599 32.090436 113.05859375 33.2109375 C114.0434375 33.54480469 115.02828125 33.87867188 116.04296875 34.22265625 C122.70616735 36.65876788 122.70616735 36.65876788 124.16392326 38.94272995 C125.23302991 41.65317565 125.30472611 43.71437581 125.29910278 46.6272583 C125.30322678 48.27626633 125.30322678 48.27626633 125.30743408 49.95858765 C125.29664825 51.76041 125.29664825 51.76041 125.28564453 53.59863281 C125.28593658 54.86718109 125.28622864 56.13572937 125.28652954 57.44271851 C125.28710324 60.91763417 125.27534616 64.3924117 125.26138163 67.86729527 C125.24887717 71.50012575 125.24770399 75.13295942 125.24533081 78.76580811 C125.2391152 85.64348628 125.2227033 92.52110085 125.20263183 99.39875102 C125.18027534 107.22939926 125.16928003 115.06005054 125.15924096 122.89072275 C125.13833714 138.99749823 125.1031596 155.10420975 125.05859375 171.2109375 C124.06859375 171.2109375 123.07859375 171.2109375 122.05859375 171.2109375 C122.05436181 170.54371768 122.05012987 169.87649786 122.04576969 169.18905926 C121.94252964 152.96489471 121.83390188 136.74077613 121.71925449 120.51668835 C121.66394258 112.6708901 121.6104639 104.8250873 121.5612793 96.97924805 C121.51841259 90.14196624 121.4721283 83.30471764 121.4217152 76.46748716 C121.39513431 72.84620129 121.37028173 69.22492193 121.34951973 65.60359764 C121.32629599 61.56405106 121.29544334 57.52459773 121.26391602 53.48510742 C121.25816055 52.28029724 121.25240509 51.07548706 121.24647522 49.83416748 C121.23179199 48.18722145 121.23179199 48.18722145 121.21681213 46.50700378 C121.21035958 45.55110446 121.20390703 44.59520514 121.19725895 43.61033916 C121.15485623 41.06478088 121.15485623 41.06478088 120.05859375 38.2109375 C119.48496094 38.13617188 118.91132813 38.06140625 118.3203125 37.984375 C108.58700764 36.47785437 99.38532722 33.28441029 90.05859375 30.2109375 C89.91164062 30.90832031 89.7646875 31.60570312 89.61328125 32.32421875 C85.5798267 51.30927205 81.35891995 70.24560756 76.74633789 89.09887695 C75.15538083 95.61357559 73.6087851 102.13513332 72.12890625 108.67578125 C71.81052928 110.07447741 71.49208926 111.47315922 71.17358398 112.87182617 C70.7108901 114.90484037 70.25110704 116.93828516 69.80056763 118.97402954 C69.38731501 120.84107649 68.96345415 122.70576598 68.5390625 124.5703125 C68.30082764 125.63733398 68.06259277 126.70435547 67.81713867 127.80371094 C67.56681885 128.5980957 67.31649902 129.39248047 67.05859375 130.2109375 C66.39859375 130.5409375 65.73859375 130.8709375 65.05859375 131.2109375 C64.89254639 130.51645508 64.72649902 129.82197266 64.55541992 129.10644531 C63.78627231 125.89112551 63.01618692 122.67603096 62.24609375 119.4609375 C61.98505859 118.36910156 61.72402344 117.27726562 61.45507812 116.15234375 C59.92739546 109.77756918 58.36312787 103.41345692 56.76635742 97.05566406 C55.6824477 92.69908729 54.65150437 88.33041621 53.62109375 83.9609375 C50.07449805 68.78318063 50.07449805 68.78318063 46.05859375 53.7265625 C45.03098492 50.11387522 44.13043277 46.48618794 43.24609375 42.8359375 C41.75728325 36.83004598 40.18509377 30.85124984 38.49609375 24.8984375 C38.19964966 23.81393311 38.19964966 23.81393311 37.8972168 22.70751953 C36.83973191 19.05359773 35.98111167 16.65538538 33.05859375 14.2109375 C27.64724105 11.93624423 22.13214405 10.29633431 16.47265625 8.765625 C15.29816422 8.4426091 15.29816422 8.4426091 14.09994507 8.11306763 C11.62877241 7.4338539 9.15630581 6.75952338 6.68359375 6.0859375 C4.189626 5.40462801 1.69597005 4.72223508 -0.79702759 4.03738403 C-2.34116424 3.61337118 -3.88588562 3.19148078 -5.4312439 2.77194214 C-10.71748552 1.32289787 -10.71748552 1.32289787 -12.94140625 0.2109375 C-12.94140625 64.8909375 -12.94140625 129.5709375 -12.94140625 196.2109375 C-20.38830927 194.7215569 -27.62010651 192.82375201 -34.6875 190.03515625 C-38.82245313 188.52306767 -43.06111262 187.32817718 -47.28125 186.078125 C-49.94140625 185.2109375 -49.94140625 185.2109375 -50.94140625 184.2109375 C-51.0491253 182.7565647 -51.08821884 181.29704174 -51.09962463 179.83872986 C-51.10941345 178.89496994 -51.11920227 177.95121002 -51.12928772 176.97885132 C-51.13504318 175.93516388 -51.14079865 174.89147644 -51.14672852 173.81616211 C-51.15662811 172.72361618 -51.16652771 171.63107025 -51.17672729 170.50541687 C-51.20845075 166.87472744 -51.23314243 163.24402491 -51.2578125 159.61328125 C-51.27837267 157.10363921 -51.29936888 154.59400072 -51.32078552 152.08436584 C-51.37044135 146.14162429 -51.41568148 140.19885939 -51.45880789 134.25606781 C-51.51297494 126.82887814 -51.57395213 119.40174708 -51.63476562 111.97460938 C-51.74246545 98.72009192 -51.84407323 85.46553493 -51.94140625 72.2109375 C-52.16280273 72.9861525 -52.38419922 73.76136749 -52.61230469 74.56007385 C-53.45468176 77.5094756 -54.29713996 80.45885417 -55.13964844 83.40821838 C-55.67519031 85.28307406 -56.21064342 87.15795509 -56.74609375 89.03283691 C-58.83314032 96.33870769 -60.92486566 103.64321295 -63.02241516 110.94607544 C-66.50772941 123.09117483 -69.90935014 135.25683527 -73.24023438 147.44506836 C-78.51657776 166.70893223 -78.51657776 166.70893223 -81.94140625 174.2109375 C-83.2974321 173.94957197 -84.65114717 173.67621607 -86.00390625 173.3984375 C-86.75800781 173.24761719 -87.51210937 173.09679687 -88.2890625 172.94140625 C-91.80474407 171.97316994 -94.72487019 170.97336711 -97.94140625 169.2109375 C-99.31518555 166.03491211 -99.31518555 166.03491211 -100.015625 162.11328125 C-100.15033707 161.41112488 -100.28504913 160.70896851 -100.42384338 159.98553467 C-100.85403023 157.71073858 -101.24127523 155.43083161 -101.62890625 153.1484375 C-101.91766429 151.58574333 -102.20966368 150.02364466 -102.50488281 148.4621582 C-103.07972415 145.40859094 -103.64116891 142.35310261 -104.19091797 139.29492188 C-105.06657239 134.46725888 -106.09107191 129.67959396 -107.19140625 124.8984375 C-107.34617432 124.21338135 -107.50094238 123.5283252 -107.66040039 122.82250977 C-108.08381502 120.95117038 -108.51247009 119.081019 -108.94140625 117.2109375 C-109.21726562 115.99792969 -109.493125 114.78492188 -109.77734375 113.53515625 C-111.10281822 107.74112676 -112.49943968 101.9788038 -113.94140625 96.2109375 C-114.27140625 118.3209375 -114.60140625 140.4309375 -114.94140625 163.2109375 C-124.94140625 161.2109375 -124.94140625 161.2109375 -126.94140625 159.2109375 C-127.14544945 156.31536332 -127.22455616 153.51504274 -127.21606445 150.61791992 C-127.22117538 149.72833084 -127.22628632 148.83874176 -127.23155212 147.92219543 C-127.24549507 144.97019796 -127.24448747 142.01843281 -127.2421875 139.06640625 C-127.24607259 137.01857923 -127.25040686 134.97075302 -127.25517273 132.92292786 C-127.26264559 128.62461743 -127.26233649 124.32638912 -127.25708008 120.02807617 C-127.25129193 114.51988705 -127.26819554 109.0120349 -127.29142475 103.50390148 C-127.30616023 99.27197809 -127.3070339 95.0401358 -127.30391502 90.8081913 C-127.30442859 88.77761481 -127.30967291 86.74703382 -127.31972694 84.71648216 C-127.33206675 81.87481233 -127.3253137 79.03379806 -127.3137207 76.19213867 C-127.32518631 74.93341446 -127.32518631 74.93341446 -127.33688354 73.64926147 C-127.28428835 67.81497033 -126.16994981 64.43948106 -121.94140625 60.2109375 C-120.95140625 60.2109375 -119.96140625 60.2109375 -118.94140625 60.2109375 C-118.94140625 59.5509375 -118.94140625 58.8909375 -118.94140625 58.2109375 C-117.48603057 57.37244946 -116.02700252 56.54029816 -114.56640625 55.7109375 C-113.75429687 55.246875 -112.9421875 54.7828125 -112.10546875 54.3046875 C-109.94140625 53.2109375 -109.94140625 53.2109375 -107.94140625 53.2109375 C-104.66350314 66.10187289 -101.46269235 79.0004631 -98.59106445 91.98876953 C-97.52433527 96.78517766 -96.29515357 101.48578882 -94.94140625 106.2109375 C-93.82061369 110.79701933 -92.76671571 115.39902288 -91.70898438 120 C-91.38897461 121.36898437 -91.38897461 121.36898437 -91.0625 122.765625 C-90.87099365 123.59562012 -90.6794873 124.42561523 -90.48217773 125.28076172 C-90.11405109 127.2016681 -90.11405109 127.2016681 -88.94140625 128.2109375 C-88.65475098 126.87470337 -88.65475098 126.87470337 -88.36230469 125.51147461 C-87.63460418 122.12801754 -86.9035557 118.74531684 -86.17041016 115.36303711 C-85.85694322 113.91377179 -85.54471916 112.46423694 -85.23388672 111.0144043 C-83.32875424 102.13303426 -81.23767612 93.34124746 -78.85205078 84.57641602 C-77.65166688 80.14014469 -76.55925789 75.68357461 -75.50390625 71.2109375 C-75.29781738 70.34500977 -75.09172852 69.47908203 -74.87939453 68.58691406 C-73.0405339 60.78880864 -71.34798877 52.95984838 -69.72875977 45.11328125 C-66.27462796 28.75114227 -66.27462796 28.75114227 -61.94140625 25.2109375 C-61.28140625 25.2109375 -60.62140625 25.2109375 -59.94140625 25.2109375 C-59.94140625 24.5509375 -59.94140625 23.8909375 -59.94140625 23.2109375 C-57.29401709 21.750309 -56.04692291 21.2109375 -52.94140625 21.2109375 C-52.94140625 20.5509375 -52.94140625 19.8909375 -52.94140625 19.2109375 C-52.17062744 18.78796387 -51.39984863 18.36499023 -50.60571289 17.92919922 C-47.70207455 16.33327646 -44.80048844 14.7337362 -41.90014648 13.13183594 C-40.65288315 12.44389 -39.40485611 11.75732656 -38.15600586 11.07226562 C-31.47126756 7.40410598 -24.88926583 3.68913873 -18.61108398 -0.65576172 C-12.91072065 -4.52490729 -6.11255597 -1.94391556 0 0 Z " fill="#007ABF" transform="translate(137.94140625,40.7890625)"/>
<path d="M0 0 C0.98484375 0.33386719 1.9696875 0.66773437 2.984375 1.01171875 C9.6475736 3.44783038 9.6475736 3.44783038 11.10532951 5.73179245 C12.17443616 8.44223815 12.24613236 10.50343831 12.24050903 13.4163208 C12.24325836 14.51565948 12.24600769 15.61499817 12.24884033 16.74765015 C12.2380545 18.5494725 12.2380545 18.5494725 12.22705078 20.38769531 C12.22734283 21.65624359 12.22763489 22.92479187 12.22793579 24.23178101 C12.22850949 27.70669667 12.21675241 31.1814742 12.20278788 34.65635777 C12.19028342 38.28918825 12.18911024 41.92202192 12.18673706 45.55487061 C12.18052145 52.43254878 12.16410955 59.31016335 12.14403808 66.18781352 C12.12168159 74.01846176 12.11068628 81.84911304 12.10064721 89.67978525 C12.07974339 105.78656073 12.04456585 121.89327225 12 138 C11.01 138 10.02 138 9 138 C8.99576806 137.33278018 8.99153612 136.66556036 8.98717594 135.97812176 C8.88393589 119.75395721 8.77530813 103.52983863 8.66066074 87.30575085 C8.60534883 79.4599526 8.55187015 71.6141498 8.50268555 63.76831055 C8.45981884 56.93102874 8.41353455 50.09378014 8.36312145 43.25654966 C8.33654056 39.63526379 8.31168798 36.01398443 8.29092598 32.39266014 C8.26770224 28.35311356 8.23684959 24.31366023 8.20532227 20.27416992 C8.1995668 19.06935974 8.19381134 17.86454956 8.18788147 16.62322998 C8.17809265 15.52526596 8.16830383 14.42730194 8.15821838 13.29606628 C8.15176583 12.34016696 8.14531328 11.38426764 8.1386652 10.39940166 C8.09626248 7.85384338 8.09626248 7.85384338 7 5 C6.13955078 4.88785156 6.13955078 4.88785156 5.26171875 4.7734375 C-4.47158611 3.26691687 -13.67326653 0.07347279 -23 -3 C-23.14695313 -2.30261719 -23.29390625 -1.60523437 -23.4453125 -0.88671875 C-27.47876705 18.09833455 -31.6996738 37.03467006 -36.31225586 55.88793945 C-37.90321292 62.40263809 -39.44980865 68.92419582 -40.9296875 75.46484375 C-41.24806447 76.86353991 -41.56650449 78.26222172 -41.88500977 79.66088867 C-42.34770365 81.69390287 -42.80748671 83.72734766 -43.25802612 85.76309204 C-43.67127874 87.63013899 -44.0951396 89.49482848 -44.51953125 91.359375 C-44.75776611 92.42639648 -44.99600098 93.49341797 -45.24145508 94.59277344 C-45.61693481 95.78435059 -45.61693481 95.78435059 -46 97 C-46.99 97.495 -46.99 97.495 -48 98 C-48.16604736 97.30551758 -48.33209473 96.61103516 -48.50317383 95.89550781 C-49.27232144 92.68018801 -50.04240683 89.46509346 -50.8125 86.25 C-51.07353516 85.15816406 -51.33457031 84.06632812 -51.60351562 82.94140625 C-53.13119829 76.56663168 -54.69546588 70.20251942 -56.29223633 63.84472656 C-57.37614605 59.48814979 -58.40708938 55.11947871 -59.4375 50.75 C-62.11624703 39.45192473 -64.80478149 28.16490145 -68 17 C-68.7314412 14.29738676 -69.43268024 11.58786782 -70.125 8.875 C-70.30675781 8.18535156 -70.48851562 7.49570313 -70.67578125 6.78515625 C-71.60947788 3.11355222 -72.22130696 -0.20827403 -72 -4 C-71.34 -4 -70.68 -4 -70 -4 C-69.82984375 -3.42894531 -69.6596875 -2.85789062 -69.484375 -2.26953125 C-67.36171606 4.8323436 -65.18686668 11.91766018 -63 19 C-62.00033203 18.34644531 -62.00033203 18.34644531 -60.98046875 17.6796875 C-55.38194312 14.06217863 -49.73267359 10.69015019 -43.8515625 7.5546875 C-39.64296331 5.26013616 -35.5421062 2.78862557 -31.43359375 0.3203125 C-29 -1 -29 -1 -27 -1 C-27 -1.66 -27 -2.32 -27 -3 C-18.58299872 -7.61577489 -8.32652096 -2.84590028 0 0 Z " fill="#0263AA" transform="translate(251,74)"/>
<path d="M0 0 C1.57985458 3.15970917 2.58514658 5.7030817 3.515625 9.05078125 C3.79446533 10.04875732 4.07330566 11.0467334 4.3605957 12.07495117 C4.80085083 13.67753784 4.80085083 13.67753784 5.25 15.3125 C5.70862427 16.96439331 5.70862427 16.96439331 6.17651367 18.6496582 C8.55525862 27.2639243 10.83642064 35.90258579 13.04589844 44.56176758 C14.21202066 49.10906857 15.49301353 53.55142859 17 58 C17.53060676 60.24402441 17.9861041 62.49289643 18.4375 64.75390625 C18.95480476 67.04487794 18.95480476 67.04487794 19.94042969 69.30273438 C20.9931281 71.98250674 21.7784258 74.62036377 22.515625 77.40234375 C22.79462646 78.44777344 23.07362793 79.49320312 23.36108398 80.5703125 C23.65442627 81.68148437 23.94776855 82.79265625 24.25 83.9375 C24.87066734 86.26964478 25.49176916 88.60167396 26.11328125 90.93359375 C26.58241943 92.69678955 26.58241943 92.69678955 27.06103516 94.49560547 C27.95869358 97.84583662 28.87165159 101.19136194 29.79296875 104.53515625 C30.07043945 105.54263916 30.34791016 106.55012207 30.63378906 107.58813477 C31.16128789 109.49927649 31.69052771 111.40993871 32.22167969 113.32006836 C32.57407715 114.60022827 32.57407715 114.60022827 32.93359375 115.90625 C33.14040771 116.65197266 33.34722168 117.39769531 33.56030273 118.16601562 C34 120 34 120 34 122 C31.79402076 122.25081682 29.58497421 122.47473851 27.375 122.6875 C26.14523438 122.81511719 24.91546875 122.94273437 23.6484375 123.07421875 C20 123 20 123 14 120 C9.38 119.01 4.76 118.02 0 117 C0 78.39 0 39.78 0 0 Z " fill="#0164AB" transform="translate(159,104)"/>
<path d="M0 0 C0.33 0 0.66 0 1 0 C1 33 1 66 1 100 C-7.95565266 101.79113053 -13.69110711 100.3656275 -22 97 C-21.40263223 90.81077724 -20.45164023 84.86997765 -19.0625 78.8125 C-18.89298828 78.04486328 -18.72347656 77.27722656 -18.54882812 76.48632812 C-17.83109774 73.3015701 -17.07545958 70.2209673 -16.01953125 67.12890625 C-14.52395756 62.53904216 -13.6139487 57.84615846 -12.625 53.125 C-10.92880935 45.17795214 -9.12704658 37.28680764 -7.11328125 29.4140625 C-5.59634146 23.45803261 -4.1804375 17.47726006 -2.75 11.5 C-2.47937744 10.36965332 -2.20875488 9.23930664 -1.92993164 8.07470703 C-1.28600599 5.38328444 -0.64266516 2.69172381 0 0 Z " fill="#0163A9" transform="translate(237,118)"/>
<path d="M0 0 C1.06734375 0.36480469 2.1346875 0.72960937 3.234375 1.10546875 C4.71164063 1.60626953 4.71164063 1.60626953 6.21875 2.1171875 C12.8819486 4.55329913 12.8819486 4.55329913 14.33970451 6.8372612 C15.40881116 9.5477069 15.48050736 11.60890706 15.47488403 14.52178955 C15.47763336 15.62112823 15.48038269 16.72046692 15.48321533 17.8531189 C15.47602478 19.0543338 15.46883423 20.25554871 15.46142578 21.49316406 C15.46171783 22.76171234 15.46200989 24.03026062 15.46231079 25.33724976 C15.46288449 28.81216542 15.45112741 32.28694295 15.43716288 35.76182652 C15.42465842 39.394657 15.42348524 43.02749067 15.42111206 46.66033936 C15.41489645 53.53801753 15.39848455 60.4156321 15.37841308 67.29328227 C15.35605659 75.12393051 15.34506128 82.95458179 15.33502221 90.785254 C15.31411839 106.89202948 15.27894085 122.998741 15.234375 139.10546875 C14.244375 139.10546875 13.254375 139.10546875 12.234375 139.10546875 C12.23014306 138.43824893 12.22591112 137.77102911 12.22155094 137.08359051 C12.11831089 120.85942596 12.00968313 104.63530738 11.89503574 88.4112196 C11.83972383 80.56542135 11.78624515 72.71961855 11.73706055 64.8737793 C11.69419384 58.03649749 11.64790955 51.19924889 11.59749645 44.36201841 C11.57091556 40.74073254 11.54606298 37.11945318 11.52530098 33.49812889 C11.50207724 29.45858231 11.47122459 25.41912898 11.43969727 21.37963867 C11.43106407 19.5724234 11.43106407 19.5724234 11.42225647 17.72869873 C11.41246765 16.63073471 11.40267883 15.53277069 11.39259338 14.40153503 C11.38614083 13.44563571 11.37968828 12.48973639 11.3730402 11.50487041 C11.33063748 8.95931213 11.33063748 8.95931213 10.234375 6.10546875 C9.66074219 6.03070313 9.08710938 5.9559375 8.49609375 5.87890625 C-1.23721111 4.37238562 -10.43889153 1.17894154 -19.765625 -1.89453125 C-20.095625 -1.23453125 -20.425625 -0.57453125 -20.765625 0.10546875 C-20.765625 -0.88453125 -20.765625 -1.87453125 -20.765625 -2.89453125 C-14.87130213 -5.84169268 -5.82529491 -1.89390456 0 0 Z " fill="#0177BD" transform="translate(247.765625,72.89453125)"/>
<path d="M0 0 C10.09477302 1.12164145 10.09477302 1.12164145 15.1796875 2.80078125 C16.84016113 3.33566162 16.84016113 3.33566162 18.53417969 3.88134766 C19.67790039 4.25050293 20.82162109 4.6196582 22 5 C24.35462191 5.70899919 26.71142828 6.41078221 29.0703125 7.10546875 C30.81441406 7.62077148 30.81441406 7.62077148 32.59375 8.14648438 C33.7590625 8.49001953 34.924375 8.83355469 36.125 9.1875 C38.50274153 9.88885738 40.88035225 10.59065846 43.2578125 11.29296875 C44.2905127 11.5974292 45.32321289 11.90188965 46.38720703 12.21557617 C51.00001377 13.60045265 52.71123893 14.39509942 55.08203125 18.74609375 C56.80923206 22.98692297 57.37948913 27.48496694 58 32 C57.01 32.33 56.02 32.66 55 33 C54.74605469 32.09636719 54.49210937 31.19273438 54.23046875 30.26171875 C53.88628906 29.08222656 53.54210937 27.90273437 53.1875 26.6875 C52.85105469 25.51574219 52.51460937 24.34398437 52.16796875 23.13671875 C51.02679698 20.07196647 50.41022112 19.03844705 48 17 C42.5886473 14.72530673 37.0735503 13.08539681 31.4140625 11.5546875 C30.63106781 11.33934357 29.84807312 11.12399963 29.04135132 10.90213013 C26.57017866 10.2229164 24.09771206 9.54858588 21.625 8.875 C19.13103225 8.19369051 16.6373763 7.51129758 14.14437866 6.82644653 C12.60024201 6.40243368 11.05552063 5.98054328 9.51016235 5.56100464 C4.22392073 4.11196037 4.22392073 4.11196037 2 3 C2 30.39 2 57.78 2 86 C1.67 86 1.34 86 1 86 C0.67 57.62 0.34 29.24 0 0 Z " fill="#13A4E7" transform="translate(123,38)"/>
<path d="M0 0 C6.87578337 -0.16370913 12.74316477 1.14614176 19.2578125 3.17578125 C23.0890206 4.3273267 26.96541995 5.29015334 30.84765625 6.25390625 C33 7 33 7 34 9 C31.79402076 9.25081682 29.58497421 9.47473851 27.375 9.6875 C26.14523438 9.81511719 24.91546875 9.94273437 23.6484375 10.07421875 C19.52627199 9.99036313 17.58397472 8.94131964 14 7 C11.559383 6.36502149 9.09878677 5.80258983 6.625 5.3125 C5.37976563 5.06113281 4.13453125 4.80976563 2.8515625 4.55078125 C1.91054687 4.36902344 0.96953125 4.18726563 0 4 C0 2.68 0 1.36 0 0 Z " fill="#1E5CA6" transform="translate(159,217)"/>
<path d="M0 0 C0.85980469 0.28746094 1.71960938 0.57492188 2.60546875 0.87109375 C1.61546875 2.35609375 1.61546875 2.35609375 0.60546875 3.87109375 C-3.33230512 2.72620016 -7.26970281 1.58001816 -11.20703125 0.43359375 C-12.32658203 0.10810547 -13.44613281 -0.21738281 -14.59960938 -0.55273438 C-16.20932617 -1.02163086 -16.20932617 -1.02163086 -17.8515625 -1.5 C-19.33619995 -1.93203735 -19.33619995 -1.93203735 -20.85083008 -2.37280273 C-22.70888249 -2.9251003 -24.55560433 -3.51593061 -26.39453125 -4.12890625 C-26.72453125 -3.46890625 -27.05453125 -2.80890625 -27.39453125 -2.12890625 C-27.39453125 -3.11890625 -27.39453125 -4.10890625 -27.39453125 -5.12890625 C-19.90029118 -8.87602629 -7.29405165 -2.42575481 0 0 Z " fill="#0AA4EA" transform="translate(254.39453125,75.12890625)"/>
<path d="M0 0 C7.50382161 0.80398089 14.62563218 1.61762212 21 6 C18.40855954 7.76217951 17.04600583 8.00276035 13.875 7.8125 C9.15125853 6.82203808 4.59412736 5.46975101 0 4 C0 2.68 0 1.36 0 0 Z " fill="#A7C9E3" transform="translate(159,221)"/>
<path d="M0 0 C3.46941546 0.45822468 6.67395049 0.89131683 10 2 C14.04668157 7.64082886 15.06503905 13.1969289 16 20 C15.01 20.33 14.02 20.66 13 21 C12.74605469 20.09636719 12.49210938 19.19273438 12.23046875 18.26171875 C11.88628906 17.08222656 11.54210937 15.90273437 11.1875 14.6875 C10.85105469 13.51574219 10.51460937 12.34398437 10.16796875 11.13671875 C8.15066741 5.7190165 5.1346749 4.39618162 0 2 C0 1.34 0 0.68 0 0 Z " fill="#0C85C6" transform="translate(165,50)"/>
<path d="M0 0 C0.495 0.7425 0.495 0.7425 1 1.5 C3.6624773 3.49685798 5.64960061 2.98844442 8.859375 2.83984375 C12.54602965 3.1156701 14.96695566 4.97797044 18 7 C18 7.66 18 8.32 18 9 C11.33499135 9.59244521 6.13047025 7.48322845 0 5 C0 3.35 0 1.7 0 0 Z " fill="#6B9ECC" transform="translate(215,210)"/>
<path d="M0 0 C4.67320245 -0.42483659 7.78803123 1.07875109 12 3 C13.99263591 3.68836513 15.99041337 4.36281399 18 5 C18 5.66 18 6.32 18 7 C20.97 7.33 23.94 7.66 27 8 C27 8.33 27 8.66 27 9 C23.21078567 9.22735286 20.646788 9.32702764 17.21875 7.59375 C13.68722141 5.84512905 10.48340802 5.07690159 6.625 4.3125 C5.37976563 4.06113281 4.13453125 3.80976563 2.8515625 3.55078125 C1.91054687 3.36902344 0.96953125 3.18726563 0 3 C0 2.01 0 1.02 0 0 Z " fill="#5992C5" transform="translate(159,218)"/>
<path d="M0 0 C0.66 0 1.32 0 2 0 C3.80996216 5.65755469 5.35729017 11.0870696 6 17 C5.01 17 4.02 17 3 17 C2.49255577 15.10614563 1.99435426 13.20981334 1.5 11.3125 C1.2215625 10.25675781 0.943125 9.20101562 0.65625 8.11328125 C0.0608285 5.28857328 -0.12786492 2.87163292 0 0 Z " fill="#0E69AA" transform="translate(179,70)"/>
<path d="M0 0 C4.08378283 0.74250597 8.01939223 1.82923301 12 3 C12 3.66 12 4.32 12 5 C7.28400182 5.92470553 4.32734391 6.22923777 0 4 C0 2.68 0 1.36 0 0 Z " fill="#CEE1ED" transform="translate(214,215)"/>
<path d="M0 0 C15.23529412 1.63235294 15.23529412 1.63235294 20 6 C19.01 5.855625 18.02 5.71125 17 5.5625 C14.97792095 5.26778402 12.96196388 4.99598109 10.9296875 4.78125 C6.9699528 4.35968129 3.61245126 3.69333653 0 2 C0 1.34 0 0.68 0 0 Z " fill="#86B4D8" transform="translate(159,221)"/>
<path d="M0 0 C4.96916636 0.51405169 9.29026351 1.23384882 14 3 C14 3.99 14 4.98 14 6 C12.04096255 5.52372025 10.08278903 5.04388577 8.125 4.5625 C7.03445312 4.29566406 5.94390625 4.02882813 4.8203125 3.75390625 C2 3 2 3 0 2 C0 1.34 0 0.68 0 0 Z " fill="#0397DD" transform="translate(151,46)"/>
<path d="M0 0 C1.670625 0.2165625 1.670625 0.2165625 3.375 0.4375 C8.24126788 1.04796371 13.11846586 1.52985225 18 2 C18 2.66 18 3.32 18 4 C12.55306686 4.09688221 7.36095333 4.12862175 2 3 C2 2.34 2 1.68 2 1 C1.34 0.67 0.68 0.34 0 0 Z " fill="#3E79B7" transform="translate(175,222)"/>
<path d="M0 0 C7.75 0.875 7.75 0.875 10 2 C10 2.99 10 3.98 10 5 C6.7 4.34 3.4 3.68 0 3 C0 2.01 0 1.02 0 0 Z " fill="#01A1EA" transform="translate(141,43)"/>
<path d="M0 0 C8.57142857 0.71428571 8.57142857 0.71428571 12 4 C3.42857143 4.28571429 3.42857143 4.28571429 0 2 C0 1.34 0 0.68 0 0 Z " fill="#D1E3EE" transform="translate(159,225)"/>
<path d="M0 0 C4.44209357 -0.10834375 8.61414671 0.29826347 13 1 C13 1.66 13 2.32 13 3 C13.99 3.33 14.98 3.66 16 4 C14.4375 4.6875 14.4375 4.6875 12 5 C9.6429774 4.05719096 7.30965848 3.05352843 5 2 C2.22111387 1.30859478 2.22111387 1.30859478 0 1 C0 0.67 0 0.34 0 0 Z " fill="#316FB2" transform="translate(159,217)"/>
<path d="M0 0 C0.99 0 1.98 0 3 0 C3.33 2.64 3.66 5.28 4 8 C3.01 8 2.02 8 1 8 C0.67 5.36 0.34 2.72 0 0 Z " fill="#0B579B" transform="translate(183,87)"/>
<path d="M0 0 C3.69900008 0.88776002 7.34550461 1.94581864 11 3 C11 3.33 11 3.66 11 4 C3.57142857 4.28571429 3.57142857 4.28571429 0 2 C0 1.34 0 0.68 0 0 Z " fill="#9DC3DF" transform="translate(215,215)"/>
<path d="M0 0 C0.70769531 0.38285156 1.41539062 0.76570312 2.14453125 1.16015625 C2.85996094 1.54042969 3.57539063 1.92070312 4.3125 2.3125 C4.85519531 2.61285156 5.39789063 2.91320312 5.95703125 3.22265625 C2.57385638 4.19857208 0.39129745 4.0812228 -3.04296875 3.22265625 C-3.04296875 2.56265625 -3.04296875 1.90265625 -3.04296875 1.22265625 C-3.70296875 0.89265625 -4.36296875 0.56265625 -5.04296875 0.22265625 C-2.04296875 -0.77734375 -2.04296875 -0.77734375 0 0 Z " fill="#427EBA" transform="translate(227.04296875,213.77734375)"/>
<path d="M0 0 C4.21912747 0.4794463 6.79663178 1.16625119 10 4 C6.53058454 3.54177532 3.32604951 3.10868317 0 2 C0 1.34 0 0.68 0 0 Z " fill="#77A9D2" transform="translate(169,223)"/>
<path d="M0 0 C4.55737263 0.43820891 7.57653445 0.85041169 11 4 C3.49230769 3.38461538 3.49230769 3.38461538 1 1.4375 C0.67 0.963125 0.34 0.48875 0 0 Z " fill="#2160A8" transform="translate(227,214)"/>
<path d="M0 0 C2.97 0.99 5.94 1.98 9 3 C9 3.33 9 3.66 9 4 C6.69 4 4.38 4 2 4 C1.34 2.68 0.68 1.36 0 0 Z " fill="#2B69AE" transform="translate(216,210)"/>
</svg>
