<?xml version="1.0" encoding="UTF-8"?>
<svg version="1.1" xmlns="http://www.w3.org/2000/svg" width="2000" height="2000">
<path d="M0 0 C660 0 1320 0 2000 0 C2000 660 2000 1320 2000 2000 C1340 2000 680 2000 0 2000 C0 1340 0 680 0 0 Z " fill="#FEFEFE" transform="translate(0,0)"/>
<path d="M0 0 C7.92 3.96 7.92 3.96 16 8 C19.86417262 9.9264421 19.86417262 9.9264421 23.72895813 11.85165405 C27.18936973 13.57486996 30.64848314 15.30068637 34.10766602 17.02636719 C35.90515725 17.92259804 37.7030068 18.81811062 39.5012207 19.71289062 C52.09026165 25.97817159 64.58246325 32.40149381 77 39 C78.81623957 39.96125249 80.63260707 40.9222634 82.44921875 41.8828125 C83.16287598 42.26058838 83.8765332 42.63836426 84.61181641 43.02758789 C91.08044159 46.4475444 97.56984615 49.81133221 104.125 53.0625 C106.75166006 54.3716985 109.37625176 55.68497688 112 57 C112.73057617 57.36480469 113.46115234 57.72960937 114.21386719 58.10546875 C116.48258424 59.24517573 118.74196408 60.40179726 121 61.5625 C121.6820752 61.90224854 122.36415039 62.24199707 123.06689453 62.59204102 C132.71464654 67.60476462 137.9106159 73.39030632 142 83.4375 C142.76692653 85.25035565 143.5378809 87.06151171 144.3125 88.87109375 C144.9305249 90.31742188 144.9305249 90.31742188 145.56103516 91.79296875 C147.53263886 96.18709604 149.70177831 100.47117955 151.87411499 104.76863098 C155.6010357 112.15418373 159.11869336 119.6328324 162.625 127.125 C163.32277306 128.61204656 164.02069286 130.09902427 164.71875 131.5859375 C169.72877027 142.2631287 174.71702785 152.95052342 179.69628906 163.64208984 C182.83014518 170.36836884 185.97987624 177.08686813 189.1484375 183.796875 C190.55735451 186.78122034 191.96623525 189.76558278 193.375 192.75 C193.89066528 193.84220856 193.89066528 193.84220856 194.41674805 194.95648193 C198.52698721 203.66789192 202.56244226 212.40054547 206.41870117 221.22802734 C208.37713894 225.68261954 210.48010578 230.03884646 212.6875 234.375 C216.42194257 241.71192604 219.91455302 249.15551381 223.375 256.625 C223.79455963 257.53031464 223.79455963 257.53031464 224.22259521 258.45391846 C227.96331871 266.53281405 231.65060507 274.63510874 235.3125 282.75 C238.39990032 289.59151704 241.61950545 296.33638556 245.03027344 303.02197266 C247.71051647 308.31632986 250.15207548 313.70319443 252.5625 319.125 C255.01688162 324.64464989 257.5043069 330.11708563 260.25 335.5 C263.76894148 342.42357859 267.04669526 349.45406662 270.3125 356.5 C270.59373718 357.10660461 270.87497437 357.71320923 271.16473389 358.3381958 C274.94449962 366.49778029 278.67371627 374.67950589 282.375 382.875 C284.92248073 388.51285081 287.50674703 394.1095345 290.3125 399.625 C294.6088455 408.07748391 298.53311891 416.70172714 302.51118469 425.30735779 C302.79624374 425.92393753 303.0813028 426.54051727 303.375 427.17578125 C303.66477219 427.80263321 303.95454437 428.42948517 304.25309753 429.07533264 C308.11928583 437.43056109 312.03764402 445.76143246 315.95458984 454.09295654 C316.86607853 456.03177988 317.77680127 457.97096176 318.6875 459.91015625 C319.20699219 461.01496338 319.72648437 462.11977051 320.26171875 463.25805664 C322.53799675 468.15812868 324.7642327 473.08131195 327 478 C327.33 376.03 327.66 274.06 328 169 C343.52961105 176.35613155 358.90422686 183.76575765 374.02288818 191.89401245 C377.77376271 193.89330363 381.56162168 195.80904207 385.36816406 197.69970703 C386.78228459 198.40444519 388.19638714 199.10921942 389.61047363 199.81402588 C390.33466995 200.17455299 391.05886627 200.53508011 391.80500793 200.90653229 C395.38739777 202.69115269 398.9664992 204.48234037 402.54589844 206.27294922 C404.02812078 207.01410145 405.51035984 207.75522025 406.99261475 208.49630737 C428.66174316 219.33087158 450.33087158 230.16543579 472 241 C472 426.13 472 611.26 472 802 C468.00415712 800.40166285 464.82568151 798.80113402 461.1953125 796.578125 C460.3676815 796.07358543 460.3676815 796.07358543 459.52333069 795.55885315 C457.72170024 794.45943627 455.92337224 793.35473687 454.125 792.25 C452.86261429 791.47838626 451.59999746 790.70715053 450.3371582 789.9362793 C447.77555589 788.37196675 445.21515101 786.80572354 442.65576172 785.23779297 C438.43718615 782.65411697 434.21110131 780.08285388 429.98413086 777.51293945 C427.17856746 775.80706873 424.37433607 774.09902539 421.5703125 772.390625 C417.8177093 770.10505635 414.06225761 767.82426802 410.3046875 765.546875 C399.4418253 758.95833504 388.62634162 752.30063089 377.86425781 745.54858398 C372.09668038 741.9304055 366.31222269 738.3423429 360.50878906 734.78198242 C328.69846947 715.23321032 313.5099946 692.10809827 296.63525391 659.17773438 C294.55909175 655.1431977 292.44035893 651.13242081 290.3125 647.125 C284.84941333 636.80426576 279.5487773 626.39945875 274.22259521 616.00769043 C269.48110892 606.75806633 264.72770694 597.51755603 259.85546875 588.3359375 C255.08777039 579.32302827 250.45797784 570.23834549 245.80276489 561.16702271 C241.03515359 551.8779929 236.26510944 542.59171995 231.34375 533.3828125 C229.25791355 529.46176336 227.25073855 525.50675288 225.275177 521.52885437 C220.8401088 512.59918372 216.21252551 503.78584637 211.5 495 C206.82111271 486.2768674 202.22331472 477.52778471 197.82012939 468.66175842 C195.03298805 463.04994885 192.16278885 457.48518273 189.25 451.9375 C188.74033691 450.96329102 188.23067383 449.98908203 187.70556641 448.98535156 C186.13830016 445.98957488 184.5693365 442.99469261 183 440 C175.49633823 425.67599961 168.0695076 411.31411568 160.68338013 396.92926025 C156.42765157 388.64261502 152.16352205 380.36216027 147.8125 372.125 C141.13140132 359.45694277 134.57980804 346.72096221 128 334 C127.67 428.38 127.34 522.76 127 620 C123.49517527 619.12379382 121.07442418 618.13131392 117.9140625 616.48046875 C116.9125415 615.95912354 115.91102051 615.43777832 114.87915039 614.90063477 C113.80528076 614.33530029 112.73141113 613.76996582 111.625 613.1875 C110.50665771 612.60218506 109.38831543 612.01687012 108.23608398 611.41381836 C99.33115511 606.73739197 90.49211629 601.94629122 81.67578125 597.10546875 C75.38824832 593.65603521 69.06886742 590.2665834 62.75 586.875 C53.05612683 581.66731813 43.41389264 576.37558354 33.80712891 571.00927734 C26.08815748 566.69824953 18.29586454 562.6060349 10.359375 558.7109375 C6.84574116 556.92143562 3.42355876 554.95631929 0 553 C0 370.51 0 188.02 0 0 Z " fill="#4D77CE" transform="translate(504,739)"/>
<path d="M0 0 C0 79.53 0 159.06 0 241 C-6.93 244.3 -13.86 247.6 -21 251 C-28.02364664 254.66518909 -28.02364664 254.66518909 -35.01953125 258.3828125 C-39.09871354 260.5516368 -43.22293278 262.62572962 -47.3575592 264.68621826 C-48.79538771 265.40393354 -50.23319818 266.12168494 -51.6709919 266.83946991 C-52.39596784 267.2012115 -53.12094378 267.56295309 -53.86788869 267.93565655 C-57.07389848 269.53608684 -60.27808289 271.14015564 -63.48216248 272.7444458 C-64.7491113 273.37865931 -66.01606388 274.01286531 -67.28302002 274.64706421 C-67.92807243 274.96997814 -68.57312485 275.29289207 -69.2377243 275.62559128 C-84.40349041 283.21751653 -99.57056481 290.8068258 -114.738204 298.39500809 C-123.4818545 302.76941799 -132.22512184 307.14459066 -140.9675293 311.52148438 C-148.63995046 315.36268546 -156.31307884 319.20246952 -163.98705155 323.04057002 C-168.03471117 325.06504896 -172.08202118 327.09021964 -176.1284771 329.11710358 C-179.92721887 331.01988094 -183.72690636 332.92075631 -187.52731133 334.8202095 C-188.9155335 335.51445742 -190.30341662 336.20938382 -191.69092178 336.90506363 C-193.59525812 337.85974616 -195.5008384 338.81190176 -197.40672302 339.76348877 C-199.00021151 340.56092436 -199.00021151 340.56092436 -200.62589169 341.37446976 C-204.70782666 343.34100673 -208.85957031 345.15980903 -213 347 C-213 267.47 -213 187.94 -213 106 C-197 98 -197 98 -189.3125 94.1875 C-183.05261711 91.07487401 -176.86749885 87.83038371 -170.6875 84.5625 C-163.22223713 80.6190982 -155.68391659 76.9089494 -148.03076172 73.34619141 C-141.64747539 70.35506684 -135.40516177 67.13481679 -129.19482422 63.80053711 C-122.30748331 60.11217862 -115.31651587 56.63689095 -108.32260132 53.1567688 C-104.14991651 51.07856814 -99.98154119 48.99174755 -95.8125 46.90625 C-94.02345591 46.01168194 -92.23439322 45.11715107 -90.4453125 44.22265625 C-89.54844727 43.77422363 -88.65158203 43.32579102 -87.72753906 42.86376953 C-79.5546875 38.77734375 -79.5546875 38.77734375 -76.86080933 37.43041992 C-75.07997029 36.53999024 -73.29914751 35.64952805 -71.51834106 34.7590332 C-67.66738612 32.83339823 -63.81631453 30.9080007 -59.96435547 28.984375 C-53.13776644 25.57452798 -46.3164054 22.15453319 -39.50006104 18.72424316 C-35.41767011 16.67052703 -31.33369136 14.61998044 -27.24951172 12.56982422 C-25.14074449 11.51033263 -23.03268746 10.44942647 -20.92529297 9.38720703 C-17.85048204 7.83775922 -14.77317548 6.29337429 -11.6953125 4.75 C-10.27679489 4.03299927 -10.27679489 4.03299927 -8.82962036 3.30151367 C-7.9604599 2.86685791 -7.09129944 2.43220215 -6.19580078 1.984375 C-5.43131622 1.59991211 -4.66683167 1.21544922 -3.87918091 0.81933594 C-2 0 -2 0 0 0 Z " fill="#4CABCE" transform="translate(1264,1197)"/>
<path d="M0 0 C0 78.54 0 157.08 0 238 C-22.01010025 249.58426329 -22.01010025 249.58426329 -32.86254883 255.00074768 C-33.64836334 255.39321749 -34.43417786 255.78568729 -35.24380493 256.19005013 C-36.0502243 256.59268515 -36.85664368 256.99532017 -37.6875 257.41015625 C-39.40850514 258.27099739 -41.12945101 259.13195702 -42.8503418 259.99302673 C-46.4226938 261.77993154 -49.99574763 263.56542252 -53.56933594 265.34985352 C-58.09154519 267.60810925 -62.6119469 269.86995631 -67.13182068 272.13288212 C-70.67467579 273.90613823 -74.21850284 275.67744507 -77.76260376 277.44820976 C-79.42743052 278.28029563 -81.09197394 279.11294869 -82.75619507 279.94624519 C-92.26682792 284.70685604 -101.80929122 289.38117988 -111.44856262 293.87679386 C-116.55122255 296.2676419 -121.54180285 298.82315206 -126.5 301.5 C-132.42202986 304.68504804 -138.40491195 307.65948687 -144.5 310.5 C-150.51029698 313.30165597 -156.41559378 316.22340061 -162.25 319.375 C-169.88598744 323.49409159 -177.67380954 327.24931476 -185.51538086 330.9597168 C-192.16597344 334.10876261 -198.76487336 337.34208148 -205.30493164 340.71508789 C-209.78820157 343 -209.78820157 343 -212 343 C-212 264.46 -212 185.92 -212 105 C-206.72 102.36 -201.44 99.72 -196 97 C-192.49613354 95.2459298 -188.99240615 93.49158817 -185.48901367 91.73657227 C-176.1060258 87.03695482 -166.72205521 82.33930364 -157.33748913 77.64283848 C-151.69931336 74.82114181 -146.06151636 71.99869365 -140.42456055 69.17456055 C-134.91510135 66.41434486 -129.40462866 63.65616199 -123.89348793 60.89930534 C-121.81830848 59.860804 -119.74347623 58.82160851 -117.66902733 57.78164864 C-106.13666807 52.00085345 -94.56996324 46.31844946 -82.88928223 40.84289551 C-78.28877355 38.67924074 -73.78387663 36.35568275 -69.3125 33.9375 C-67.72851752 33.09382506 -66.1438708 32.25139616 -64.55859375 31.41015625 C-63.79401855 31.0042627 -63.02944336 30.59836914 -62.24169922 30.18017578 C-52.77618879 25.19691751 -43.1438118 20.58158392 -33.44287109 16.07861328 C-27.46981737 13.27930153 -21.6581737 10.21458245 -15.84790039 7.09423828 C-2.59122775 0 -2.59122775 0 0 0 Z " fill="#4CAACE" transform="translate(1263,875)"/>
<path d="M0 0 C0 79.53 0 159.06 0 241 C-18 250 -36 259 -54 268 C-57.02848086 269.59254244 -60.04925976 271.19231019 -63.0625 272.8125 C-72.0953518 277.61859134 -81.30258024 282.0206819 -90.546875 286.40234375 C-97.11843186 289.52052696 -103.62053659 292.76909656 -110.11279297 296.04833984 C-112.73306545 297.36966224 -115.35812899 298.68131608 -117.98339844 299.99267578 C-119.99596417 300.99798404 -122.00774703 302.00484767 -124.01953125 303.01171875 C-126.61840763 304.3114738 -129.22003041 305.60545468 -131.82421875 306.89453125 C-139.47570761 310.68917997 -147.0656677 314.58717657 -154.625 318.5625 C-167.52542791 325.3367133 -167.52542791 325.3367133 -173.125 328.1875 C-174.20007812 328.73792969 -175.27515625 329.28835938 -176.3828125 329.85546875 C-179 331 -179 331 -182 331 C-182 251.8 -182 172.6 -182 91 C-165.14899963 82.0127998 -165.14899963 82.0127998 -159.30859375 79.12109375 C-158.66160019 78.7997496 -158.01460663 78.47840546 -157.3480072 78.14732361 C-155.96066745 77.45828745 -154.57291029 76.77009111 -153.18475342 76.08270264 C-146.66226726 72.85034108 -140.15102694 69.59523846 -133.63696289 66.34594727 C-131.922803 65.49138695 -130.20828537 64.63754385 -128.4934082 63.78442383 C-118.97996521 59.05082182 -109.51539662 54.24944222 -100.14007568 49.2474823 C-93.54872593 45.73909741 -86.88022387 42.39786651 -80.18902588 39.08483887 C-73.41649036 35.72850131 -66.65599136 32.34781515 -59.89233398 28.97363281 C-58.09484275 28.07740196 -56.2969932 27.18188938 -54.4987793 26.28710938 C-43.32601745 20.72667849 -32.21738017 15.06565545 -21.19262695 9.21679688 C-3.81463388 0 -3.81463388 0 0 0 Z " fill="#4CABCE" transform="translate(1519,1069)"/>
<path d="M0 0 C0 78.21 0 156.42 0 237 C-14.36822737 244.49646646 -28.73501421 251.92779482 -43.25 259.125 C-56.261523 265.57718464 -69.17857466 272.17726527 -82 279 C-82.77530563 279.41240936 -83.55061127 279.82481873 -84.34941101 280.24972534 C-87.12021425 281.72421975 -89.89083761 283.19901981 -92.65870667 284.67901611 C-100.02382566 288.61108579 -107.52625601 292.28026146 -115 296 C-141.8340558 309.28166816 -141.8340558 309.28166816 -168.3984375 323.08984375 C-171.03961499 324.49736099 -173.68818631 325.88879165 -176.3515625 327.25390625 C-177.32730225 327.75579468 -177.32730225 327.75579468 -178.32275391 328.26782227 C-180 329 -180 329 -182 329 C-182 250.13 -182 171.26 -182 90 C-174.41 86.37 -166.82 82.74 -159 79 C-153.2914853 76.18274337 -147.59016447 73.35463771 -141.90087891 70.49926758 C-140.34256937 69.71914817 -138.78416567 68.93921682 -137.22567749 68.15945435 C-133.9291395 66.5096315 -130.6332209 64.8585807 -127.33781815 63.20649147 C-122.12807394 60.59475048 -116.91672773 57.98621681 -111.70516968 55.37809753 C-100.67724043 49.85863899 -89.65104167 44.33572808 -78.625 38.8125 C-66.63948117 32.8087005 -54.65364484 26.80553913 -42.6658777 20.80622977 C-37.48108566 18.21134149 -32.29727459 15.61450682 -27.1142056 13.01617873 C-23.91135371 11.41104041 -20.70768632 9.80753527 -17.50378799 8.20448685 C-16.01383237 7.45856862 -14.52422439 6.71195553 -13.03498077 5.96461678 C-11.01215372 4.94962668 -8.98813067 3.93706341 -6.96377563 2.92512512 C-5.82942392 2.35683896 -4.69507221 1.7885528 -3.52634621 1.20304585 C-1 0 -1 0 0 0 Z " fill="#4CABCE" transform="translate(1519,747)"/>
<path d="M0 0 C2.44620717 1.13998004 4.83604357 2.35878923 7.22753906 3.609375 C8.10313477 4.05716309 8.97873047 4.50495117 9.88085938 4.96630859 C16.09038911 8.15422677 22.27318942 11.39897347 28.41650391 14.71289062 C34.92862331 18.21112244 41.55536973 21.48115833 48.17230225 24.77490234 C56.77489265 29.05807672 65.37295422 33.35035522 73.97097969 37.64268494 C77.20302038 39.25610725 80.43544089 40.86875927 83.66870117 42.47973633 C108.72347934 54.96451242 108.72347934 54.96451242 120.17196655 61.09150696 C127.32413894 64.91500491 134.58229647 68.51683037 141.85253906 72.109375 C143.51518501 72.93186854 145.17778028 73.75446451 146.84033203 74.57714844 C147.70669281 75.00582214 148.57305359 75.43449585 149.46566772 75.87615967 C153.00981079 77.63099785 156.5523534 79.38904973 160.09448242 81.14794922 C161.91735308 82.05170739 163.74127713 82.95334348 165.56616211 83.85302734 C168.23603069 85.16990125 170.90203971 86.49430814 173.56738281 87.8203125 C174.38697983 88.22236908 175.20657684 88.62442566 176.05101013 89.03866577 C177.17467735 89.60032944 177.17467735 89.60032944 178.32104492 90.17333984 C178.98116074 90.50006683 179.64127655 90.82679382 180.32139587 91.16342163 C181.85253906 92.109375 181.85253906 92.109375 182.85253906 94.109375 C182.2889418 94.39006332 181.72534454 94.67075165 181.14466858 94.95994568 C175.18803155 97.92705534 169.23289824 100.89716754 163.27856445 103.86889648 C161.06702153 104.97217982 158.8551177 106.07474004 156.64282227 107.17651367 C144.85022116 113.05011047 133.08705377 118.95652933 121.47753906 125.18554688 C115.66366574 128.29544561 109.74445944 131.19986846 103.83642578 134.12548828 C101.25621676 135.40511446 98.68026259 136.69315825 96.10473633 137.98217773 C94.0873235 138.99186825 92.06959181 140.00091715 90.05175781 141.00976562 C87.4701158 142.30050284 84.88866159 143.59161244 82.30737305 144.88305664 C75.64918855 148.21394579 68.98900819 151.54076562 62.32510376 154.86019897 C58.76113891 156.6358211 55.19803659 158.41317031 51.63500977 160.19067383 C49.82384465 161.09373659 48.01232178 161.99608219 46.20043945 162.89770508 C36.2556059 167.84723644 26.35853646 172.86105112 16.55926514 178.09339905 C11.3303741 180.87820419 6.04373795 183.4997267 0.66503906 185.984375 C-0.89121553 186.7103697 -2.44721151 187.43691904 -4.00292969 188.1640625 C-4.6593042 188.46812012 -5.31567871 188.77217773 -5.99194336 189.08544922 C-8.31386314 190.1166977 -8.31386314 190.1166977 -10.83740234 191.9777832 C-14.51295112 193.23432315 -14.99155118 193.12377297 -18.38256836 191.6809082 C-20.01856462 190.86534731 -21.64143165 190.02311477 -23.25292969 189.16015625 C-24.13161209 188.7135112 -25.01029449 188.26686615 -25.91560364 187.8066864 C-28.73407899 186.36720878 -31.53410256 184.89528719 -34.33496094 183.421875 C-36.16913431 182.47895146 -38.00441268 181.53817411 -39.84082031 180.59960938 C-45.2939922 177.80282447 -50.72365017 174.96260781 -56.14746094 172.109375 C-57.03127441 171.64466797 -57.91508789 171.17996094 -58.82568359 170.70117188 C-65.5503309 167.16385045 -65.5503309 167.16385045 -68.78739929 165.45222473 C-78.15919303 160.50107231 -87.61418161 155.73126491 -97.22961426 151.27047729 C-103.67631334 148.27567843 -110.01828434 145.16192054 -116.28417969 141.8046875 C-124.70605928 137.33482605 -133.20941428 133.03604912 -141.74121094 128.78125 C-142.70511025 128.30041018 -142.70511025 128.30041018 -143.68848228 127.80985641 C-148.34005558 125.49017505 -152.99356295 123.17438804 -157.64746094 120.859375 C-162.33692562 118.52657764 -167.0256607 116.19233486 -171.71272278 113.85471344 C-173.55451262 112.93699282 -175.3975118 112.02173675 -177.24060059 111.10662842 C-184.29562498 107.58934559 -191.25773163 103.94065697 -198.14746094 100.109375 C-198.14746094 99.119375 -198.14746094 98.129375 -198.14746094 97.109375 C-197.2525293 96.65199951 -196.35759766 96.19462402 -195.43554688 95.72338867 C-173.43115715 84.48320042 -173.43115715 84.48320042 -151.7043457 72.71923828 C-146.34684041 69.74049959 -140.92535867 66.94202244 -135.42797852 64.23168945 C-122.35189605 57.77410392 -109.42368572 51.00380711 -96.70996094 43.859375 C-90.86837002 40.5789544 -84.98030245 37.46494781 -78.97143555 34.50341797 C-72.35139332 31.23324753 -65.78026874 27.86928769 -59.21743774 24.48617554 C-57.93927731 23.82783257 -56.66046662 23.17075025 -55.38095093 22.51504517 C-48.58275434 19.03014634 -41.90327309 15.43612943 -35.38623047 11.44482422 C-32.0211507 9.43751928 -28.54338673 7.69897413 -25.02246094 5.984375 C-24.04599609 5.50291016 -24.04599609 5.50291016 -23.04980469 5.01171875 C-21.74261633 4.36718429 -20.43240203 3.72874815 -19.11914062 3.09667969 C-17.76552446 2.41886594 -16.43293768 1.69787848 -15.12109375 0.94238281 C-9.61365889 -2.14676577 -6.03954645 -2.50480508 0 0 Z " fill="#4CABCE" transform="translate(1025.1474609375,721.890625)"/>
<path d="M0 0 C1.09942429 0.54824936 2.19884857 1.09649872 3.33158875 1.66136169 C4.52170523 2.26499315 5.71170971 2.86884548 6.90161133 3.47290039 C8.14756911 4.0983482 9.39385771 4.72313739 10.64045715 5.3473053 C13.92637653 6.99505691 17.20722538 8.65267395 20.48724365 10.31213379 C23.10973147 11.63680724 25.73580126 12.95427927 28.36208916 14.27139854 C39.50967771 19.86260351 50.64943898 25.4655645 61.65942383 31.32446289 C69.86616208 35.68854276 78.16713057 39.85847693 86.48364258 44.00805664 C87.16216593 44.34661242 87.84068928 44.68516819 88.53977394 45.03398323 C93.45714588 47.48652341 98.37645398 49.93516767 103.29614258 52.38305664 C137.53847921 69.42101269 137.53847921 69.42101269 152.52032471 77.43371582 C154.96558925 78.74093853 157.41801941 80.03448391 159.87036133 81.32836914 C161.2415879 82.05468093 162.61269271 82.78122269 163.98364258 83.50805664 C165.07128906 84.08426758 165.07128906 84.08426758 166.1809082 84.67211914 C167.88610763 85.57553606 169.59114654 86.47925593 171.29614258 87.38305664 C167.66709711 90.3480242 163.68089827 92.41385914 159.54614258 94.57055664 C158.78881836 94.96855469 158.03149414 95.36655273 157.2512207 95.77661133 C151.82607949 98.61566316 146.36053186 101.36648536 140.87451172 104.08544922 C126.30458042 111.3326962 111.9307051 118.98041781 97.5390625 126.57397461 C90.97147015 130.03616615 84.38496418 133.46147052 77.79614258 136.88305664 C64.67034332 143.70187055 51.57751487 150.58030376 38.51098633 157.51196289 C3.53589636 176.06220085 3.53589636 176.06220085 -12.2487793 184.10913086 C-14.21463549 185.12920222 -16.14566145 186.21628525 -18.06323242 187.32446289 C-21.92666506 188.87326503 -24.84198718 188.14990415 -28.66586304 186.57496643 C-30.94783082 185.50075839 -33.19628083 184.3746015 -35.44213867 183.22680664 C-36.28117233 182.80564575 -37.12020599 182.38448486 -37.98466492 181.95056152 C-40.66572915 180.60218187 -43.34095131 179.24262193 -46.01635742 177.88305664 C-47.7718671 176.99954896 -49.52772368 176.11673021 -51.28393555 175.23461914 C-60.23485147 170.72715185 -69.12572081 166.12053617 -77.9684906 161.4047699 C-84.02003359 158.18875195 -90.17496767 155.2430547 -96.39916992 152.37719727 C-102.15008096 149.68947053 -107.76376559 146.78475886 -113.36865234 143.80859375 C-123.1493387 138.6397368 -133.01815779 133.66117123 -142.91870117 128.72680664 C-144.6756716 127.849258 -146.43255141 126.97152792 -148.18934631 126.09362793 C-152.74543539 123.81746371 -157.30272071 121.54370537 -161.86029053 119.27050781 C-166.52178017 116.94492935 -171.18210254 114.61701416 -175.8425293 112.28930664 C-183.34102939 108.54442055 -190.84023143 104.80094479 -198.34033203 101.05926514 C-201.46215322 99.5018187 -204.58382465 97.94408333 -207.70385742 96.38305664 C-207.70385742 95.72305664 -207.70385742 95.06305664 -207.70385742 94.38305664 C-182.2619972 81.56874763 -156.81102929 68.77269491 -131.34905052 55.9984045 C-119.52722681 50.0668542 -107.70847381 44.12933243 -95.89672852 38.17773438 C-85.60341959 32.99125162 -75.30456352 27.81598622 -64.9988476 22.65419775 C-59.54059574 19.91985033 -54.08531588 17.17991101 -48.63663864 14.42652702 C-43.5103428 11.83627357 -38.3767755 9.26106097 -33.23718643 6.69729042 C-31.35019243 5.75269102 -29.46594396 4.80258428 -27.58467102 3.84664154 C-25.01901624 2.54396295 -22.44428991 1.26131657 -19.86630249 -0.01673889 C-19.12115367 -0.40096467 -18.37600486 -0.78519044 -17.60827577 -1.18105942 C-10.89793773 -4.45929874 -6.60094388 -3.32064566 0 0 Z " fill="#4CABCE" transform="translate(763.703857421875,589.616943359375)"/>
<path d="M0 0 C2.50611005 1.2386521 4.93532265 2.51760075 7.375 3.875 C14.27396229 7.62582562 21.27210161 11.09011623 28.375 14.4375 C36.35629315 18.20902512 44.23228717 22.11955175 52.00732422 26.30053711 C56.53004711 28.72732523 61.09339212 31.06368534 65.68676758 33.35351562 C66.37166134 33.69546054 67.0565551 34.03740545 67.76220322 34.38971233 C70.17447943 35.59378946 72.58720776 36.79695726 75 38 C75.91858229 38.4581138 76.83716457 38.91622761 77.78358269 39.38822365 C81.9750007 41.47853673 86.16651815 43.56865017 90.35821247 45.65840912 C100.2122908 50.57121116 110.06441781 55.48791564 119.91581345 60.40609455 C126.51799679 63.70200608 133.12094281 66.99637351 139.72558594 70.28735352 C145.53278383 73.18098687 151.33857047 76.07742914 157.14268041 78.97725171 C160.20215518 80.50568921 163.26231117 82.03272475 166.3241806 83.55636024 C169.72416865 85.24912153 173.12164153 86.94683061 176.51855469 88.64575195 C177.52631958 89.14603912 178.53408447 89.64632629 179.5723877 90.16177368 C180.49714905 90.62552902 181.4219104 91.08928436 182.37469482 91.5670929 C183.17615307 91.96690022 183.97761131 92.36670755 184.80335617 92.77863026 C187.03435873 94.01910401 188.99695248 95.42190343 191 97 C190.51345947 97.25579834 190.02691895 97.51159668 189.52563477 97.77514648 C188.05347161 98.54925219 186.58139315 99.32351898 185.109375 100.09790039 C183.38955977 101.00248496 181.66950162 101.9066078 179.94921875 102.81030273 C175.83137828 104.9752634 171.71739581 107.14607945 167.62109375 109.3515625 C159.63823624 113.64069061 151.58121286 117.66422784 143.36570263 121.48945141 C137.87867066 124.06276677 132.50385544 126.79565427 127.15942383 129.65161133 C117.12493736 134.97064531 106.98796763 140.07022305 96.82421875 145.13671875 C94.95668296 146.06954964 93.08923804 147.00256248 91.22187805 147.93574524 C86.36383664 150.3628821 81.50460049 152.78761699 76.64508057 155.21179199 C71.72033949 157.66903016 66.79673866 160.12855081 61.87304688 162.58789062 C56.31931579 165.36172159 50.7654652 168.13531178 45.21086121 170.90739441 C44.36960064 171.3274494 43.52834007 171.74750439 42.66158676 172.18028831 C41.03366591 172.99218225 39.40500312 173.80259059 37.77553177 174.61136818 C34.10830905 176.43369109 30.45597559 178.27552533 26.83351135 180.18547058 C26.19154721 180.51968427 25.54958307 180.85389795 24.88816547 181.19823933 C23.19083924 182.084265 21.49988373 182.98246589 19.80950928 183.88168335 C16.84582981 185.06136698 15.5702378 185.20337347 12.56640625 184.27734375 C10.58911133 183.22827148 10.58911133 183.22827148 8.5625 181.9375 C6.95332088 181.05172739 5.34392905 180.16634114 3.734375 179.28125 C2.84427734 178.765625 1.95417969 178.25 1.03710938 177.71875 C-2.44548949 175.74789019 -5.98283347 173.91181164 -9.546875 172.09375 C-10.54818199 171.58274498 -10.54818199 171.58274498 -11.56971741 171.06141663 C-12.93408712 170.36539078 -14.29855394 169.66955525 -15.66311646 168.97390747 C-18.25840761 167.64521699 -20.84438515 166.29905628 -23.42999268 164.9516449 C-31.15918122 160.9251075 -38.93720233 157.00347051 -46.74081421 153.1234436 C-53.81780634 149.60421045 -60.88982151 146.07496346 -67.9621582 142.54638672 C-69.85665476 141.60165362 -71.75150963 140.65763868 -73.64672852 139.71435547 C-84.24542945 134.43837034 -94.79545318 129.09153695 -105.25727844 123.54873657 C-112.03222474 119.96514878 -118.8713807 116.52479563 -125.73876953 113.12255859 C-130.22699072 110.89443928 -134.70633157 108.64850949 -139.1875 106.40625 C-141.14059235 105.42962221 -143.09371754 104.45306008 -145.046875 103.4765625 C-154.03125 98.984375 -163.015625 94.4921875 -172 90 C-172 89.01 -172 88.02 -172 87 C-171.17612793 86.5781543 -170.35225586 86.15630859 -169.50341797 85.72167969 C-149.64372753 75.56519545 -149.64372753 75.56519545 -130 65 C-121.24955427 60.16654718 -112.39398416 55.56151838 -103.5 51 C-93.63939252 45.94253928 -83.84853437 40.79143275 -74.14453125 35.4375 C-65.86027126 30.88300343 -57.46346451 26.5562212 -49.05932617 22.22802734 C-41.67283482 18.41383482 -34.34831842 14.50288545 -27.0625 10.5 C-24.46572919 9.07921297 -21.86838575 7.65948422 -19.27050781 6.24072266 C-17.83908692 5.4585204 -16.40861316 4.67458003 -14.97949219 3.88818359 C-13.30675624 2.97330855 -11.62266069 2.07928212 -9.9375 1.1875 C-9.08027344 0.72730469 -8.22304687 0.26710938 -7.33984375 -0.20703125 C-4.33521682 -1.2252938 -3.01341319 -0.99855371 0 0 Z " fill="#4CABCE" transform="translate(1276,588)"/>
<path d="M0 0 C2.66419188 1.24952333 5.2371181 2.64020306 7.8125 4.0625 C13.13040815 6.9703217 18.49336314 9.76895387 23.91894531 12.47070312 C24.60891885 12.81499391 25.29889238 13.15928469 26.00977421 13.51400852 C27.5288872 14.27198772 29.04814034 15.02968609 30.56751442 15.7871418 C33.97160695 17.48445157 37.37468789 19.18378533 40.77784348 20.88297272 C43.62457812 22.30429571 46.47145481 23.72533387 49.31834412 25.14634705 C56.80164618 28.88187369 64.28395045 32.61939755 71.76613522 36.35716152 C77.41900001 39.18098317 83.07223937 42.00404966 88.72631836 44.82543945 C94.25053039 47.58206651 99.7737294 50.34071382 105.29626656 53.10069466 C107.37796397 54.14063049 109.46000893 55.17987097 111.54243279 56.21835136 C121.87076897 61.36949585 132.17710621 66.54636925 142.35115719 71.99745083 C148.87046529 75.49012626 155.48513711 78.7857402 162.11376953 82.06494141 C165.41374286 83.70083292 168.7063767 85.35136867 172 87 C169.00282107 89.36979064 165.92617979 91.21107436 162.5546875 93.00390625 C160.95222168 93.86036743 160.95222168 93.86036743 159.31738281 94.73413086 C157.61340332 95.63917358 157.61340332 95.63917358 155.875 96.5625 C147.96106872 100.78588688 140.07014083 105.04224469 132.25 109.4375 C126.12694519 112.87136608 119.93582327 116.05933498 113.6328125 119.15234375 C109.30363275 121.31693363 105.0946647 123.69342715 100.875 126.0625 C96.0465628 128.77335983 91.2273426 131.44370441 86.25 133.875 C80.87024069 136.51385213 75.62495383 139.3646315 70.375 142.25 C59.81737398 148.05109839 49.17750883 153.68963882 38.51766968 159.29986572 C29.28917061 164.15737216 20.07772219 169.02876777 11.11035156 174.35986328 C7.5760624 176.40057103 5.07822346 177.79054793 1 177 C-1.71076984 175.84983655 -4.2497818 174.4461222 -6.8125 173 C-14.20753556 168.90540888 -21.72899866 165.10110582 -29.29837036 161.34265137 C-38.13739285 156.9498488 -46.96609619 152.53621549 -55.79711819 148.12735367 C-59.13447315 146.46126647 -62.47220873 144.79595086 -65.81079102 143.13232422 C-91.3696274 130.39507743 -91.3696274 130.39507743 -103.86911011 123.74508667 C-114.68859383 118.01118564 -125.67775333 112.60607424 -136.63751221 107.14691162 C-139.6516606 105.64499881 -142.66465007 104.14076482 -145.67773438 102.63671875 C-150.11196848 100.42363843 -154.54675058 98.21166474 -158.98217773 96.00097656 C-164.99069317 93.00579645 -170.99578908 90.0037982 -177 87 C-177 86.34 -177 85.68 -177 85 C-175.97003906 84.52691406 -174.94007813 84.05382812 -173.87890625 83.56640625 C-166.35508069 80.08295534 -158.9238853 76.49771637 -151.625 72.5625 C-144.85540208 68.9175737 -137.98175221 65.56687232 -131.02050781 62.30493164 C-120.51053505 57.37717491 -110.16482955 52.17686752 -99.9375 46.6875 C-92.24713985 42.56298075 -84.3980745 38.81487903 -76.50952148 35.08666992 C-70.76104905 32.35744322 -65.09693797 29.52713765 -59.5 26.5 C-52.93193629 22.94762313 -46.25092142 19.69040195 -39.5 16.5 C-31.04301401 12.50314303 -22.72632436 8.31898722 -14.49609375 3.875 C-13.34238281 3.25625 -12.18867187 2.6375 -11 2 C-9.95972656 1.401875 -8.91945313 0.80375 -7.84765625 0.1875 C-4.46917055 -1.22136098 -3.41315673 -1.22955272 0 0 Z " fill="#4DABCE" transform="translate(1016,457)"/>
<path d="M0 0 C0.99 0.33 1.98 0.66 3 1 C0.32521756 2.6627026 -1.9995144 3.99983813 -5 5 C-6.34778912 9.04336735 -6.15360427 12.95121716 -6.15821838 17.16838074 C-6.16315636 18.11832816 -6.16809434 19.06827558 -6.17318195 20.04700929 C-6.1885927 23.24382144 -6.19692726 26.44061346 -6.20532227 29.63745117 C-6.21489798 31.92358071 -6.22490787 34.20970847 -6.23532104 36.49583435 C-6.26240943 42.71445527 -6.28339769 48.93308381 -6.30332303 55.15173125 C-6.32515834 61.6460343 -6.35255902 68.14031375 -6.37937927 74.63459778 C-6.42365797 85.53885893 -6.46448761 96.44312803 -6.50268555 107.34741211 C-6.54204128 118.57951807 -6.58346769 129.81161325 -6.62768555 141.04370117 C-6.63040982 141.73589598 -6.63313409 142.42809078 -6.63594092 143.14126118 C-6.64962041 146.61375395 -6.66334068 150.08624654 -6.67708123 153.55873907 C-6.79104352 182.37247001 -6.89778012 211.1862251 -7 240 C-5.35 239.67 -3.7 239.34 -2 239 C-2.495 239.99 -2.495 239.99 -3 241 C-4.65 241.33 -6.3 241.66 -8 242 C-8 163.46 -8 84.92 -8 4 C-5.36 2.68 -2.72 1.36 0 0 Z " fill="#62A5BE" transform="translate(1059,976)"/>
<path d="M0 0 C0 78.21 0 156.42 0 237 C-0.33 237 -0.66 237 -1 237 C-1.33 160.44 -1.66 83.88 -2 5 C-4.31 5 -6.62 5 -9 5 C-2.63636364 0 -2.63636364 0 0 0 Z " fill="#65A5C0" transform="translate(1519,747)"/>
<path d="M0 0 C0.11399302 30.2686764 0.20251213 60.53734184 0.25532665 90.80618434 C0.26158039 94.37738171 0.26805198 97.94857866 0.2746582 101.51977539 C0.27596976 102.23075478 0.27728131 102.94173416 0.2786326 103.67425837 C0.3004061 115.1956479 0.33983823 126.71691305 0.38576398 138.23822872 C0.43247472 150.05477511 0.46028396 161.87125625 0.47044247 173.68789119 C0.47669542 180.32742678 0.49238685 186.96673056 0.52865028 193.60618019 C0.56247763 199.84993691 0.5730797 206.09329377 0.56553841 212.33713341 C0.56691889 214.63378952 0.57692968 216.9304584 0.59602737 219.22703552 C0.62075745 222.35313391 0.61497799 225.47770532 0.60127258 228.60383606 C0.61583679 229.52114323 0.630401 230.4384504 0.64540654 231.38355476 C0.61779629 233.69943547 0.56035542 235.75309115 0 238 C-2.44271158 240.11332919 -3.76773785 241 -7 241 C-7 240.01 -7 239.02 -7 238 C-5.02 237.67 -3.04 237.34 -1 237 C-1 159.78 -1 82.56 -1 3 C-2.65 3 -4.3 3 -6 3 C-1.5 0 -1.5 0 0 0 Z " fill="#5AA6C1" transform="translate(1263,875)"/>
<path d="M0 0 C0.99 0 1.98 0 3 0 C3 79.53 3 159.06 3 241 C1.68 241.33 0.36 241.66 -1 242 C-0.505 241.01 -0.505 241.01 0 240 C0.66 240 1.32 240 2 240 C1.67 161.79 1.34 83.58 1 3 C0.34 3 -0.32 3 -1 3 C-0.67 2.01 -0.34 1.02 0 0 Z " fill="#69A6C1" transform="translate(1516,1069)"/>
<path d="M0 0 C0.33 0 0.66 0 1 0 C1.33 76.56 1.66 153.12 2 232 C3.32 232.66 4.64 233.32 6 234 C4.125 235.0625 4.125 235.0625 2 236 C1.34 235.67 0.68 235.34 0 235 C0 157.45 0 79.9 0 0 Z " fill="#53A8C7" transform="translate(1052,1306)"/>
<path d="M0 0 C-2.38573379 1.89213369 -4.07175348 3.02391783 -7 4 C-7.33 4.66 -7.66 5.32 -8 6 C-7.34 6 -6.68 6 -6 6 C-6.33 7.98 -6.66 9.96 -7 12 C-10.33333333 10.66666667 -13.66666667 9.33333333 -17 8 C-17 7.34 -17 6.68 -17 6 C-14.73495035 4.80015203 -12.46410112 3.61505231 -10.1875 2.4375 C-9.54490234 2.09525391 -8.90230469 1.75300781 -8.24023438 1.40039062 C-3.33984375 -1.11328125 -3.33984375 -1.11328125 0 0 Z " fill="#60AFC9" transform="translate(856,536)"/>
<path d="M0 0 C0 0.66 0 1.32 0 2 C-20.1953125 12.09765625 -20.1953125 12.09765625 -22.14941406 13.06298828 C-23.87000571 13.93417967 -25.55793744 14.86906631 -27.2421875 15.80859375 C-30.28378536 17.12259849 -30.98364113 16.94810211 -34 16 C-29.48187768 13.71626417 -24.9611797 11.43774196 -20.43798828 9.1640625 C-18.8988525 8.38945838 -17.360437 7.61342138 -15.82275391 6.8359375 C-13.61547549 5.72020167 -11.40567846 4.6096039 -9.1953125 3.5 C-8.50567413 3.15001953 -7.81603577 2.80003906 -7.10549927 2.43945312 C-2.22774341 0 -2.22774341 0 0 0 Z " fill="#D8F3F9" transform="translate(1196,822)"/>
<path d="M0 0 C0.33 0.66 0.66 1.32 1 2 C-1.01592653 3.1337692 -3.03799747 4.25661641 -5.0625 5.375 C-6.18785156 6.00148438 -7.31320312 6.62796875 -8.47265625 7.2734375 C-12.01888851 9.00924554 -15.19120734 10.0393109 -19 11 C-19 11.66 -19 12.32 -19 13 C-20.65 13 -22.3 13 -24 13 C-21.95431143 10.78926067 -20.08070522 9.35604719 -17.3828125 8.02734375 C-16.69316406 7.68509766 -16.00351563 7.34285156 -15.29296875 6.99023438 C-14.21982422 6.46913086 -14.21982422 6.46913086 -13.125 5.9375 C-12.41730469 5.58623047 -11.70960937 5.23496094 -10.98046875 4.87304688 C-7.37120908 3.09530166 -3.76657951 1.42539185 0 0 Z " fill="#62AEC8" transform="translate(1200,906)"/>
<path d="M0 0 C2.66725358 1.24875963 5.33380899 2.49897527 8 3.75 C8.74378906 4.09804688 9.48757813 4.44609375 10.25390625 4.8046875 C15.20756916 7.1307553 20.11403509 9.53480861 25 12 C24.34 12.66 23.68 13.32 23 14 C12.7241136 10.8193685 12.7241136 10.8193685 9.5859375 7.5078125 C7.74897343 5.76133927 6.19720474 5.13346393 3.8125 4.3125 C3.09707031 4.06113281 2.38164063 3.80976562 1.64453125 3.55078125 C1.10183594 3.36902344 0.55914063 3.18726563 0 3 C0 2.01 0 1.02 0 0 Z " fill="#64AECB" transform="translate(882,650)"/>
<path d="M0 0 C0.66 0.99 1.32 1.98 2 3 C0.0848421 3.81604999 -1.83218834 4.62770632 -3.75 5.4375 C-4.81734375 5.88996094 -5.8846875 6.34242188 -6.984375 6.80859375 C-10 8 -10 8 -12.328125 8.47265625 C-12.87984375 8.64667969 -13.4315625 8.82070313 -14 9 C-14.33 9.99 -14.66 10.98 -15 12 C-15.66 12 -16.32 12 -17 12 C-17 12.66 -17 13.32 -17 14 C-18.65 14 -20.3 14 -22 14 C-20.74572404 10.23717212 -19.76187368 10.0584387 -16.30859375 8.30078125 C-15.36435547 7.81416016 -14.42011719 7.32753906 -13.44726562 6.82617188 C-12.45404297 6.32666016 -11.46082031 5.82714844 -10.4375 5.3125 C-9.44041016 4.80138672 -8.44332031 4.29027344 -7.41601562 3.76367188 C-4.94833259 2.50031262 -2.47635915 1.24624331 0 0 Z " fill="#62ADC9" transform="translate(985,736)"/>
<path d="M0 0 C0.33 0.66 0.66 1.32 1 2 C0.34 2 -0.32 2 -1 2 C-1 2.66 -1 3.32 -1 4 C-4.08809695 5.76462683 -5.23312136 6 -9 6 C-9 6.66 -9 7.32 -9 8 C-13.39251833 10.02055843 -17.15340923 11.40895235 -22 12 C-19.33404413 9.90569672 -16.71092016 8.23609636 -13.671875 6.73828125 C-12.47304687 6.14370117 -12.47304687 6.14370117 -11.25 5.53710938 C-10.0125 4.93092773 -10.0125 4.93092773 -8.75 4.3125 C-7.90953125 3.89677734 -7.0690625 3.48105469 -6.203125 3.05273438 C-4.13718447 2.03150241 -2.06946592 1.01406374 0 0 Z " fill="#69ADC9" transform="translate(1254,1201)"/>
<path d="M0 0 C-0.33 0.66 -0.66 1.32 -1 2 C-3.5625 2.625 -3.5625 2.625 -6 3 C-6.33 5.31 -6.66 7.62 -7 10 C-8.98 9.34 -10.96 8.68 -13 8 C-13 7.01 -13 6.02 -13 5 C-11.39967863 4.15930585 -9.79458829 3.32768495 -8.1875 2.5 C-6.84751953 1.80390625 -6.84751953 1.80390625 -5.48046875 1.09375 C-3 0 -3 0 0 0 Z " fill="#62AEC6" transform="translate(1117,670)"/>
<path d="M0 0 C-2.72950901 2.16131441 -5.39393117 3.79176521 -8.546875 5.26171875 C-9.39121094 5.65810547 -10.23554687 6.05449219 -11.10546875 6.46289062 C-12.41451172 7.06907227 -12.41451172 7.06907227 -13.75 7.6875 C-14.63816406 8.10322266 -15.52632812 8.51894531 -16.44140625 8.94726562 C-18.62572291 9.96896213 -20.81192708 10.98637935 -23 12 C-23 11.34 -23 10.68 -23 10 C-22.34 10 -21.68 10 -21 10 C-21 9.34 -21 8.68 -21 8 C-19.04350603 7.16235732 -17.08474444 6.33000941 -15.125 5.5 C-14.03445313 5.0359375 -12.94390625 4.571875 -11.8203125 4.09375 C-9 3 -9 3 -7 3 C-7 2.34 -7 1.68 -7 1 C-4.53721199 -0.231394 -2.7204945 -0.07159196 0 0 Z " fill="#64ADC6" transform="translate(1256,1116)"/>
<path d="M0 0 C0.94875 0.04125 1.8975 0.0825 2.875 0.125 C-0.54955876 2.92143618 -4.30629771 4.86504289 -8.25 6.8125 C-9.19939453 7.29299805 -9.19939453 7.29299805 -10.16796875 7.78320312 C-14.87153518 10.125 -14.87153518 10.125 -17.125 10.125 C-17.125 9.465 -17.125 8.805 -17.125 8.125 C-14.37386833 6.2075446 -11.52096323 4.83975046 -8.4375 3.5625 C-0.25143678 0.01005747 -0.25143678 0.01005747 0 0 Z " fill="#E5F8FD" transform="translate(625.125,647.875)"/>
<path d="M0 0 C0.94875 0.04125 1.8975 0.0825 2.875 0.125 C-0.54955876 2.92143618 -4.30629771 4.86504289 -8.25 6.8125 C-9.19939453 7.29299805 -9.19939453 7.29299805 -10.16796875 7.78320312 C-14.87153518 10.125 -14.87153518 10.125 -17.125 10.125 C-17.125 9.465 -17.125 8.805 -17.125 8.125 C-14.37386833 6.2075446 -11.52096323 4.83975046 -8.4375 3.5625 C-0.25143678 0.01005747 -0.25143678 0.01005747 0 0 Z " fill="#E5F8FD" transform="translate(1433.125,787.875)"/>
<path d="M0 0 C0 0.66 0 1.32 0 2 C-0.969375 2.45375 -1.93875 2.9075 -2.9375 3.375 C-6.07079582 4.65786221 -6.07079582 4.65786221 -7 7 C-5.68 7.33 -4.36 7.66 -3 8 C-3 8.66 -3 9.32 -3 10 C-2.01 10.33 -1.02 10.66 0 11 C-0.99 11.495 -0.99 11.495 -2 12 C-4.3828125 11.00390625 -4.3828125 11.00390625 -7.125 9.5625 C-8.03507813 9.08941406 -8.94515625 8.61632812 -9.8828125 8.12890625 C-10.58148437 7.75636719 -11.28015625 7.38382813 -12 7 C-12 6.34 -12 5.68 -12 5 C-10.37750059 4.16180842 -8.75191503 3.3295884 -7.125 2.5 C-6.22007812 2.0359375 -5.31515625 1.571875 -4.3828125 1.09375 C-2 0 -2 0 0 0 Z " fill="#67AEC7" transform="translate(568,679)"/>
<path d="M0 0 C10.74259681 5.96583144 10.74259681 5.96583144 14 11 C12.68 11 11.36 11 10 11 C9.814375 10.360625 9.62875 9.72125 9.4375 9.0625 C8.05753944 6.57873787 8.05753944 6.57873787 4.375 6.25 C3.26125 6.1675 2.1475 6.085 1 6 C0.67 4.02 0.34 2.04 0 0 Z " fill="#5F7FC6" transform="translate(627,802)"/>
<path d="M0 0 C3.63 1.65 7.26 3.3 11 5 C7.89448334 8.10551666 6.10801767 8.81323934 2 10 C2 9.34 2 8.68 2 8 C3.65 7.67 5.3 7.34 7 7 C6.34 6.67 5.68 6.34 5 6 C5 5.34 5 4.68 5 4 C3.68 4 2.36 4 1 4 C0.67 2.68 0.34 1.36 0 0 Z " fill="#66A9C6" transform="translate(1456,679)"/>
<path d="M0 0 C-4.95 2.31 -9.9 4.62 -15 7 C-15.33 6.01 -15.66 5.02 -16 4 C-15.030625 3.71125 -14.06125 3.4225 -13.0625 3.125 C-9.89335797 2.35785318 -9.89335797 2.35785318 -9 0 C-5.44307323 -0.85056945 -3.50729422 -1.16909807 0 0 Z " fill="#5DAAC9" transform="translate(1399,1370)"/>
<path d="M0 0 C-4.95 2.31 -9.9 4.62 -15 7 C-15.33 6.01 -15.66 5.02 -16 4 C-15.030625 3.71125 -14.06125 3.4225 -13.0625 3.125 C-9.89335797 2.35785318 -9.89335797 2.35785318 -9 0 C-5.44307323 -0.85056945 -3.50729422 -1.16909807 0 0 Z " fill="#5DAAC9" transform="translate(1431,1354)"/>
<path d="M0 0 C-4.95 2.31 -9.9 4.62 -15 7 C-15.33 6.01 -15.66 5.02 -16 4 C-15.030625 3.71125 -14.06125 3.4225 -13.0625 3.125 C-9.89335797 2.35785318 -9.89335797 2.35785318 -9 0 C-5.44307323 -0.85056945 -3.50729422 -1.16909807 0 0 Z " fill="#5DAAC9" transform="translate(1463,1338)"/>
<path d="M0 0 C-2.43123269 1.36663387 -4.86886163 2.7183867 -7.3125 4.0625 C-8.00279297 4.45244141 -8.69308594 4.84238281 -9.40429688 5.24414062 C-11.22925688 6.24037483 -13.11273877 7.12752842 -15 8 C-15.99 7.67 -16.98 7.34 -18 7 C-16.75 5.5 -16.75 5.5 -15 4 C-13.68 4 -12.36 4 -11 4 C-11 3.34 -11 2.68 -11 2 C-4.296875 -1.22265625 -4.296875 -1.22265625 0 0 Z " fill="#63AAC4" transform="translate(887,703)"/>
<path d="M0 0 C-0.33 0.99 -0.66 1.98 -1 3 C-1.99 3 -2.98 3 -4 3 C-3.67 3.99 -3.34 4.98 -3 6 C-3.556875 5.773125 -4.11375 5.54625 -4.6875 5.3125 C-7.14803971 4.73482997 -7.14803971 4.73482997 -9.5 6.5 C-12 8 -12 8 -14.15625 7.59375 C-14.7646875 7.3978125 -15.373125 7.201875 -16 7 C-13.71070947 5.82845707 -11.41881638 4.66261926 -9.125 3.5 C-8.47402344 3.16613281 -7.82304688 2.83226562 -7.15234375 2.48828125 C-2.2265625 0 -2.2265625 0 0 0 Z " fill="#D9F6F9" transform="translate(1315,762)"/>
<path d="M0 0 C-2.68831091 3.32085466 -6.12191412 4.42003908 -10 6 C-10.33 6.33 -10.66 6.66 -11 7 C-12.66617115 7.04063832 -14.33388095 7.042721 -16 7 C-12.44070801 3.78515562 -4.92883213 -2.46441606 0 0 Z " fill="#5DACC5" transform="translate(960,484)"/>
<path d="M0 0 C-0.5625 1.8125 -0.5625 1.8125 -2 4 C-5.5625 5.6875 -5.5625 5.6875 -9 7 C-9.33 7.33 -9.66 7.66 -10 8 C-11.66617115 8.04063832 -13.33388095 8.042721 -15 8 C-11.0826156 4.57228865 -5.47848189 0 0 0 Z " fill="#5DACC5" transform="translate(991,467)"/>
<path d="M0 0 C-0.5 1.8125 -0.5 1.8125 -2 4 C-4.57914786 5.28121816 -7.2541443 6.14633793 -10 7 C-10.99 7.33 -11.98 7.66 -13 8 C-12 5 -12 5 -9.78515625 3.61328125 C-8.43744141 2.96939453 -8.43744141 2.96939453 -7.0625 2.3125 C-6.16660156 1.87550781 -5.27070312 1.43851563 -4.34765625 0.98828125 C-2 0 -2 0 0 0 Z " fill="#61ABC7" transform="translate(1127,943)"/>
<path d="M0 0 C-0.33 0.99 -0.66 1.98 -1 3 C-2.890625 3.9140625 -2.890625 3.9140625 -5.25 4.625 C-6.46236328 4.99431641 -6.46236328 4.99431641 -7.69921875 5.37109375 C-10.11799485 6.03225326 -12.52364616 6.60058809 -15 7 C-10.79066147 3.49221789 -5.5744558 0 0 0 Z " fill="#63ADC8" transform="translate(1385,1137)"/>
<path d="M0 0 C3.77545388 1.09068668 6.47043472 1.9083091 9 5 C3.25 8 3.25 8 1 8 C1 7.34 1 6.68 1 6 C1.66 5.67 2.32 5.34 3 5 C3 4.01 3 3.02 3 2 C1.68 1.67 0.36 1.34 -1 1 C-0.67 0.67 -0.34 0.34 0 0 Z " fill="#62ACC7" transform="translate(1199,811)"/>
<path d="M0 0 C-1.7196891 1.18059217 -3.45119102 2.34398979 -5.1875 3.5 C-6.15042969 4.1496875 -7.11335937 4.799375 -8.10546875 5.46875 C-11.09682792 7.05122341 -12.68239856 7.33964475 -16 7 C-5.79310345 -1.93103448 -5.79310345 -1.93103448 0 0 Z " fill="#60ACC7" transform="translate(976,476)"/>
<path d="M0 0 C1.65 0 3.3 0 5 0 C5.33 0.66 5.66 1.32 6 2 C7.98 2 9.96 2 12 2 C12 3.65 12 5.3 12 7 C7.69235185 5.43358249 3.93828536 3.31663844 0 1 C0 0.67 0 0.34 0 0 Z " fill="#5A78BF" transform="translate(963,1533)"/>
<path d="M0 0 C1.32 0.66 2.64 1.32 4 2 C-2.435 4.97 -2.435 4.97 -9 8 C-9.33 7.34 -9.66 6.68 -10 6 C-9.67 5.34 -9.34 4.68 -9 4 C-8.05125 3.855625 -7.1025 3.71125 -6.125 3.5625 C-2.88996834 2.9801943 -1.97065946 2.51806487 0 0 Z " fill="#E6FAFD" transform="translate(1446,780)"/>
<path d="M0 0 C-2.37377457 2.74858108 -4.63231666 3.73711875 -8 5 C-8.99 5.66 -9.98 6.32 -11 7 C-11.99 7 -12.98 7 -14 7 C-14 6.34 -14 5.68 -14 5 C-12.23628182 3.96692229 -10.46374967 2.94887951 -8.6875 1.9375 C-7.70136719 1.36902344 -6.71523437 0.80054688 -5.69921875 0.21484375 C-3 -1 -3 -1 0 0 Z " fill="#61ADC9" transform="translate(1139,659)"/>
<path d="M0 0 C-1 3 -1 3 -3.109375 4.1328125 C-4.41648437 4.62394531 -4.41648437 4.62394531 -5.75 5.125 C-6.61109375 5.45757813 -7.4721875 5.79015625 -8.359375 6.1328125 C-10.89699457 6.96617277 -13.37209246 7.53680766 -16 8 C-13.10414095 5.70351643 -10.1827969 3.95652443 -6.875 2.3125 C-5.57175781 1.65701172 -5.57175781 1.65701172 -4.2421875 0.98828125 C-2 0 -2 0 0 0 Z " fill="#5DABC5" transform="translate(736,595)"/>
<path d="M0 0 C0 0.66 0 1.32 0 2 C-1.65532623 3.01866229 -3.32260138 4.01810813 -5 5 C-5.33 5.66 -5.66 6.32 -6 7 C-8.97 6.505 -8.97 6.505 -12 6 C-9.1490916 2.47828963 -4.56486714 0 0 0 Z " fill="#E6FAFC" transform="translate(1066,1537)"/>
<path d="M0 0 C0 0.66 0 1.32 0 2 C-2 3 -4 4 -6 5 C-7.546875 5.86625 -7.546875 5.86625 -9.125 6.75 C-12.25649187 8.1115182 -12.90924149 7.98161429 -16 7 C-13.71070947 5.82845707 -11.41881638 4.66261926 -9.125 3.5 C-8.47402344 3.16613281 -7.82304688 2.83226562 -7.15234375 2.48828125 C-2.2265625 0 -2.2265625 0 0 0 Z " fill="#63ACC5" transform="translate(1432,791)"/>
<path d="M0 0 C-1.95585325 1.00484204 -3.91476237 2.00373805 -5.875 3 C-6.96554687 3.556875 -8.05609375 4.11375 -9.1796875 4.6875 C-12 6 -12 6 -14 6 C-14 5.01 -14 4.02 -14 3 C-12.02 2.67 -10.04 2.34 -8 2 C-8 1.34 -8 0.68 -8 0 C-4.71303767 -0.79953138 -3.28976808 -1.09658936 0 0 Z " fill="#65ADCC" transform="translate(1381,729)"/>
<path d="M0 0 C-3.5458668 2.954889 -7.63781033 5.45934985 -12 7 C-12.99 6.67 -13.98 6.34 -15 6 C-14.443125 5.7525 -13.88625 5.505 -13.3125 5.25 C-10.85925059 4.03956604 -10.85925059 4.03956604 -8.625 1.875 C-5.48542488 -0.36755366 -3.77315072 -0.35099077 0 0 Z " fill="#E5F8FD" transform="translate(588,668)"/>
<path d="M0 0 C-1.95585325 1.00484204 -3.91476237 2.00373805 -5.875 3 C-6.96554687 3.556875 -8.05609375 4.11375 -9.1796875 4.6875 C-12 6 -12 6 -14 6 C-14 5.34 -14 4.68 -14 4 C-9.39112862 0.83963105 -5.52259494 -1.6345947 0 0 Z " fill="#E4F8FD" transform="translate(678,624)"/>
<path d="M0 0 C-1 3 -1 3 -3.6171875 4.421875 C-5.22980469 5.07929687 -5.22980469 5.07929687 -6.875 5.75 C-8.47988281 6.42289063 -8.47988281 6.42289063 -10.1171875 7.109375 C-13 8 -13 8 -16 7 C-13.71070947 5.82845707 -11.41881638 4.66261926 -9.125 3.5 C-8.47402344 3.16613281 -7.82304688 2.83226562 -7.15234375 2.48828125 C-2.2265625 0 -2.2265625 0 0 0 Z " fill="#5DABC4" transform="translate(704,611)"/>
<path d="M0 0 C3.9492568 0.55105909 7.34920174 1.38935371 11 3 C11 3.66 11 4.32 11 5 C11.99 5 12.98 5 14 5 C14 5.66 14 6.32 14 7 C10.2397015 6.41892368 7.46964968 5.34800504 4.1875 3.4375 C3.39730469 2.98246094 2.60710937 2.52742187 1.79296875 2.05859375 C1.20128906 1.70925781 0.60960937 1.35992188 0 1 C0 0.67 0 0.34 0 0 Z " fill="#66A9C2" transform="translate(1249,750)"/>
<path d="M0 0 C-3.40219265 2.74792483 -7.48464588 6 -12 6 C-12 5.34 -12 4.68 -12 4 C-11.01 4 -10.02 4 -9 4 C-9 3.01 -9 2.02 -9 1 C-5.8035914 -0.06546953 -3.34252724 -0.07427838 0 0 Z " fill="#5CABC7" transform="translate(927,681)"/>
<path d="M0 0 C0 0.66 0 1.32 0 2 C-4.27412372 4.18918532 -8.50772417 6.30480157 -13 8 C-13.99 7.67 -14.98 7.34 -16 7 C-13.71070947 5.82845707 -11.41881638 4.66261926 -9.125 3.5 C-8.47402344 3.16613281 -7.82304688 2.83226562 -7.15234375 2.48828125 C-2.2265625 0 -2.2265625 0 0 0 Z " fill="#65ABC5" transform="translate(584,671)"/>
<path d="M0 0 C0 0.66 0 1.32 0 2 C-5.55511022 4.90380762 -5.55511022 4.90380762 -8.3125 5.5 C-8.869375 5.665 -9.42625 5.83 -10 6 C-10.33 6.99 -10.66 7.98 -11 9 C-12.32 8.34 -13.64 7.68 -15 7 C-12.87767021 5.82823482 -10.75242209 4.66245215 -8.625 3.5 C-7.72007813 2.99919922 -7.72007813 2.99919922 -6.796875 2.48828125 C-2.2265625 0 -2.2265625 0 0 0 Z " fill="#6CAFCB" transform="translate(1223,613)"/>
<path d="M0 0 C4.95 2.31 9.9 4.62 15 7 C14.34 7.66 13.68 8.32 13 9 C11.948125 8.360625 10.89625 7.72125 9.8125 7.0625 C6.89171588 5.38245548 4.3828257 4.41003948 1 4 C0.67 2.68 0.34 1.36 0 0 Z " fill="#67AFC8" transform="translate(1100,500)"/>
<path d="M0 0 C1.65 0 3.3 0 5 0 C5 0.66 5 1.32 5 2 C6.423125 2.12375 6.423125 2.12375 7.875 2.25 C11 3 11 3 12.375 5.0625 C12.58125 5.701875 12.7875 6.34125 13 7 C8.50202887 5.31326082 4.27113698 3.18326108 0 1 C0 0.67 0 0.34 0 0 Z " fill="#5B82C7" transform="translate(582,1333)"/>
<path d="M0 0 C4.95 2.31 9.9 4.62 15 7 C15 7.33 15 7.66 15 8 C10.78474059 8.35127162 9.22298718 7.63698951 6 5 C4.01549844 3.96958573 2.01800895 2.96314063 0 2 C0 1.34 0 0.68 0 0 Z " fill="#DDF8FD" transform="translate(1131,691)"/>
<path d="M0 0 C1.65 0.33 3.3 0.66 5 1 C2.45217026 3.97246802 -0.45340883 5.41535288 -4 7 C-4.66 7 -5.32 7 -6 7 C-5.67 6.01 -5.34 5.02 -5 4 C-4.01 3.67 -3.02 3.34 -2 3 C-1.34 2.01 -0.68 1.02 0 0 Z " fill="#5EACC6" transform="translate(906,688)"/>
<path d="M0 0 C0 0.99 0 1.98 0 3 C-1.1446875 3.4021875 -1.1446875 3.4021875 -2.3125 3.8125 C-4.90496926 4.95800967 -6.08815544 5.99711522 -8 8 C-8.66 8 -9.32 8 -10 8 C-10 7.01 -10 6.02 -10 5 C-6.7 3.35 -3.4 1.7 0 0 Z " fill="#5FACC7" transform="translate(1254,596)"/>
<path d="M0 0 C0 0.66 0 1.32 0 2 C-0.78375 2.28875 -1.5675 2.5775 -2.375 2.875 C-5.09671632 3.84912254 -5.09671632 3.84912254 -7 6 C-10.125 6.125 -10.125 6.125 -13 6 C-9.09130466 2.84297684 -5.1385061 0 0 0 Z " fill="#64ABC9" transform="translate(1209,1225)"/>
<path d="M0 0 C0 3.3 0 6.6 0 10 C-0.33 10 -0.66 10 -1 10 C-1 7.69 -1 5.38 -1 3 C-3.31 3 -5.62 3 -8 3 C-4.93882432 0.37613513 -4.26826873 0 0 0 Z " fill="#5FA8CA" transform="translate(1518,749)"/>
<path d="M0 0 C0 0.66 0 1.32 0 2 C-2.81763407 4.81763407 -4.28566635 5.94608803 -8.3125 6.25 C-9.199375 6.1675 -10.08625 6.085 -11 6 C-3.8 0 -3.8 0 0 0 Z " fill="#DFF7FC" transform="translate(1104,590)"/>
<path d="M0 0 C-1.57347176 1.035969 -3.15921546 2.05331732 -4.75 3.0625 C-5.63171875 3.63097656 -6.5134375 4.19945312 -7.421875 4.78515625 C-10 6 -10 6 -12.328125 5.68359375 C-13.15570312 5.34521484 -13.15570312 5.34521484 -14 5 C-12.23628182 3.96692229 -10.46374967 2.94887951 -8.6875 1.9375 C-7.70136719 1.36902344 -6.71523438 0.80054688 -5.69921875 0.21484375 C-3 -1 -3 -1 0 0 Z " fill="#62ACC6" transform="translate(944,492)"/>
<path d="M0 0 C-0.99370273 2.59436983 -1.55706526 3.7671861 -4.05859375 5.08203125 C-4.84363281 5.32308594 -5.62867188 5.56414062 -6.4375 5.8125 C-7.21996094 6.06644531 -8.00242187 6.32039063 -8.80859375 6.58203125 C-11 7 -11 7 -14 6 C-12.04414675 4.99515796 -10.08523763 3.99626195 -8.125 3 C-6.48917969 2.1646875 -6.48917969 2.1646875 -4.8203125 1.3125 C-2 0 -2 0 0 0 Z " fill="#6EB4D0" transform="translate(1090,1284)"/>
<path d="M0 0 C-2.67478244 1.6627026 -4.9995144 2.99983813 -8 4 C-8.66 4.99 -9.32 5.98 -10 7 C-10.33 5.68 -10.66 4.36 -11 3 C-9.73581754 2.30034557 -8.46334598 1.61565237 -7.1875 0.9375 C-6.47980469 0.55464844 -5.77210937 0.17179688 -5.04296875 -0.22265625 C-3 -1 -3 -1 0 0 Z " fill="#67ACC6" transform="translate(1062,977)"/>
<path d="M0 0 C0.66 0.33 1.32 0.66 2 1 C-0.24529435 4.36794152 -1.31592186 4.71057265 -5 6 C-5.99 6.495 -5.99 6.495 -7 7 C-7.66 6.34 -8.32 5.68 -9 5 C-7.54735962 4.1361871 -6.0876837 3.28419546 -4.625 2.4375 C-3.40683594 1.72400391 -3.40683594 1.72400391 -2.1640625 0.99609375 C-1.44992187 0.66738281 -0.73578125 0.33867188 0 0 Z " fill="#67AECD" transform="translate(848,808)"/>
<path d="M0 0 C3.14624993 -0.26218749 4.61837017 -0.24754367 7.3125 1.5 C8.1478125 2.2425 8.1478125 2.2425 9 3 C6.75 4.125 6.75 4.125 4 5 C1.6875 4.125 1.6875 4.125 0 3 C0 2.01 0 1.02 0 0 Z " fill="#61ABCB" transform="translate(1288,768)"/>
<path d="M0 0 C1.4540625 0.0309375 1.4540625 0.0309375 2.9375 0.0625 C-0.46469265 2.81042483 -4.54714588 6.0625 -9.0625 6.0625 C-9.0625 5.4025 -9.0625 4.7425 -9.0625 4.0625 C-7.42618108 3.01357762 -5.75764137 2.01343297 -4.0625 1.0625 C-3.0625 0.0625 -3.0625 0.0625 0 0 Z " fill="#E4F8FD" transform="translate(601.0625,659.9375)"/>
<path d="M0 0 C1.4540625 0.0309375 1.4540625 0.0309375 2.9375 0.0625 C-0.46469265 2.81042483 -4.54714588 6.0625 -9.0625 6.0625 C-9.0625 5.4025 -9.0625 4.7425 -9.0625 4.0625 C-7.42618108 3.01357762 -5.75764137 2.01343297 -4.0625 1.0625 C-3.0625 0.0625 -3.0625 0.0625 0 0 Z " fill="#E5F8FD" transform="translate(641.0625,639.9375)"/>
<path d="M0 0 C1.4540625 0.0309375 1.4540625 0.0309375 2.9375 0.0625 C-0.46469265 2.81042483 -4.54714588 6.0625 -9.0625 6.0625 C-9.0625 5.4025 -9.0625 4.7425 -9.0625 4.0625 C-7.42618108 3.01357762 -5.75764137 2.01343297 -4.0625 1.0625 C-3.0625 0.0625 -3.0625 0.0625 0 0 Z " fill="#E5F8FD" transform="translate(657.0625,631.9375)"/>
<path d="M0 0 C0.66 0.33 1.32 0.66 2 1 C-1.17530109 3.72168665 -3.94254825 5.85559053 -8 7 C-10.15234375 6.54296875 -10.15234375 6.54296875 -12 6 C-10.04669132 4.96958487 -8.08718472 3.9509107 -6.125 2.9375 C-5.03445313 2.36902344 -3.94390625 1.80054688 -2.8203125 1.21484375 C-1.42425781 0.61349609 -1.42425781 0.61349609 0 0 Z " fill="#61ACC7" transform="translate(676,624)"/>
<path d="M0 0 C0 0.66 0 1.32 0 2 C-0.969375 2.268125 -1.93875 2.53625 -2.9375 2.8125 C-3.948125 3.204375 -4.95875 3.59625 -6 4 C-6.33 4.99 -6.66 5.98 -7 7 C-8.98 7 -10.96 7 -13 7 C-4.25 0 -4.25 0 0 0 Z " fill="#68AFC7" transform="translate(924,769)"/>
<path d="M0 0 C4.56454251 0.54339792 7.9728176 1.79463821 12 4 C12 4.66 12 5.32 12 6 C7.76570244 4.68938409 3.92592596 3.05643741 0 1 C0 0.67 0 0.34 0 0 Z " fill="#63ABC5" transform="translate(962,605)"/>
<path d="M0 0 C4.85963179 0.60745397 8.7405518 2.72758967 13 5 C13 5.33 13 5.66 13 6 C9.37471432 6.20140476 7.13498292 5.85776765 4 4 C4 3.34 4 2.68 4 2 C2.68 1.34 1.36 0.68 0 0 Z " fill="#62ACC3" transform="translate(1076,489)"/>
<path d="M0 0 C2.31 0 4.62 0 7 0 C3.58983503 2.86453858 0.09305456 4.34703566 -4 6 C-3.67 5.01 -3.34 4.02 -3 3 C-2.34 3 -1.68 3 -1 3 C-0.67 2.01 -0.34 1.02 0 0 Z " fill="#66B0C7" transform="translate(1169,1156)"/>
<path d="M0 0 C1 3 1 3 0 6 C-1.32 5.67 -2.64 5.34 -4 5 C-4 4.01 -4 3.02 -4 2 C-2.68 1.34 -1.36 0.68 0 0 Z " fill="#62AEC5" transform="translate(831,817)"/>
<path d="M0 0 C1.4540625 0.0309375 1.4540625 0.0309375 2.9375 0.0625 C-0.46469265 2.81042483 -4.54714588 6.0625 -9.0625 6.0625 C-9.0625 5.4025 -9.0625 4.7425 -9.0625 4.0625 C-7.42618108 3.01357762 -5.75764137 2.01343297 -4.0625 1.0625 C-3.0625 0.0625 -3.0625 0.0625 0 0 Z " fill="#E3F8FD" transform="translate(1409.0625,799.9375)"/>
<path d="M0 0 C-1 3 -1 3 -4 5 C-7.1875 5.125 -7.1875 5.125 -10 5 C-3.63636364 0 -3.63636364 0 0 0 Z " fill="#62ABC5" transform="translate(1016,721)"/>
<path d="M0 0 C3.96 1.98 3.96 1.98 8 4 C5.61426621 5.89213369 3.92824652 7.02391783 1 8 C1 6 1 6 2.5 4.375 C2.995 3.92125 3.49 3.4675 4 3 C2.68 2.67 1.36 2.34 0 2 C0 1.34 0 0.68 0 0 Z " fill="#68ADC5" transform="translate(927,673)"/>
<path d="M0 0 C1.32 0 2.64 0 4 0 C4 0.66 4 1.32 4 2 C2.71086513 2.67154933 1.41859796 3.33708859 0.125 4 C-0.59429688 4.37125 -1.31359375 4.7425 -2.0546875 5.125 C-4 6 -4 6 -6 6 C-6 5.34 -6 4.68 -6 4 C-4.36368108 2.95107762 -2.69514137 1.95093297 -1 1 C-0.67 0.67 -0.34 0.34 0 0 Z " fill="#E4F9FC" transform="translate(566,676)"/>
<path d="M0 0 C0.66 0.33 1.32 0.66 2 1 C0 4 0 4 -1.9453125 4.51171875 C-2.66460938 4.56972656 -3.38390625 4.62773438 -4.125 4.6875 C-6.043125 4.8421875 -6.043125 4.8421875 -8 5 C-5.45378681 2.99940392 -3.01962385 1.20784954 0 0 Z " fill="#DAF6FA" transform="translate(1327,755)"/>
<path d="M0 0 C0.33 0.99 0.66 1.98 1 3 C4.465 2.505 4.465 2.505 8 2 C5.37801226 4.15377564 3.35595828 5.40072174 0 6 C0 4.02 0 2.04 0 0 Z " fill="#6BAEC8" transform="translate(1338,1394)"/>
<path d="M0 0 C2.64465038 3.1254959 3.84414715 6.08788267 5 10 C2.5 8.375 2.5 8.375 0 6 C-0.3125 2.75 -0.3125 2.75 0 0 Z " fill="#E7F3FC" transform="translate(660,1127)"/>
<path d="M0 0 C-1 3 -1 3 -2.9375 4.0625 C-3.618125 4.371875 -4.29875 4.68125 -5 5 C-5.66 5.66 -6.32 6.32 -7 7 C-7 6.34 -7 5.68 -7 5 C-7.66 4.67 -8.32 4.34 -9 4 C-2.25 0 -2.25 0 0 0 Z " fill="#E4F8FA" transform="translate(1425,1032)"/>
<path d="M0 0 C0.33 0.66 0.66 1.32 1 2 C-2.79692186 4.82561627 -5.18569279 6.56638908 -10 6 C-6.87567603 3.47650757 -3.61939504 1.72743854 0 0 Z " fill="#64ADC3" transform="translate(1073,969)"/>
<path d="M0 0 C0 0.66 0 1.32 0 2 C-0.639375 2.12375 -1.27875 2.2475 -1.9375 2.375 C-2.618125 2.58125 -3.29875 2.7875 -4 3 C-4.33 3.66 -4.66 4.32 -5 5 C-6.98 5 -8.96 5 -11 5 C-4.63636364 0 -4.63636364 0 0 0 Z " fill="#66AEC8" transform="translate(1176,919)"/>
<path d="M0 0 C0 0.99 0 1.98 0 3 C-3.3 3.66 -6.6 4.32 -10 5 C-8.28489314 1.56978628 -3.75681361 0 0 0 Z " fill="#E4F9FC" transform="translate(1252,1444)"/>
<path d="M0 0 C3.0916909 2.52956528 3.90931332 5.22454612 5 9 C3.0625 8.4375 3.0625 8.4375 1 7 C0.25 3.375 0.25 3.375 0 0 Z " fill="#5F85C6" transform="translate(663,862)"/>
<path d="M0 0 C-1 3 -1 3 -4.375 4.75 C-8 6 -8 6 -11 5 C-9.54462432 4.16151196 -8.08559627 3.32936066 -6.625 2.5 C-5.81289063 2.0359375 -5.00078125 1.571875 -4.1640625 1.09375 C-2 0 -2 0 0 0 Z " fill="#E3FAFD" transform="translate(831,732)"/>
<path d="M0 0 C0 0.66 0 1.32 0 2 C-3.41831915 4.5393228 -5.75776898 5.3636198 -10 5 C-3.63636364 0 -3.63636364 0 0 0 Z " fill="#D4F3F9" transform="translate(1454,692)"/>
<path d="M0 0 C-5.445 2.475 -5.445 2.475 -11 5 C-11 4.34 -11 3.68 -11 3 C-7.34895956 -0.25985754 -4.7197224 -1.5732408 0 0 Z " fill="#DFFAFE" transform="translate(1148,653)"/>
<path d="M0 0 C-1 2 -2 4 -3 6 C-3.66 6 -4.32 6 -5 6 C-5 5.34 -5 4.68 -5 4 C-5.66 3.67 -6.32 3.34 -7 3 C-2.25 0 -2.25 0 0 0 Z " fill="#E2F6FA" transform="translate(1059,614)"/>
<path d="M0 0 C-2.39763185 2.39763185 -3.33273498 2.34280586 -6.625 2.625 C-7.44226563 2.69976562 -8.25953125 2.77453125 -9.1015625 2.8515625 C-9.72804688 2.90054687 -10.35453125 2.94953125 -11 3 C-6.7849044 -0.23157329 -5.27490657 -1.24931998 0 0 Z " fill="#6EB4D1" transform="translate(1016,457)"/>
<path d="M0 0 C0 0.99 0 1.98 0 3 C-3.3 3.66 -6.6 4.32 -10 5 C-8.28489314 1.56978628 -3.75681361 0 0 0 Z " fill="#E3F9FC" transform="translate(1236,1452)"/>
<path d="M0 0 C0.99 0.33 1.98 0.66 3 1 C1.875 2.5 1.875 2.5 0 4 C-3.1875 4.1875 -3.1875 4.1875 -6 4 C-4.03617993 2.49440461 -2.21736634 1.10868317 0 0 Z " fill="#63ADC9" transform="translate(1368,1144)"/>
<path d="M0 0 C2.62113708 0 4.50935112 0.31292445 7 1 C2.375 4 2.375 4 -1 4 C-0.67 2.68 -0.34 1.36 0 0 Z " fill="#5DAFC6" transform="translate(1361,1060)"/>
<path d="M0 0 C1.98 0 3.96 0 6 0 C6.33 0.99 6.66 1.98 7 3 C7.66 3 8.32 3 9 3 C8.67 3.66 8.34 4.32 8 5 C5.36 3.68 2.72 2.36 0 1 C0 0.67 0 0.34 0 0 Z " fill="#E2FAFE" transform="translate(1447,674)"/>
<path d="M0 0 C0.33 0.66 0.66 1.32 1 2 C-1.75 4.0625 -1.75 4.0625 -5 6 C-6.32 5.67 -7.64 5.34 -9 5 C-6.03 3.35 -3.06 1.7 0 0 Z " fill="#6AB2C8" transform="translate(1161,645)"/>
<path d="M0 0 C2.64 0 5.28 0 8 0 C8 1.32 8 2.64 8 4 C2.25 2.25 2.25 2.25 0 0 Z " fill="#E5F8FB" transform="translate(784,600)"/>
<path d="M0 0 C0.33 0.66 0.66 1.32 1 2 C1.99 2.33 2.98 2.66 4 3 C4 4.98 4 6.96 4 9 C1.49701566 6.06171403 0.53069061 3.82097239 0 0 Z " fill="#E2F4FD" transform="translate(828,1210)"/>
<path d="M0 0 C1.32 0.33 2.64 0.66 4 1 C4.33 2.65 4.66 4.3 5 6 C4.01 6.495 4.01 6.495 3 7 C2.01 4.69 1.02 2.38 0 0 Z " fill="#5F86C2" transform="translate(680,1165)"/>
<path d="M0 0 C4.455 1.98 4.455 1.98 9 4 C5 5 5 5 2.25 3.6875 C1.5075 3.130625 0.765 2.57375 0 2 C0 1.34 0 0.68 0 0 Z " fill="#E2FBFD" transform="translate(992,905)"/>
<path d="M0 0 C0.8353125 0.37125 0.8353125 0.37125 1.6875 0.75 C-1.07473278 3.51223278 -3.51956617 3.32856291 -7.3125 3.75 C-2.88173077 -0.31153846 -2.88173077 -0.31153846 0 0 Z " fill="#60AEC7" transform="translate(865.3125,800.25)"/>
<path d="M0 0 C-0.33 0.99 -0.66 1.98 -1 3 C-3.5625 4.1875 -3.5625 4.1875 -6 5 C-6.66 4.34 -7.32 3.68 -8 3 C-2.25 0 -2.25 0 0 0 Z " fill="#E2F9FC" transform="translate(759,770)"/>
<path d="M0 0 C-3.96 1.98 -3.96 1.98 -8 4 C-8 3.01 -8 2.02 -8 1 C-4.59449725 -1.06762667 -4.18836538 -1.04709135 0 0 Z " fill="#65AACA" transform="translate(848,723)"/>
<path d="M0 0 C0.33 0.99 0.66 1.98 1 3 C-1.97 3.66 -4.94 4.32 -8 5 C-5.44008376 2.98863724 -2.95409701 1.37154504 0 0 Z " fill="#DBF5F7" transform="translate(927,681)"/>
<path d="M0 0 C3.465 1.485 3.465 1.485 7 3 C6.67 3.99 6.34 4.98 6 6 C5.67 5.34 5.34 4.68 5 4 C3.68 4 2.36 4 1 4 C0.67 2.68 0.34 1.36 0 0 Z " fill="#6BAFCD" transform="translate(1456,679)"/>
<path d="M0 0 C0.66 0.33 1.32 0.66 2 1 C0.35 2.65 -1.3 4.3 -3 6 C-4.32 5.34 -5.64 4.68 -7 4 C-1.7265625 0.77734375 -1.7265625 0.77734375 0 0 Z " fill="#5CACC7" transform="translate(1206,621)"/>
<path d="M0 0 C-0.33 0.99 -0.66 1.98 -1 3 C-3.06640625 3.73046875 -3.06640625 3.73046875 -5.5625 4.1875 C-6.38878906 4.34605469 -7.21507812 4.50460937 -8.06640625 4.66796875 C-9.02353516 4.83232422 -9.02353516 4.83232422 -10 5 C-3.63636364 0 -3.63636364 0 0 0 Z " fill="#60ACC6" transform="translate(688,619)"/>
<path d="M0 0 C2.8125 -0.3125 2.8125 -0.3125 6 0 C7.875 2.5 7.875 2.5 9 5 C5.54074837 3.7508258 2.85306797 2.32472205 0 0 Z " fill="#E1F8FC" transform="translate(1286,593)"/>
</svg>
