<?xml version="1.0" encoding="UTF-8"?>
<svg version="1.1" xmlns="http://www.w3.org/2000/svg" width="512" height="512">
<path d="M0 0 C3.02837983 2.81643014 5.1074732 5.5720448 7.14453125 9.1640625 C8.0257666 10.70574097 8.0257666 10.70574097 8.92480469 12.27856445 C9.85921387 13.93505005 9.85921387 13.93505005 10.8125 15.625 C11.80562626 17.3664176 12.79876291 19.10782938 13.79251099 20.84889221 C14.82860049 22.6659167 15.86196097 24.48447353 16.89501953 26.30322266 C20.31794432 32.32283528 23.78676261 38.31602774 27.25 44.3125 C27.88139893 45.40836426 28.51279785 46.50422852 29.16333008 47.63330078 C29.7539624 48.65794434 30.34459473 49.68258789 30.953125 50.73828125 C31.47036133 51.63587158 31.98759766 52.53346191 32.52050781 53.45825195 C33.54758364 55.22275467 34.6072885 56.96850685 35.69189453 58.69824219 C37 61 37 61 36.9765625 63.08984375 C35.61755669 65.74805912 33.81361703 66.85694156 31.375 68.5625 C22.54953332 75.38332497 17.10095864 85.060097 15 96 C13.92333692 106.17764659 14.26521797 115.75168743 19 125 C19.63615234 126.28970703 19.63615234 126.28970703 20.28515625 127.60546875 C26.44838519 138.95336382 36.28613463 145.68229229 48.37890625 149.8125 C61.73331295 153.25263339 74.87944117 150.40892424 86.6015625 143.5234375 C97.09122463 136.86062279 103.61573741 126.64906271 106.58203125 114.64453125 C108.59364147 101.91686657 106.93574188 89.44838822 99.6875 78.625 C95.26042017 72.79490558 90.589241 67.39445748 84 64 C85.4160506 60.21481268 87.15421065 56.80250679 89.16796875 53.30078125 C90.1266687 51.62834351 90.1266687 51.62834351 91.10473633 49.92211914 C91.79889967 48.71886013 92.4931564 47.515655 93.1875 46.3125 C93.90089429 45.07103126 94.61402547 43.82941129 95.3269043 42.58764648 C97.17697351 39.36706945 99.03116123 36.14888427 100.88659668 32.93139648 C102.33868183 30.41249601 103.7886399 27.89237427 105.2386322 25.37226868 C108.1517377 20.30999623 111.06775134 15.24939923 113.98828125 10.19140625 C114.75458862 8.86411499 114.75458862 8.86411499 115.53637695 7.51000977 C117.0035712 4.99387565 118.49603207 2.49429709 120 0 C143.01259381 8.15206275 160.5608998 32.04145478 170.75 53.3125 C178.21619724 69.5342976 181.41290448 86.38906046 181.3125 104.1875 C181.30926727 105.21704803 181.30926727 105.21704803 181.30596924 106.26739502 C181.25449171 116.47809605 180.87841075 126.13272072 178 136 C177.80664062 136.66531738 177.61328125 137.33063477 177.4140625 138.01611328 C172.57176584 154.18325653 164.83420083 169.03477455 154 182 C153.16855469 182.99515625 152.33710938 183.9903125 151.48046875 185.015625 C132.35965543 207.1771763 103.35049191 222.67964211 74 225 C59.52008825 225.64397336 45.08022685 225.72952308 31 222 C30.29004883 221.81195801 29.58009766 221.62391602 28.84863281 221.43017578 C-2.91378959 212.63216676 -28.70447445 192.06518837 -45.25634766 163.67211914 C-60.66554576 135.80305102 -64.32204989 101.89018156 -55.74609375 71.29296875 C-46.72946722 41.64657905 -27.50715843 14.97071012 0 0 Z " fill="#0000FF" transform="translate(331,270)"/>
<path d="M0 0 C1.77491821 0.00845947 1.77491821 0.00845947 3.58569336 0.01708984 C31.66859653 0.4041231 57.35867856 10.20030781 78.8125 28.3125 C79.75609375 29.09238281 80.6996875 29.87226562 81.671875 30.67578125 C103.4076147 49.43360181 117.81258154 77.77041864 120.8125 106.3125 C121.4362396 121.4170467 121.89771893 136.6518353 117.8125 151.3125 C117.4721875 152.54226562 117.131875 153.77203125 116.78125 155.0390625 C111.07021226 173.67711136 101.30908495 190.25073143 87.8125 204.3125 C87.05324219 205.13492188 86.29398438 205.95734375 85.51171875 206.8046875 C80.84108483 211.71229303 75.92220156 215.92550195 70.4375 219.875 C69.84235596 220.30490234 69.24721191 220.73480469 68.6340332 221.17773438 C65.71441723 223.21669968 63.28536786 224.58347002 59.8125 225.3125 C59.4314209 224.65056641 59.0503418 223.98863281 58.65771484 223.30664062 C50.48862414 209.12117448 42.28934929 194.95422298 34.03125 180.8203125 C33.25587891 179.48468262 33.25587891 179.48468262 32.46484375 178.12207031 C31.26891179 176.08856189 30.04971217 174.06867817 28.81640625 172.05761719 C27.83994141 170.44741699 27.83994141 170.44741699 26.84375 168.8046875 C26.24111328 167.82612793 25.63847656 166.84756836 25.01757812 165.83935547 C23.8125 163.3125 23.8125 163.3125 24.8125 160.3125 C26.4140625 158.98828125 26.4140625 158.98828125 28.4375 157.625 C37.96349186 150.67221882 44.08943093 141.141038 46.52734375 129.51953125 C48.33773428 115.50760456 45.20472196 102.72435322 36.8125 91.3125 C30.02519082 82.59049054 18.95654288 76.34149236 8.0078125 74.5234375 C-6.84916503 73.09589873 -19.60537477 76.5379918 -31.3203125 86.04296875 C-40.81133868 95.02041127 -45.60313596 107.20685018 -46.28125 120.17578125 C-45.8616721 134.21415854 -40.34548351 146.63614502 -30.1875 156.3125 C-27.91669858 158.1309152 -25.6278704 159.71878872 -23.1875 161.3125 C-23.85763395 164.7039178 -25.16296055 167.3237775 -26.85546875 170.328125 C-27.41234375 171.32062256 -27.96921875 172.31312012 -28.54296875 173.33569336 C-29.44982422 174.93296265 -29.44982422 174.93296265 -30.375 176.5625 C-30.99632812 177.66408447 -31.61765625 178.76566895 -32.2578125 179.90063477 C-38.2765403 190.53861505 -44.37689361 201.13277413 -50.62109375 211.64013672 C-51.70279426 213.48556903 -52.75587205 215.34797242 -53.78515625 217.22314453 C-54.55666016 218.59962158 -54.55666016 218.59962158 -55.34375 220.00390625 C-55.79556641 220.83220947 -56.24738281 221.6605127 -56.71289062 222.51391602 C-57.19951172 223.10744873 -57.68613281 223.70098145 -58.1875 224.3125 C-69.86382001 224.3125 -81.58213375 209.90811779 -89.43359375 202.0703125 C-111.22987287 178.82679553 -121.28320151 146.9432268 -120.47265625 115.48828125 C-119.0735716 84.04692706 -105.78691743 56.77722537 -84.1875 34.3125 C-83.62933594 33.67957031 -83.07117188 33.04664063 -82.49609375 32.39453125 C-62.44553922 10.35462667 -28.9040577 -0.1454449 0 0 Z " fill="#FF0000" transform="translate(254.1875,16.6875)"/>
<path d="M0 0 C-3.823956 7.86407103 -7.91180586 15.48222226 -12.375 23 C-17.9448046 32.46120486 -23.43652456 41.96287029 -28.875 51.5 C-29.4126297 52.44238525 -29.4126297 52.44238525 -29.96112061 53.40380859 C-31.97556327 56.93502855 -33.98851349 60.46709537 -36 64 C-41.70703125 62.10205078 -41.70703125 62.10205078 -44.34375 61.18359375 C-56.97088095 56.81442344 -68.50581524 57.09725211 -80.96484375 62.21875 C-93.54588522 68.57102901 -101.17315184 78.62400723 -105.875 91.75 C-109.07312625 103.83393811 -107.50913514 116.67354223 -101.57421875 127.6328125 C-94.40490445 138.85918062 -84.53799338 145.80395155 -72 150 C-58.47716538 152.76011644 -45.71722172 150.28060379 -34 143 C-24.09274989 135.81804523 -17.97543613 125.84070993 -15 114 C-14.67 110.7 -14.34 107.4 -14 104 C10.42 104 34.84 104 60 104 C60 139.20366196 46.17950037 168.75172599 21.48046875 193.52734375 C-0.41562604 214.33344261 -30.14054516 225.46369595 -60.1875 225.3125 C-61.37077881 225.30686035 -62.55405762 225.3012207 -63.77319336 225.29541016 C-91.13716289 224.91828511 -116.92002471 215.61517272 -138 198 C-138.99515625 197.16855469 -139.9903125 196.33710938 -141.015625 195.48046875 C-162.90349362 176.59180224 -177.67884939 148.73498999 -181 120 C-181.28817284 114.91307805 -181.33465715 109.84427202 -181.3125 104.75 C-181.31001251 104.06546753 -181.30752502 103.38093506 -181.30496216 102.67565918 C-181.14264396 73.7922961 -171.43119731 48.1347974 -153 26 C-151.93845703 24.69095703 -151.93845703 24.69095703 -150.85546875 23.35546875 C-132.66737969 1.92794267 -104.55727919 -11.93866546 -76.92578125 -15.68359375 C-49.40290952 -17.90185505 -23.96790882 -14.03613976 0 0 Z " fill="#00FF00" transform="translate(181,270)"/>
</svg>
