<?xml version="1.0" encoding="UTF-8"?>
<svg version="1.1" xmlns="http://www.w3.org/2000/svg" width="360" height="360">
<path d="M0 0 C4.80137245 -0.09978872 9.60212521 -0.17189617 14.40429688 -0.21972656 C16.03363578 -0.23969079 17.66290445 -0.2668723 19.29199219 -0.30175781 C39.0017861 -0.71288235 39.0017861 -0.71288235 47.625 6.0625 C48.800625 7.5165625 48.800625 7.5165625 50 9 C50.62648438 9.76183594 51.25296875 10.52367188 51.8984375 11.30859375 C65.89433713 29.23271057 68.063553 51.37033333 68.125 73.3125 C68.12959229 74.25029297 68.13418457 75.18808594 68.13891602 76.15429688 C68.13690186 77.02763672 68.1348877 77.90097656 68.1328125 78.80078125 C68.13168457 79.58622314 68.13055664 80.37166504 68.12939453 81.1809082 C68 83 68 83 67 84 C66.7057454 85.31846186 66.46076564 86.64801682 66.23828125 87.98046875 C63.45797443 103.73605193 59.4198115 119.77288221 47 130.9375 C39.91033492 135.81164474 34.45036072 136.43040251 26.01586914 136.34057617 C24.93220062 136.34101425 23.8485321 136.34145233 22.73202515 136.34190369 C19.16621604 136.3398212 15.60088277 136.3165149 12.03515625 136.29296875 C9.55651608 136.2873709 7.07787258 136.28310169 4.59922791 136.28010559 C-1.91262028 136.26867183 -8.42426654 136.23921696 -14.93603516 136.20599365 C-21.58557322 136.17363204 -28.23517022 136.16159346 -34.88476562 136.14648438 C-47.92326304 136.11434613 -60.96162076 136.06374701 -74 136 C-74 138.31 -74 140.62 -74 143 C-73.16283951 142.99777939 -72.32567902 142.99555878 -71.46315002 142.99327087 C-63.59032586 142.97326968 -55.71751017 142.95802675 -47.84466648 142.94818783 C-43.79674258 142.94295959 -39.74883959 142.93586301 -35.70092773 142.92456055 C-31.79764029 142.91372957 -27.89437301 142.90772272 -23.9910717 142.90512276 C-22.49866353 142.90326889 -21.00625652 142.899649 -19.51385689 142.89426994 C-17.43051861 142.88705669 -15.34726469 142.88600917 -13.26391602 142.88647461 C-12.07588882 142.884254 -10.88786163 142.88203339 -9.66383362 142.87974548 C-7 143 -7 143 -6 144 C-5.75545662 148.41363746 -5.77138106 152.83325612 -5.75976562 157.25292969 C-5.75015955 159.46328821 -5.71920074 161.67267651 -5.6875 163.8828125 C-5.60439493 174.70665314 -6.35058226 183.05934312 -14.06640625 191.16015625 C-31.33647049 207.59288404 -57.31741787 211.12626168 -80.32421875 211.03515625 C-99.57482203 210.26211537 -122.53959581 204.55863801 -136 190 C-144.93669054 178.77568772 -143.17225483 163.87929663 -143.23828125 150.20703125 C-143.24235678 149.48122046 -143.2464323 148.75540966 -143.25063133 148.0076046 C-143.27127826 144.17702924 -143.28567912 140.3464876 -143.29516602 136.51586914 C-143.30628371 132.59234466 -143.34080587 128.66937882 -143.38033772 124.74605274 C-143.40660154 121.69434128 -143.41486563 118.64276262 -143.41844749 115.5909481 C-143.4232754 114.14501793 -143.43477906 112.69909214 -143.45348549 111.25327492 C-143.60257625 98.9846787 -141.86626201 90.07972633 -133.27734375 81.04296875 C-125.77827409 74.31567298 -117.50808576 70.72098713 -107.36889648 70.78881836 C-106.09324326 70.79219711 -104.81759003 70.79557587 -103.50328064 70.79905701 C-102.12588453 70.81260397 -100.74848891 70.82620083 -99.37109375 70.83984375 C-97.93490506 70.84612948 -96.49871144 70.85136444 -95.06251526 70.85560608 C-91.28836013 70.86886219 -87.51436912 70.89324645 -83.74029541 70.92095947 C-77.72681971 70.96415309 -71.71330839 70.99413614 -65.6997242 71.0170002 C-63.62286295 71.02703327 -61.54615137 71.04410897 -59.46934509 71.06199646 C-42.40244184 71.64725016 -42.40244184 71.64725016 -26.4375 66.75 C-24.76494141 65.87601563 -24.76494141 65.87601563 -23.05859375 64.984375 C-19.90816762 62.94042037 -17.5672556 60.72770907 -15 58 C-14.40316406 57.47277344 -13.80632812 56.94554687 -13.19140625 56.40234375 C-7.0820226 50.9082937 -3.57795145 43.73385434 -1 36 C-0.92921713 34.29430967 -0.91581781 32.58592693 -0.9375 30.87890625 C-0.94523438 29.85990234 -0.95296875 28.84089844 -0.9609375 27.79101562 C-0.98655387 25.67382294 -1.01258117 23.55663517 -1.0390625 21.43945312 C-1.09311316 14.2372026 -0.71801136 7.16649066 0 0 Z M-46 164 C-48.98916514 168.33911068 -49.4824587 171.78944603 -49 177 C-47.84140462 180.47578613 -46.22294872 182.26456608 -43 184 C-38.48298276 185.12710335 -35.05091847 185.36976761 -30.625 183.8125 C-27.22855243 181.46733382 -25.61434266 179.57973827 -24.125 175.75 C-23.94083337 171.69833409 -25.08493775 168.54806107 -27 165 C-29.70753621 162.06683578 -31.54990162 161.13336248 -35.375 160 C-39.92857742 160 -42.56136486 161.05005977 -46 164 Z " fill="#F9C53E" transform="translate(256,112)"/>
<path d="M0 0 C1.30300049 -0.00169189 2.60600098 -0.00338379 3.94848633 -0.00512695 C14.84655102 0.12064935 25.21747608 1.27758056 35.5 5 C36.21591309 5.25797363 36.93182617 5.51594727 37.66943359 5.78173828 C49.11686728 10.10032277 59.46177539 16.20871381 65.60546875 27.11376953 C70.12903534 37.23873643 68.2266393 51.62479028 68.1875 62.625 C68.18528442 63.45083588 68.18306885 64.27667175 68.18078613 65.12753296 C68.16276488 70.87693618 68.11964149 76.62586304 68.0625 82.375 C68.0562561 83.07747864 68.05001221 83.77995728 68.0435791 84.50372314 C68.00337997 88.73295335 67.92159699 92.95952396 67.8125 97.1875 C67.79848145 98.20424805 67.78446289 99.22099609 67.77001953 100.26855469 C67.54720618 106.79776193 66.11182556 111.61832251 63.0625 117.375 C62.62808594 118.29410156 62.19367188 119.21320313 61.74609375 120.16015625 C57.20109664 128.46653027 49.9526847 134.2240291 41.16479492 137.7878418 C36.53186772 139.08179022 31.71668538 138.96835032 26.9375 139.0625 C25.71353516 139.09738525 24.48957031 139.13227051 23.22851562 139.16821289 C15.01966631 139.3809713 6.81267131 139.38703441 -1.3984375 139.359375 C-2.3900589 139.35658035 -3.3816803 139.35378571 -4.40335083 139.35090637 C-9.35662958 139.33475356 -14.30919204 139.30453651 -19.26220703 139.25073242 C-42.8805564 139.01505877 -42.8805564 139.01505877 -62.75 150.6875 C-68.66265806 156.96642891 -72.97660244 162.85717211 -73.12695312 171.66870117 C-73.14367065 172.50604294 -73.16038818 173.3433847 -73.1776123 174.20610046 C-73.19118774 175.101017 -73.20476318 175.99593353 -73.21875 176.91796875 C-73.23715942 177.84217117 -73.25556885 178.7663736 -73.27453613 179.71858215 C-73.35319091 183.6705881 -73.42120171 187.62275885 -73.48974609 191.57495117 C-73.5413151 194.4602136 -73.598601 197.34532246 -73.65625 200.23046875 C-73.66982544 201.13145798 -73.68340088 202.0324472 -73.6973877 202.96073914 C-73.82463204 209.26213204 -73.82463204 209.26213204 -74.9375 210.375 C-77.36499153 210.50086569 -79.76243265 210.56365611 -82.19140625 210.578125 C-82.92568344 210.58382507 -83.65996063 210.58952515 -84.41648865 210.59539795 C-85.97759555 210.60486741 -87.53872262 210.61138962 -89.09985352 210.61523438 C-91.46602589 210.62486177 -93.8313003 210.65583174 -96.19726562 210.6875 C-97.71614069 210.69403793 -99.23502197 210.69928529 -100.75390625 210.703125 C-101.45318741 210.7154718 -102.15246857 210.7278186 -102.87294006 210.74053955 C-111.45993928 210.70246681 -118.76474134 207.30084832 -124.9375 201.375 C-127.50008202 198.17689764 -129.7640866 194.84695913 -131.9375 191.375 C-132.44667969 190.59382812 -132.95585937 189.81265625 -133.48046875 189.0078125 C-147.30618098 164.02515822 -144.65553479 131.52375965 -137.33886719 105.22314453 C-133.94435983 93.96381573 -126.93829156 82.89642871 -116.9375 76.375 C-111.67191368 74.16630827 -106.85025709 74.03300161 -101.234375 73.9609375 C-100.26714005 73.94152603 -99.29990509 73.92211456 -98.30335999 73.90211487 C-95.09816345 73.8413061 -91.89295244 73.79516555 -88.6875 73.75 C-86.4462037 73.71190332 -84.20491144 73.67356892 -81.96362305 73.63500977 C-55.29056459 73.20828298 -28.61292655 73.27842687 -1.9375 73.375 C-1.9375 71.395 -1.9375 69.415 -1.9375 67.375 C-23.7175 67.375 -45.4975 67.375 -67.9375 67.375 C-69.22512237 60.93688814 -69.20114786 54.73694313 -69.25 48.1875 C-69.29350586 46.27227539 -69.29350586 46.27227539 -69.33789062 44.31835938 C-69.3977828 35.35756847 -68.41326189 28.26231584 -63.1484375 20.859375 C-45.65218756 4.33100272 -23.25868597 0.00726175 0 0 Z M-48.3125 29.5625 C-50.43182738 33.23056663 -50.71109689 36.29040842 -49.9375 40.375 C-48.65132857 43.73479476 -47.00930936 46.49458517 -44.1875 48.8125 C-39.07406577 50.09085856 -35.36102832 50.0196166 -30.625 47.875 C-27.22472095 44.71194972 -25.70056145 41.95336868 -24.9375 37.375 C-25.48256811 32.78085452 -26.46323335 30.88235503 -29.625 27.5 C-36.82495657 22.88115994 -42.16510304 23.90042385 -48.3125 29.5625 Z " fill="#367DEF" transform="translate(181.9375,37.625)"/>
<path d="M0 0 C0.66 0.33 1.32 0.66 2 1 C3.52632102 7.69085377 3.11089349 14.6140182 3.0625 21.4375 C3.05798828 22.64599609 3.05347656 23.85449219 3.04882812 25.09960938 C3.03710145 28.06645789 3.02068896 31.0332027 3 34 C4.19603348 34.01213028 4.19603348 34.01213028 5.41622925 34.02450562 C12.92098646 34.10236203 20.42554672 34.18962507 27.93006706 34.28752708 C31.78846498 34.33752895 35.646835 34.38385836 39.50537109 34.421875 C43.2272559 34.45867907 46.94890944 34.50502515 50.67059708 34.55806351 C52.09235717 34.57663354 53.51416688 34.59173183 54.93600082 34.60334396 C56.92341504 34.62016115 58.91070283 34.65033227 60.89794922 34.68115234 C62.03046112 34.69447601 63.16297302 34.70779968 64.32980347 34.7215271 C67 35 67 35 69 37 C69.32752234 39.71454956 69.1308425 42.25230759 69 45 C67.45177804 46.54822196 66.0002738 46.12909849 63.8445282 46.13371277 C62.50066544 46.14011024 62.50066544 46.14011024 61.12965393 46.14663696 C60.13900436 46.14618378 59.1483548 46.14573059 58.12768555 46.14526367 C57.09033264 46.14862228 56.05297974 46.1519809 54.98419189 46.15544128 C51.53502219 46.16498515 48.08590086 46.16689624 44.63671875 46.16796875 C42.24876383 46.17117938 39.86080911 46.1745433 37.47285461 46.17805481 C32.4582168 46.18405499 27.44359623 46.18589384 22.42895508 46.18530273 C15.99589655 46.18520116 9.56294853 46.19884451 3.12991619 46.21607494 C-1.80537934 46.22718245 -6.74064807 46.22922231 -11.67595482 46.22869301 C-14.04786751 46.22987535 -16.41978085 46.23431131 -18.79168129 46.24202538 C-22.10770057 46.25179825 -25.42347898 46.24895762 -28.73950195 46.24291992 C-29.72407883 46.24853943 -30.7086557 46.25415894 -31.72306824 46.25994873 C-32.62743622 46.25575424 -33.5318042 46.25155975 -34.46357727 46.24723816 C-35.24764607 46.24778293 -36.03171488 46.24832769 -36.83954334 46.24888897 C-39.26324401 45.96967376 -40.89640529 45.20659542 -43 44 C-6.65779564 43.11302941 29.64850196 42.86839655 66 43 C66 41.02 66 39.04 66 37 C44.22 37 22.44 37 0 37 C-0.83429762 32.82851191 -1.12875692 29.47907234 -1.1328125 25.2734375 C-1.13410156 23.9946875 -1.13539062 22.7159375 -1.13671875 21.3984375 C-1.13462402 20.73811523 -1.1325293 20.07779297 -1.13037109 19.39746094 C-1.12499807 17.37427335 -1.13034112 15.35130592 -1.13671875 13.328125 C-1.13542969 12.05195312 -1.13414063 10.77578125 -1.1328125 9.4609375 C-1.13168457 8.29353027 -1.13055664 7.12612305 -1.12939453 5.92333984 C-1 3 -1 3 0 0 Z " fill="#3772D4" transform="translate(114,68)"/>
<path d="M0 0 C12.00266843 3.34500596 22.31494729 9.7009961 28.54736328 20.7409668 C33.06328483 30.8725696 31.16291322 45.24689374 31.125 56.25 C31.12311676 57.07550354 31.12123352 57.90100708 31.11929321 58.75152588 C31.09074637 69.4611134 31.00661529 80.16970369 30.6875 90.875 C30.66510254 91.90012695 30.64270508 92.92525391 30.61962891 93.98144531 C30.39670923 99.94278136 29.41059367 104.53254089 27 110 C26.67 110 26.34 110 26 110 C26 108.02 26 106.04 26 104 C26.66 104 27.32 104 28 104 C28.0464403 94.09863274 28.08192851 84.1972916 28.10362434 74.2958374 C28.11403981 69.69767394 28.12815799 65.09958527 28.15087891 60.50146484 C28.17268727 56.05997996 28.18458544 51.61856679 28.18975449 47.17703247 C28.19343593 45.48665234 28.20062474 43.79627592 28.21146011 42.10592651 C28.22608147 39.72938706 28.22797353 37.35314005 28.22705078 34.9765625 C28.23424133 34.28531784 28.24143188 33.59407318 28.24884033 32.88188171 C28.22819608 27.9344074 27.33052964 23.72586597 26 19 C25.34 19 24.68 19 24 19 C24 18.01 24 17.02 24 16 C23.01 15.67 22.02 15.34 21 15 C20.2575 14.21625 19.515 13.4325 18.75 12.625 C16.17506759 10.16710997 14.25477503 9.13717126 10.98046875 7.88671875 C7.03936601 6.1221619 3.43603644 3.60234959 0 1 C0 0.67 0 0.34 0 0 Z " fill="#3972CE" transform="translate(219,44)"/>
<path d="M0 0 C1.55654672 0.00747339 3.11310293 0.01316113 4.66966248 0.01715088 C8.73868428 0.03232106 12.80712219 0.07152646 16.87591553 0.1159668 C21.0389415 0.15710724 25.2020631 0.1752017 29.36523438 0.1953125 C37.51328684 0.23803086 45.66086737 0.30617524 53.80859375 0.390625 C53.80859375 1.050625 53.80859375 1.710625 53.80859375 2.390625 C52.49100822 2.39609344 52.49100822 2.39609344 51.14680481 2.40167236 C42.86294728 2.43956162 34.57948307 2.49642488 26.29590321 2.57452774 C22.03734117 2.61401289 17.77898622 2.64619612 13.52026367 2.66162109 C9.40920233 2.67678109 5.29871027 2.71121424 1.18790245 2.75893402 C-0.37929647 2.77375473 -1.94657667 2.78166642 -3.51384544 2.78250885 C-5.71191246 2.78487835 -7.90840593 2.81195248 -10.10620117 2.84472656 C-11.35640549 2.85360901 -12.6066098 2.86249146 -13.8946991 2.87164307 C-17.76804132 3.48140139 -19.25757353 4.89078524 -22.19140625 7.390625 C-23.51140625 7.390625 -24.83140625 7.390625 -26.19140625 7.390625 C-25.19140625 4.390625 -25.19140625 4.390625 -23.69422913 3.23638916 C-16.06887494 -0.51007486 -8.28579568 -0.11756477 0 0 Z " fill="#EBCB48" transform="translate(156.19140625,182.609375)"/>
<path d="M0 0 C0.33 0 0.66 0 1 0 C1.125 6.75 1.125 6.75 0 9 C-0.03044858 11.53593209 0.06685017 14.05565048 0.16015625 16.58984375 C0 19 0 19 -2 22 C-2.277283 25.16963137 -2.277283 25.16963137 -2.1953125 28.78515625 C-2.19106766 29.77049599 -2.19106766 29.77049599 -2.18673706 30.77574158 C-2.17556027 32.87151446 -2.15047748 34.96685695 -2.125 37.0625 C-2.11496547 38.47720732 -2.10584044 39.8919214 -2.09765625 41.30664062 C-2.07514039 44.87121942 -2.03856659 48.43555709 -2 52 C-2 52.66 -2 53.32 -2 54 C-1.67 54.66 -1.34 55.32 -1 56 C-1.0870204 57.71233688 -1.24097162 59.42175406 -1.4375 61.125 C-1.53933594 62.03507812 -1.64117187 62.94515625 -1.74609375 63.8828125 C-1.82988281 64.58148438 -1.91367187 65.28015625 -2 66 C-2.33 66 -2.66 66 -3 66 C-7.03857654 43.1868504 -7.44044788 22.32134365 0 0 Z " fill="#2F6EE4" transform="translate(45,142)"/>
<path d="M0 0 C0.99 0.33 1.98 0.66 3 1 C1.73168307 1.81642254 0.46024069 2.62799105 -0.8125 3.4375 C-1.52019531 3.88996094 -2.22789062 4.34242188 -2.95703125 4.80859375 C-8.06977633 7.79021373 -13.55500772 7.36552784 -19.3125 7.5625 C-20.52188232 7.6049585 -21.73126465 7.64741699 -22.97729492 7.69116211 C-45.63619941 8.40015087 -68.33342079 8.08222865 -91 8 C-91 7.34 -91 6.68 -91 6 C-90.00743195 5.99857498 -89.01486389 5.99714996 -87.99221802 5.99568176 C-78.60621098 5.97896165 -69.22063471 5.93603552 -59.83485603 5.86790943 C-55.01028436 5.83372042 -50.18602664 5.80854207 -45.36132812 5.80444336 C-40.69908094 5.800143 -36.03754098 5.77153715 -31.37551498 5.72656822 C-29.60310878 5.71364851 -27.8306177 5.70926581 -26.05817032 5.71384621 C-13.35888584 5.86102957 -13.35888584 5.86102957 -1.82321167 0.97123718 C-1.22155182 0.65072891 -0.61989197 0.33022064 0 0 Z " fill="#417ACE" transform="translate(229,169)"/>
<path d="M0 0 C0.99 0.33 1.98 0.66 3 1 C2.525625 1.7425 2.05125 2.485 1.5625 3.25 C-0.55422494 6.97543589 -1.11696272 10.04529119 -1.18945312 14.29370117 C-1.21452942 15.54971382 -1.21452942 15.54971382 -1.2401123 16.83110046 C-1.25368774 17.726017 -1.26726318 18.62093353 -1.28125 19.54296875 C-1.29965942 20.46717117 -1.31806885 21.3913736 -1.33703613 22.34358215 C-1.41569091 26.2955881 -1.48370171 30.24775885 -1.55224609 34.19995117 C-1.6038151 37.0852136 -1.661101 39.97032246 -1.71875 42.85546875 C-1.73232544 43.75645798 -1.74590088 44.6574472 -1.7598877 45.58573914 C-1.88713204 51.88713204 -1.88713204 51.88713204 -3 53 C-5.52094076 53.08847743 -8.01430893 53.11527301 -10.53515625 53.09765625 C-11.66503212 53.09553383 -11.66503212 53.09553383 -12.81773376 53.09336853 C-15.2326956 53.08775376 -17.64756601 53.07519883 -20.0625 53.0625 C-21.69596221 53.0574869 -23.32942586 53.05292366 -24.96289062 53.04882812 C-28.97529585 53.03777954 -32.98763241 53.02050506 -37 53 C-34.17120714 50.17120714 -32.20075802 50.6857334 -28.2421875 50.5859375 C-27.57913605 50.56657135 -26.91608459 50.5472052 -26.23294067 50.5272522 C-24.11375823 50.46744046 -21.9945215 50.42106612 -19.875 50.375 C-18.43877831 50.33682155 -17.00257955 50.29776989 -15.56640625 50.2578125 C-12.04448064 50.16173875 -8.52238392 50.07771358 -5 50 C-5 49.34 -5 48.68 -5 48 C-4.34 48 -3.68 48 -3 48 C-3.01571045 46.75911621 -3.0314209 45.51823242 -3.04760742 44.23974609 C-3.10204088 39.62164845 -3.13639892 35.003579 -3.16479492 30.38525391 C-3.17985098 28.38911159 -3.20030027 26.39300219 -3.22631836 24.39697266 C-3.26284161 21.52237815 -3.27975837 18.64822228 -3.29296875 15.7734375 C-3.30845261 14.88570648 -3.32393646 13.99797546 -3.33988953 13.08334351 C-3.34127661 7.93873749 -2.79048978 4.49954407 0 0 Z " fill="#3774CC" transform="translate(110,195)"/>
<path d="M0 0 C0.66 0 1.32 0 2 0 C3.00333682 7.1274075 2.9564381 13.88558172 2.5625 21.0625 C2.51029297 22.11888672 2.45808594 23.17527344 2.40429688 24.26367188 C2.2759218 26.84284382 2.14102952 29.42149436 2 32 C1.34 32 0.68 32 0 32 C0 21.44 0 10.88 0 0 Z " fill="#3676DF" transform="translate(247,72)"/>
<path d="M0 0 C-3.32632818 2.12001168 -6.44047052 3.60038854 -10.1875 4.8125 C-15.26724042 6.57457798 -19.52796427 8.96807879 -24.00390625 11.92578125 C-24.66261719 12.28027344 -25.32132812 12.63476562 -26 13 C-26.66 12.67 -27.32 12.34 -28 12 C-22.94344783 7.68086169 -17.78697668 4.75416738 -11.75 2.0625 C-11.05261719 1.744021 -10.35523438 1.42554199 -9.63671875 1.09741211 C-5.95191012 -0.49250471 -3.82050717 -1.2410866 0 0 Z " fill="#3A73D3" transform="translate(151,43)"/>
<path d="M0 0 C0.66 0 1.32 0 2 0 C1.44489088 4.95035664 -0.17591171 8.93211209 -2.4375 13.3125 C-2.75009766 13.94478516 -3.06269531 14.57707031 -3.38476562 15.22851562 C-5.7371119 19.86855595 -5.7371119 19.86855595 -8 21 C-8.33 18.36 -8.66 15.72 -9 13 C-6.525 13.495 -6.525 13.495 -4 14 C-3.67 10.7 -3.34 7.4 -3 4 C-2.34 4 -1.68 4 -1 4 C-0.67 2.68 -0.34 1.36 0 0 Z " fill="#F1C458" transform="translate(317,213)"/>
<path d="M0 0 C1.44791044 0.01005493 2.89582768 0.01917632 4.34375 0.02734375 C7.85431037 0.04914656 11.36461028 0.08353619 14.875 0.125 C14.875 0.455 14.875 0.785 14.875 1.125 C14.03727051 1.15005615 13.19954102 1.1751123 12.33642578 1.20092773 C9.23147744 1.29600357 6.12669819 1.39524025 3.02197266 1.49731445 C1.01605193 1.56198251 -0.99002228 1.62183106 -2.99609375 1.68164062 C-4.88134766 1.74448242 -4.88134766 1.74448242 -6.8046875 1.80859375 C-7.96726074 1.84525146 -9.12983398 1.88190918 -10.32763672 1.91967773 C-13.0785501 1.94321659 -13.0785501 1.94321659 -15.125 3.125 C-17.67115009 3.35672827 -20.19896225 3.54394529 -22.75 3.6875 C-23.80960938 3.75227539 -23.80960938 3.75227539 -24.890625 3.81835938 C-26.63518537 3.92444751 -28.38006697 4.02522889 -30.125 4.125 C-20.82210791 -0.8629002 -10.24975892 -0.12476739 0 0 Z " fill="#386FCD" transform="translate(182.125,37.875)"/>
<path d="M0 0 C0 0.33 0 0.66 0 1 C-0.60996826 1.0093457 -1.21993652 1.01869141 -1.84838867 1.02832031 C-4.62889487 1.08221326 -7.40775262 1.16582069 -10.1875 1.25 C-11.14720703 1.26417969 -12.10691406 1.27835938 -13.09570312 1.29296875 C-18.81022574 1.4907031 -21.69978521 1.95083353 -26 6 C-27.32 6 -28.64 6 -30 6 C-29 3 -29 3 -27.28515625 1.83203125 C-18.18492277 -2.34224105 -9.71250692 -1.15723487 0 0 Z " fill="#E6BE5A" transform="translate(160,184)"/>
<path d="M0 0 C-0.99 0.66 -1.98 1.32 -3 2 C-6.53678072 4.54045287 -6.53678072 4.54045287 -9 8 C-9.26186347 13.2372694 -8.97513861 17.06215348 -7 22 C-8.9375 21.5 -8.9375 21.5 -11 20 C-12.32574447 13.88117935 -11.98938019 8.96814058 -10 3 C-6.58517997 0.43888497 -4.25191465 -0.36444983 0 0 Z " fill="#3774D1" transform="translate(142,62)"/>
<path d="M0 0 C0.99 0 1.98 0 3 0 C2.56509678 5.43629023 1.3898616 8.7128221 -2 13 C-2.99 13.66 -3.98 14.32 -5 15 C-4.49202991 10.6822542 -3.80317221 6.96697886 -2 3 C-1.34 3 -0.68 3 0 3 C0 2.01 0 1.02 0 0 Z " fill="#F1C650" transform="translate(246,288)"/>
<path d="M0 0 C0.33 0.66 0.66 1.32 1 2 C2.98 2 4.96 2 7 2 C7.33 2.66 7.66 3.32 8 4 C8.99 4.33 9.98 4.66 11 5 C11.33 4.34 11.66 3.68 12 3 C15 6.75 15 6.75 15 9 C14.01 8.690625 13.02 8.38125 12 8.0625 C8.02268878 6.91566793 4.11232621 6.43287644 0 6 C0 4.02 0 2.04 0 0 Z " fill="#3279EE" transform="translate(138,56)"/>
<path d="M0 0 C0.33 0 0.66 0 1 0 C1 6.6 1 13.2 1 20 C1.66 20 2.32 20 3 20 C3.33 19.34 3.66 18.68 4 18 C5.0326802 20.78823655 5.04509293 21.8677274 4.0625 24.75 C3.711875 25.4925 3.36125 26.235 3 27 C2.34 26.67 1.68 26.34 1 26 C-1.02820891 17.92472378 -1.61509767 9.29666626 -1 1 C-0.67 0.67 -0.34 0.34 0 0 Z " fill="#E6C260" transform="translate(114,269)"/>
<path d="M0 0 C0.33 0 0.66 0 1 0 C1.125 6.75 1.125 6.75 0 9 C0.00872432 11.50387971 0.13092069 13.99167246 0.2578125 16.4921875 C-0.05546315 19.53950515 -1.01898155 20.71273716 -3 23 C-3.66 23.99 -4.32 24.98 -5 26 C-4.56901343 17.03547936 -2.30110566 8.62647053 0 0 Z " fill="#3874DA" transform="translate(45,142)"/>
<path d="M0 0 C3.71272887 1.85636443 4.64685644 6.68605941 6.1875 10.375 C6.56841797 11.2515625 6.94933594 12.128125 7.34179688 13.03125 C7.87450195 14.29582031 7.87450195 14.29582031 8.41796875 15.5859375 C8.74563232 16.3598584 9.0732959 17.1337793 9.41088867 17.93115234 C10 20 10 20 9 23 C4.40777855 16.49435294 0 8.17606755 0 0 Z " fill="#3A73D1" transform="translate(43,209)"/>
<path d="M0 0 C0.33 0.99 0.66 1.98 1 3 C0.67 3.66 0.34 4.32 0 5 C-0.0396713 6.66619446 -0.04384447 8.33391013 0 10 C-0.99 10.495 -0.99 10.495 -2 11 C-2.99 10.67 -3.98 10.34 -5 10 C-5 10.66 -5 11.32 -5 12 C-5.66 12 -6.32 12 -7 12 C-5.80805531 6.47371099 -4.4008703 3.82180842 0 0 Z " fill="#3973DE" transform="translate(122,56)"/>
<path d="M0 0 C0 3 0 3 -1.390625 4.578125 C-2.00421875 5.12984375 -2.6178125 5.6815625 -3.25 6.25 C-6.72591751 9.55670448 -8.82637451 12.73969404 -11 17 C-12.32 17 -13.64 17 -15 17 C-13.4254269 13.13513876 -10.9952764 10.86504699 -8 8 C-6.55983055 6.56517441 -5.12245801 5.12753751 -3.6875 3.6875 C-2.45833333 2.45833333 -1.22916667 1.22916667 0 0 Z " fill="#E7BC51" transform="translate(249,162)"/>
<path d="M0 0 C0.144375 0.598125 0.28875 1.19625 0.4375 1.8125 C0.8872439 3.56150404 1.42892341 5.28677023 2 7 C0.71034824 8.37562854 -0.62689293 9.70766393 -2 11 C-2.66 11 -3.32 11 -4 11 C-4.33 12.32 -4.66 13.64 -5 15 C-5.33 14.34 -5.66 13.68 -6 13 C-5.29296875 10.9765625 -5.29296875 10.9765625 -4.1875 8.625 C-3.83042969 7.85414063 -3.47335938 7.08328125 -3.10546875 6.2890625 C-2.08844182 4.18313395 -1.05348413 2.08790067 0 0 Z " fill="#3A74D6" transform="translate(52,127)"/>
<path d="M0 0 C0.66 0 1.32 0 2 0 C-0.248731 6.05427576 -2.6001765 10.26166066 -8 14 C-8.66 14 -9.32 14 -10 14 C-9.34 12.68 -8.68 11.36 -8 10 C-7.34 10 -6.68 10 -6 10 C-6 9.34 -6 8.68 -6 8 C-5.34 8 -4.68 8 -4 8 C-3.814375 7.0409375 -3.814375 7.0409375 -3.625 6.0625 C-3.41875 5.381875 -3.2125 4.70125 -3 4 C-2.34 3.67 -1.68 3.34 -1 3 C-0.67 2.01 -0.34 1.02 0 0 Z " fill="#3C73CE" transform="translate(242,155)"/>
<path d="M0 0 C2.31 0 4.62 0 7 0 C4.16797039 1.88801974 1.73974381 2.96101651 -1.4375 4.125 C-2.38496094 4.47820312 -3.33242187 4.83140625 -4.30859375 5.1953125 C-7 6 -7 6 -11 6 C-11 5.34 -11 4.68 -11 4 C-10.28972656 3.87882812 -9.57945312 3.75765625 -8.84765625 3.6328125 C-7.92855469 3.46523438 -7.00945312 3.29765625 -6.0625 3.125 C-5.14597656 2.96257812 -4.22945312 2.80015625 -3.28515625 2.6328125 C-2.53105469 2.42398437 -1.77695313 2.21515625 -1 2 C-0.67 1.34 -0.34 0.68 0 0 Z " fill="#ECC55E" transform="translate(219,313)"/>
<path d="M0 0 C0.33 0 0.66 0 1 0 C1 2.64 1 5.28 1 8 C1.99 8.33 2.98 8.66 4 9 C3.67 12.63 3.34 16.26 3 20 C2.67 20 2.34 20 2 20 C0.57997892 13.2168636 -0.22731216 6.93302093 0 0 Z " fill="#3C73CD" transform="translate(40,188)"/>
<path d="M0 0 C0.226875 0.556875 0.45375 1.11375 0.6875 1.6875 C1.99203598 4.22472385 1.99203598 4.22472385 4.625 6.625 C7 9 7 9 7 11 C2.71095765 9.4114658 0.67654474 6.56872632 -2 3 C-2 2.34 -2 1.68 -2 1 C-1.34 0.67 -0.68 0.34 0 0 Z " fill="#326AD7" transform="translate(55,231)"/>
<path d="M0 0 C1.98 0.495 1.98 0.495 4 1 C4 4.63 4 8.26 4 12 C3.34 10.68 2.68 9.36 2 8 C1.1646875 6.453125 1.1646875 6.453125 0.3125 4.875 C-0.120625 3.92625 -0.55375 2.9775 -1 2 C-0.67 1.34 -0.34 0.68 0 0 Z " fill="#EFC85A" transform="translate(228,273)"/>
<path d="M0 0 C0.33 0 0.66 0 1 0 C1.36263859 5.8022175 0.25684543 9.63999211 -2 15 C-3.31534494 11.34142468 -2.65468309 8.91973519 -1.5625 5.25 C-1.27503906 4.26515625 -0.98757812 3.2803125 -0.69140625 2.265625 C-0.46324219 1.51796875 -0.23507813 0.7703125 0 0 Z " fill="#3D72CD" transform="translate(45,142)"/>
<path d="M0 0 C2.22825644 2.22825644 2.69239369 3.65761628 3.625 6.625 C4.01558594 7.85089844 4.01558594 7.85089844 4.4140625 9.1015625 C4.60742188 9.72804687 4.80078125 10.35453125 5 11 C2.525 10.01 2.525 10.01 0 9 C0 6.03 0 3.06 0 0 Z " fill="#EDC351" transform="translate(316,140)"/>
<path d="M0 0 C1.37562854 1.28965176 2.70766393 2.62689293 4 4 C4 4.66 4 5.32 4 6 C0.37 5.01 -3.26 4.02 -7 3 C-7 2.67 -7 2.34 -7 2 C-4.69 2 -2.38 2 0 2 C0 1.34 0 0.68 0 0 Z " fill="#3C74D8" transform="translate(149,59)"/>
<path d="M0 0 C1.95803507 -0.05389087 3.91648909 -0.09274217 5.875 -0.125 C7.51082031 -0.15980469 7.51082031 -0.15980469 9.1796875 -0.1953125 C12 0 12 0 14 2 C9.04653013 3.59789351 4.86717585 2.28306814 0 1 C0 0.67 0 0.34 0 0 Z " fill="#EEC553" transform="translate(155,319)"/>
<path d="M0 0 C1.65 0 3.3 0 5 0 C5.33 0.99 5.66 1.98 6 3 C7.65 3.33 9.3 3.66 11 4 C11 4.66 11 5.32 11 6 C6.49197399 4.74194623 3.5087188 3.09592835 0 0 Z " fill="#EAC656" transform="translate(130,309)"/>
<path d="M0 0 C-0.9075 0.598125 -1.815 1.19625 -2.75 1.8125 C-5.22901481 3.48106766 -7.63317911 5.17936855 -10 7 C-9.67 5.68 -9.34 4.36 -9 3 C-8.34 3 -7.68 3 -7 3 C-7 2.34 -7 1.68 -7 1 C-3.375 -1.125 -3.375 -1.125 0 0 Z " fill="#3E76CA" transform="translate(128,182)"/>
<path d="M0 0 C-3.42346555 3.14958831 -6.44262737 3.56179109 -11 4 C-8.94006922 -0.11986157 -4.11800376 -1.37266792 0 0 Z " fill="#3774D8" transform="translate(232,170)"/>
<path d="M0 0 C0 3.99904969 -1.72586967 5.80200422 -4 9 C-4.99 8.67 -5.98 8.34 -7 8 C-4.69 5.36 -2.38 2.72 0 0 Z " fill="#3C6EC9" transform="translate(60,118)"/>
<path d="M0 0 C0.99 0.33 1.98 0.66 3 1 C1.71389765 3.5722047 0.66606019 4.00974907 -2 5 C-4.25 4.625 -4.25 4.625 -6 4 C-3.1875 1.9375 -3.1875 1.9375 0 0 Z " fill="#3C71CD" transform="translate(67,113)"/>
<path d="M0 0 C1.30048841 2.60097682 1.56471422 5.13955062 2 8 C1.01 8 0.02 8 -1 8 C-1.66 5.69 -2.32 3.38 -3 1 C-2.01 0.67 -1.02 0.34 0 0 Z " fill="#3975DB" transform="translate(157,65)"/>
<path d="M0 0 C1.125 1.6875 1.125 1.6875 2 4 C1.125 6.75 1.125 6.75 0 9 C-0.66 8.67 -1.32 8.34 -2 8 C-2 6.02 -2 4.04 -2 2 C-1.34 2 -0.68 2 0 2 C0 1.34 0 0.68 0 0 Z " fill="#F3C755" transform="translate(117,287)"/>
<path d="M0 0 C1.32 0.33 2.64 0.66 4 1 C1.42215154 3.64752004 -0.91648098 5.94432065 -4 8 C-3.67 6.68 -3.34 5.36 -3 4 C-2.01 4 -1.02 4 0 4 C0 2.68 0 1.36 0 0 Z " fill="#ECC559" transform="translate(305,235)"/>
<path d="M0 0 C1.32 0.33 2.64 0.66 4 1 C-1.75 6 -1.75 6 -4 6 C-3.67 5.01 -3.34 4.02 -3 3 C-2.01 3 -1.02 3 0 3 C0 2.01 0 1.02 0 0 Z " fill="#EEC45A" transform="translate(236,304)"/>
<path d="M0 0 C4.31392226 0.4793247 6.16569547 1.7457985 9 5 C5.22454612 3.90931332 2.52956528 3.0916909 0 0 Z " fill="#3873CF" transform="translate(62,242)"/>
<path d="M0 0 C-3.22515763 1.73662334 -6.51329166 2.8905928 -10 4 C-10.33 3.34 -10.66 2.68 -11 2 C-7.36576791 -0.32590854 -4.22911669 -0.16265833 0 0 Z " fill="#3E76D1" transform="translate(138,177)"/>
</svg>
