<?xml version="1.0" encoding="UTF-8"?>
<svg version="1.1" xmlns="http://www.w3.org/2000/svg" width="348" height="348">
<path d="M0 0 C5.07011204 1.54681384 6.99209548 3.6254714 9.6875 8.125 C16.25470118 21.87668497 20.50538927 36.89905785 24 51.6875 C30.46849195 81.4814942 30.46849195 81.4814942 47.6875 105.125 C50.62050732 106.59150366 52.40787344 106.48940295 55.6875 106.125 C57.89095265 104.95364785 59.90718604 103.64614927 61.953125 102.21875 C63.6875 101.125 63.6875 101.125 65.6875 101.125 C65.96207031 100.39539063 66.23664063 99.66578125 66.51953125 98.9140625 C68.42420694 94.3657734 71.09495982 90.30841711 73.6875 86.125 C74.2959375 85.12726563 74.904375 84.12953125 75.53125 83.1015625 C76.1396875 82.11929688 76.748125 81.13703125 77.375 80.125 C77.93574219 79.2175 78.49648437 78.31 79.07421875 77.375 C80.6875 75.125 80.6875 75.125 83.6875 73.125 C89.66789137 73.84030171 93.46899374 78.62002372 97.046875 83.0390625 C120.76342179 114.45790225 133.99616626 158.06464383 134.6875 197.125 C134.72617187 198.11371094 134.76484375 199.10242188 134.8046875 200.12109375 C135.38101253 224.23069068 129.29126537 251.18525721 113.6875 270.125 C113.0275 270.125 112.3675 270.125 111.6875 270.125 C111.45546875 270.67800781 111.2234375 271.23101562 110.984375 271.80078125 C101.43521703 288.91448303 78.38642335 298.63453272 60.7421875 304.046875 C59.39327939 304.41608833 58.04154275 304.77508601 56.6875 305.125 C55.9661084 305.31336426 55.2447168 305.50172852 54.50146484 305.69580078 C46.90733317 307.45336714 39.32627482 307.52200392 31.5625 307.5 C30.87496643 307.49978851 30.18743286 307.49957703 29.47906494 307.49935913 C18.96318026 307.46704921 9.61611694 306.72678944 -0.3125 303.125 C-1.39273438 302.774375 -2.47296875 302.42375 -3.5859375 302.0625 C-30.36339019 292.7260516 -51.28934048 273.2096578 -64.0625 248.0625 C-69.24057475 235.68563841 -71.7563398 222.56810189 -71.9375 209.1875 C-71.97194214 207.87036011 -71.97194214 207.87036011 -72.00708008 206.52661133 C-71.81005198 188.82718336 -65.32393667 171.10825552 -59.75 154.5 C-59.13161568 152.63220556 -58.51412017 150.76411665 -57.89746094 148.89575195 C-56.34340912 144.19542176 -54.77751351 139.49914364 -53.2074585 134.80413818 C-51.82632441 130.66958994 -50.45458169 126.531935 -49.08203125 122.39453125 C-46.86608455 115.72074846 -44.6387559 109.05083681 -42.40545654 102.38284302 C-40.81638102 97.63654519 -39.23555873 92.88757131 -37.66015625 88.13671875 C-30.58582923 66.80854138 -23.4271722 45.5282431 -15.5 24.5 C-15.04375244 23.2843335 -14.58750488 22.06866699 -14.11743164 20.81616211 C-6.28573165 0.23719742 -6.28573165 0.23719742 0 0 Z M-10.3125 171.125 C-14.83046891 176.83863341 -18.11332811 182.18024666 -20.3125 189.125 C-20.82103516 190.44177734 -20.82103516 190.44177734 -21.33984375 191.78515625 C-22.56250984 195.98346752 -22.85754933 199.95977933 -23.0625 204.3125 C-23.10270264 205.15748047 -23.14290527 206.00246094 -23.18432617 206.87304688 C-23.41613698 213.21529321 -23.07651313 218.99481072 -21.3125 225.125 C-20.97798828 226.41857422 -20.97798828 226.41857422 -20.63671875 227.73828125 C-16.03724035 242.80102804 -5.43785794 253.4019716 8.01171875 261.00390625 C20.77143001 267.05389036 35.96061849 267.44413602 49.375 263.125 C65.47787349 256.2649453 76.12489736 244.0779934 82.6875 228.125 C87.1788529 215.7058498 87.16952032 202.52284652 82.6875 190.125 C82.3471875 189.13757813 82.006875 188.15015625 81.65625 187.1328125 C76.35898462 173.06642538 66.17616145 162.56933578 52.6875 156.125 C51.56021484 155.53332031 51.56021484 155.53332031 50.41015625 154.9296875 C44.06249613 152.06170836 37.98609055 151.73860346 31.125 151.6875 C29.81354004 151.6723938 29.81354004 151.6723938 28.47558594 151.65698242 C13.13333161 151.8597625 -0.54047694 159.39857232 -10.3125 171.125 Z " fill="#F05734" transform="translate(144.3125,33.875)"/>
<path d="M0 0 C6.83900553 2.97115309 10.39352304 14.40495533 12.99609375 20.8671875 C15.18196476 27.11253323 15.85465559 32.10071047 13.87109375 38.4921875 C11.42094927 42.90244756 8.56984258 45.58031308 3.99609375 47.8671875 C-1.96899998 48.73348742 -6.4121429 47.9204271 -11.33984375 44.40625 C-15.27436194 40.76728247 -16.1703681 36.38701349 -16.50390625 31.2421875 C-16.16251027 21.01582613 -10.5994483 10.26050058 -5.00390625 1.8671875 C-2.00390625 -0.1328125 -2.00390625 -0.1328125 0 0 Z " fill="#9E529F" transform="translate(209.00390625,8.1328125)"/>
<path d="M0 0 C7.54933211 3.14555504 11.96393874 11.75514997 15 19 C15.37253906 19.77859375 15.74507812 20.5571875 16.12890625 21.359375 C19.05277793 28.40926769 19.39204261 35.15533051 19.4375 42.6875 C19.45248535 44.14845093 19.45248535 44.14845093 19.46777344 45.63891602 C19.39290161 51.93189312 18.3778871 57.17077962 16 63 C15.34 62.67 14.68 62.34 14 62 C14.2165625 61.30777344 14.433125 60.61554688 14.65625 59.90234375 C18.11826183 47.73721885 18.31822813 35.94477619 14 24 C13.6596875 23.01257813 13.319375 22.02515625 12.96875 21.0078125 C10.47730985 14.39202886 7.2808908 9.31501977 2.671875 3.9609375 C1 2 1 2 0 0 Z " fill="#DA6A53" transform="translate(212,200)"/>
<path d="M0 0 C9.19857863 16.12637844 5.52518445 42.23352371 3 60 C2.34 60 1.68 60 1 60 C0.957279 58.33388095 0.95936168 56.66617115 1 55 C1.495 54.505 1.495 54.505 2 54 C2.11368161 51.64249189 2.16419033 49.31553621 2.16796875 46.95703125 C2.17129715 46.2369841 2.17462555 45.51693695 2.17805481 44.77507019 C2.18313463 43.23913207 2.18546281 41.70318284 2.18530273 40.16723633 C2.187449 37.86715029 2.20547792 35.5675765 2.22460938 33.26757812 C2.25511468 25.01471936 1.83323519 17.17266654 0.4309082 9.0222168 C-0.0039863 5.97204172 -0.07284517 3.07648474 0 0 Z " fill="#D4644B" transform="translate(274,199)"/>
<path d="M0 0 C9 3 9 3 11.63671875 4.08203125 C16.34203238 5.36629223 20.83110758 5.33872862 25.6875 5.3125 C27.15437256 5.31056641 27.15437256 5.31056641 28.65087891 5.30859375 C35.44197052 5.21809111 41.6409921 4.55577351 48 2 C47 5 47 5 45.12890625 5.94921875 C32.27485316 9.64696005 18.6738108 9.17490238 6 5 C6 4.34 6 3.68 6 3 C3.03 2.505 3.03 2.505 0 2 C0 1.34 0 0.68 0 0 Z " fill="#D86B51" transform="translate(149,293)"/>
<path d="M0 0 C1.18681726 3.56045177 1.09689832 6.43808337 1.0625 10.1875 C1.05347656 11.45980469 1.04445312 12.73210938 1.03515625 14.04296875 C1.02355469 15.01878906 1.01195312 15.99460937 1 17 C2.32 17.66 3.64 18.32 5 19 C5 19.99 5 20.98 5 22 C9.19513682 25.47889394 12.60713425 26.56857074 18 27 C18 27.33 18 27.66 18 28 C11.95350931 28.62984278 7.68447578 28.11935723 2.6640625 24.5390625 C-0.7228919 21.40652721 -1.80117079 18.053482 -2.23828125 13.5390625 C-2.37815668 8.63606062 -1.9274344 4.57765671 0 0 Z " fill="#8A4E89" transform="translate(195,28)"/>
<path d="M0 0 C3.37592733 1.73911408 4.36608502 4.73025629 6.0625 8.0625 C5.03125 7.69125 4 7.32 2.9375 6.9375 C-1.27125955 5.98713494 -3.05913756 6.35980429 -6.9375 8.0625 C-7.2675 9.7125 -7.5975 11.3625 -7.9375 13.0625 C-8.5975 13.0625 -9.2575 13.0625 -9.9375 13.0625 C-6.04734848 0.19507576 -6.04734848 0.19507576 0 0 Z " fill="#985193" transform="translate(208.9375,7.9375)"/>
<path d="M0 0 C0.33 0 0.66 0 1 0 C1 4.95 1 9.9 1 15 C0.34 15 -0.32 15 -1 15 C-1.433125 15.86625 -1.433125 15.86625 -1.875 16.75 C-2.91666667 18.83333333 -3.95833333 20.91666667 -5 23 C-5.66 23 -6.32 23 -7 23 C-5.18120817 15.10479003 -2.92975651 7.55490512 0 0 Z " fill="#DF6246" transform="translate(116,95)"/>
<path d="M0 0 C0 0.33 0 0.66 0 1 C-0.70125 1.10957031 -1.4025 1.21914062 -2.125 1.33203125 C-12.30137658 3.03270288 -19.59773903 6.15864342 -28.4609375 11.4765625 C-31 13 -31 13 -33 14 C-33 12.68 -33 11.36 -33 10 C-26.375 7.125 -26.375 7.125 -23 6 C-23 5.34 -23 4.68 -23 4 C-15.68043889 0.09404586 -8.16440715 -0.30680444 0 0 Z " fill="#D7624A" transform="translate(173,185)"/>
<path d="M0 0 C4.40824473 2.90299043 8.71640781 5.91581363 13 9 C7 12 7 12 5 11.5 C1.98703587 9.24027691 1.81630006 6.57916181 1 3 C0.67 2.01 0.34 1.02 0 0 Z " fill="#E75939" transform="translate(136,283)"/>
<path d="M0 0 C3.5 0.9375 3.5 0.9375 5.4375 3 C5.788125 3.639375 6.13875 4.27875 6.5 4.9375 C5.778125 4.89625 5.05625 4.855 4.3125 4.8125 C1.29270631 4.94671305 -0.76935729 5.68920619 -3.5 6.9375 C-3.83 5.9475 -4.16 4.9575 -4.5 3.9375 C-5.16 3.6075 -5.82 3.2775 -6.5 2.9375 C-4.48884774 -0.02007686 -3.67399752 -0.0656071 0 0 Z " fill="#E35D3C" transform="translate(144.5,34.0625)"/>
<path d="M0 0 C11.50501355 -0.58062685 19.20631233 2.14230974 29 8 C29 8.66 29 9.32 29 10 C26.40611263 8.98315849 23.84698759 7.93071136 21.30859375 6.78125 C14.26366492 3.6373906 7.65452184 1.90931376 0 1 C0 0.67 0 0.34 0 0 Z " fill="#D56747" transform="translate(177,185)"/>
<path d="M0 0 C2.24469451 0.91190715 3.42203265 1.99783754 5 3.8125 C4.0925 3.626875 3.185 3.44125 2.25 3.25 C-0.68314324 2.85515379 -2.2644657 2.86558428 -5 3.8125 C-5.33 6.1225 -5.66 8.4325 -6 10.8125 C-6.99 10.8125 -7.98 10.8125 -9 10.8125 C-9 11.4725 -9 12.1325 -9 12.8125 C-9.66 12.8125 -10.32 12.8125 -11 12.8125 C-9.29688714 7.98701357 -6.18987937 -0.58030119 0 0 Z " fill="#E06849" transform="translate(230,107.1875)"/>
<path d="M0 0 C3.35652667 1.67826334 4.16475623 5.34327767 5.68359375 8.65234375 C6.92065601 11.27531375 6.92065601 11.27531375 10 13 C10.98515378 15.62356462 11.42238929 18.24524123 12 21 C9.03691019 18.22931862 6.91415338 15.50179219 4.875 12 C4.37742187 11.154375 3.87984375 10.30875 3.3671875 9.4375 C0 3.43428571 0 3.43428571 0 0 Z " fill="#D7654B" transform="translate(80,278)"/>
<path d="M0 0 C2.97 0.495 2.97 0.495 6 1 C5.04737966 2.48285242 4.08771595 3.96118201 3.125 5.4375 C2.59132812 6.26121094 2.05765625 7.08492187 1.5078125 7.93359375 C0 10 0 10 -2 11 C-2.28571429 3.57142857 -2.28571429 3.57142857 0 0 Z " fill="#E35D42" transform="translate(131,201)"/>
<path d="M0 0 C-0.66666667 2 -1.33333333 4 -2 6 C-2.36158203 7.15435547 -2.36158203 7.15435547 -2.73046875 8.33203125 C-2.98441406 9.12996094 -3.23835938 9.92789063 -3.5 10.75 C-3.7371875 11.50796875 -3.974375 12.2659375 -4.21875 13.046875 C-5 15 -5 15 -7 17 C-6.65211719 6.093874 -6.65211719 6.093874 -4.0625 1.75 C-2 0 -2 0 0 0 Z " fill="#D7614B" transform="translate(129,212)"/>
<path d="M0 0 C2.30153291 2.30153291 2.7577028 3.84875905 3.6875 6.9375 C3.95949219 7.81277344 4.23148438 8.68804687 4.51171875 9.58984375 C5 12 5 12 4 15 C2.68 14.34 1.36 13.68 0 13 C0 8.71 0 4.42 0 0 Z " fill="#DD6240" transform="translate(170,96)"/>
<path d="M0 0 C0.33 0 0.66 0 1 0 C1.69918305 2.58067563 2.38461049 5.16372847 3.0625 7.75 C3.26166016 8.47960937 3.46082031 9.20921875 3.66601562 9.9609375 C4.63744407 13.71031044 5.15449387 16.30274238 4 20 C1.69960876 16.54941314 1.5261725 14.05904498 1 10 C0.67 9.67 0.34 9.34 0 9 C-0.07179964 7.48071962 -0.08392007 5.95832518 -0.0625 4.4375 C-0.05347656 3.61121094 -0.04445312 2.78492187 -0.03515625 1.93359375 C-0.02355469 1.29550781 -0.01195312 0.65742187 0 0 Z " fill="#D96247" transform="translate(165,76)"/>
<path d="M0 0 C0 0.99 0 1.98 0 3 C1.06541016 3.18175781 1.06541016 3.18175781 2.15234375 3.3671875 C3.07144531 3.53476562 3.99054688 3.70234375 4.9375 3.875 C5.85402344 4.03742188 6.77054688 4.19984375 7.71484375 4.3671875 C8.84599609 4.68042969 8.84599609 4.68042969 10 5 C10.33 5.66 10.66 6.32 11 7 C0.44191344 5.07289294 0.44191344 5.07289294 -4 3 C-4 2.34 -4 1.68 -4 1 C-2 0 -2 0 0 0 Z " fill="#DE6547" transform="translate(143,332)"/>
<path d="M0 0 C2.5999298 2.51027705 4.99091227 4.9863684 7 8 C7 8.66 7 9.32 7 10 C4.69 9.67 2.38 9.34 0 9 C0.66 7.68 1.32 6.36 2 5 C1.34 4.67 0.68 4.34 0 4 C0 2.68 0 1.36 0 0 Z " fill="#D96042" transform="translate(129,273)"/>
<path d="M0 0 C5.09460217 2.39745985 8.09482341 6.29780696 11 11 C11 11.66 11 12.32 11 13 C10.34 13 9.68 13 9 13 C9 12.34 9 11.68 9 11 C8.01 11 7.02 11 6 11 C5.938125 10.2575 5.87625 9.515 5.8125 8.75 C4.75812 5.18132923 2.92604058 4.17577376 0 2 C0 1.34 0 0.68 0 0 Z " fill="#D86149" transform="translate(236,114)"/>
<path d="M0 0 C3.4645173 1.21726284 5.43854318 2.43854318 8 5 C10.10332891 5.71447643 10.10332891 5.71447643 12 6 C12.33 7.32 12.66 8.64 13 10 C9.74035658 8.51222697 7.06830707 6.64333184 4.25 4.4375 C3.45078125 3.81746094 2.6515625 3.19742187 1.828125 2.55859375 C1.22484375 2.04425781 0.6215625 1.52992188 0 1 C0 0.67 0 0.34 0 0 Z " fill="#D6644D" transform="translate(104,313)"/>
<path d="M0 0 C3.34404684 1.82402555 4.35692119 4.77475591 6.0625 8.125 C3.0925 7.63 3.0925 7.63 0.0625 7.125 C0.0625 5.805 0.0625 4.485 0.0625 3.125 C-1.5875 3.125 -3.2375 3.125 -4.9375 3.125 C-2.57015306 0.16581633 -2.57015306 0.16581633 0 0 Z " fill="#7E467A" transform="translate(208.9375,7.875)"/>
<path d="M0 0 C3.42931954 3.7559214 4.56429083 8.23466745 6 13 C5.53980469 12.53078125 5.07960938 12.0615625 4.60546875 11.578125 C3.05188959 9.97797472 3.05188959 9.97797472 1.3125 8.75 C-0.75476578 5.99364562 -0.18823775 3.32553354 0 0 Z " fill="#D96750" transform="translate(253,137)"/>
<path d="M0 0 C0.99 0.33 1.98 0.66 3 1 C-0.96 4.465 -0.96 4.465 -5 8 C-5.33 7.34 -5.66 6.68 -6 6 C-5.67 5.01 -5.34 4.02 -5 3 C-3.35 2.67 -1.7 2.34 0 2 C0 1.34 0 0.68 0 0 Z " fill="#D96045" transform="translate(245,313)"/>
<path d="M0 0 C3.74281699 2.38179263 6.97727468 4.74475735 10 8 C9.01 8.33 8.02 8.66 7 9 C6.401875 8.21625 5.80375 7.4325 5.1875 6.625 C3.08914751 3.85425677 3.08914751 3.85425677 0 2 C0 1.34 0 0.68 0 0 Z " fill="#D8644D" transform="translate(136,283)"/>
<path d="M0 0 C2.24469451 0.91190715 3.42203265 1.99783754 5 3.8125 C4.113125 3.60625 3.22625 3.4 2.3125 3.1875 C-1.2252711 2.78699761 -2.86632967 3.24566484 -6 4.8125 C-4.88684602 1.47303806 -3.81228707 -0.35740191 0 0 Z " fill="#D36E56" transform="translate(230,107.1875)"/>
<path d="M0 0 C3.3 1.65 6.6 3.3 10 5 C10 5.66 10 6.32 10 7 C6.2089881 5.55049545 2.6125362 3.84827434 -1 2 C-0.67 1.34 -0.34 0.68 0 0 Z " fill="#D76B54" transform="translate(196,188)"/>
<path d="M0 0 C0.33 0 0.66 0 1 0 C1.14285714 8.57142857 1.14285714 8.57142857 0 12 C-0.66 12 -1.32 12 -2 12 C-2.26252625 7.66831683 -1.29243536 4.1196377 0 0 Z " fill="#D45F47" transform="translate(277,247)"/>
<path d="M0 0 C-0.99 1.485 -0.99 1.485 -2 3 C-2.33 3.66 -2.66 4.32 -3 5 C-4.65 3.35 -6.3 1.7 -8 0 C-4.71303767 -0.79953138 -3.28976808 -1.09658936 0 0 Z " fill="#E26043" transform="translate(214,195)"/>
<path d="M0 0 C2.15377564 2.62198774 3.40072174 4.64404172 4 8 C1.525 7.01 1.525 7.01 -1 6 C-0.67 4.02 -0.34 2.04 0 0 Z " fill="#D75D42" transform="translate(180,124)"/>
<path d="M0 0 C0.33 0 0.66 0 1 0 C1.05399736 1.45792884 1.09279177 2.91642712 1.125 4.375 C1.14820313 5.18710937 1.17140625 5.99921875 1.1953125 6.8359375 C1 9 1 9 -1 11 C-2.60080151 6.99799622 -1.29279692 3.95443764 0 0 Z " fill="#914E8E" transform="translate(222,38)"/>
</svg>
